<svg id="f6ed7d71-5733-4d17-92f8-cf55dbf8810b" data-name="Capa 1" xmlns="http://www.w3.org/2000/svg" width="23.7" height="23.7" viewBox="0 0 23.7 23.7"><title>descarga</title><path d="M12.1,0.3a11.85,11.85,0,0,0,0,23.7A11.93,11.93,0,0,0,24,12.1,11.91,11.91,0,0,0,12.1.3ZM6.88,12.15v8.69a10.15,10.15,0,0,1,0-17.47v8.79ZM12.1,22.3a10.08,10.08,0,0,1-5-1.35l7.53-4.35,7.71-4.45A10.24,10.24,0,0,1,12.1,22.3ZM14.59,7.7L7,3.3A10.16,10.16,0,0,1,22.3,12.1s0,0,0,0Z" transform="translate(-0.3 -0.3)" fill="#009ee2"/></svg>