<svg id="Capa_1" data-name="Capa 1" xmlns="http://www.w3.org/2000/svg" viewBox="0 0 258.17 33.37"><defs><style>.cls-1{fill:#009ee2;}</style></defs><title>curriculum</title><path class="cls-1" d="M0,32.8V0.57H3.57V14.9H19.12V0.57h3.62V32.8H19.12V18.08H3.57V32.8H0Z"/><path class="cls-1" d="M60.16,0.57h8.5c2.92,0,4.92.52,6.36,1.52A7.32,7.32,0,0,1,78.5,8.8a7.24,7.24,0,0,1-4.31,6.84,8.27,8.27,0,0,1,6.19,8.19A8.17,8.17,0,0,1,76,31.37c-1.92,1.18-3.75,1.44-6.93,1.44H60.16V0.57Zm3.57,13.94h4.88a9,9,0,0,0,3.79-.65A4.93,4.93,0,0,0,75,9.06a4.87,4.87,0,0,0-2.61-4.57,8.7,8.7,0,0,0-4-.74H63.74V14.51Zm0,15.12h5.84A10.72,10.72,0,0,0,73.5,29a5.48,5.48,0,0,0,3.4-5.36,5.73,5.73,0,0,0-3.44-5.45,10.28,10.28,0,0,0-4.53-.65H63.74V29.62Z"/><path class="cls-1" d="M85.21,0.57h3.57V32.8H85.21V0.57Z"/><path class="cls-1" d="M95.32,0.57h3.62V29.62h12.29V32.8H95.32V0.57Z"/><path class="cls-1" d="M114.62,0.57h3.57V32.8h-3.57V0.57Z"/><path class="cls-1" d="M124.68,0.57h9.63c4.57,0,9.45,1,12.68,4.83,2.62,2.88,3.88,6.67,3.88,11.24,0,9.71-5.53,16.16-16.38,16.16h-9.8V0.57Zm3.57,29.06h6.4c8.28,0,12.59-5.1,12.59-12.85,0-3.75-1-7.06-3.14-9.41-2-2.18-5.05-3.62-9.45-3.62h-6.4V29.62Z"/><path class="cls-1" d="M184.93,0.57h9.63c4.57,0,9.45,1,12.68,4.83,2.61,2.88,3.88,6.67,3.88,11.24,0,9.71-5.53,16.16-16.38,16.16h-9.8V0.57Zm3.57,29.06h6.4c8.28,0,12.59-5.1,12.59-12.85,0-3.75-1-7.06-3.14-9.41-2-2.18-5.05-3.62-9.45-3.62h-6.4V29.62Z"/><path class="cls-1" d="M216.08,0.57h17.86V3.75H219.65v11.2h14.2v3.18h-14.2v11.5h14.29V32.8H216.08V0.57Z"/><path class="cls-1" d="M241.7,23.83c0.52,5.36,4.44,6.49,6.45,6.49a6.31,6.31,0,0,0,6.45-6.14c0-4.53-3.88-5.53-7.62-6.75-2.61-.78-8.23-2.44-8.23-8.54C238.65,3.18,243.4,0,248.32,0c4,0,8.62,2.22,9.15,8.32H253.9C253.5,6.23,252.46,3,248.19,3c-3.22,0-5.88,2.18-5.88,5.53,0,3.92,3.14,4.88,8,6.53,3,1.18,7.84,2.88,7.84,8.8,0,5.27-4,9.45-10,9.45-5.4,0-9.89-3.4-10.11-9.54h3.62Z"/><path class="cls-1" d="M42.65,1.07H39.19l-13.37,32H55.89ZM30.77,30.33l10-25.23,10.1,25.23H30.77Z"/><path class="cls-1" d="M168.65,1.07h-3.46l-13.37,32h30.08ZM156.77,30.33l10-25.23,10.1,25.23H156.77Z"/></svg>