<?xml version="1.0" encoding="utf-8"?>
<!-- Generator: Adobe Illustrator 19.2.0, SVG Export Plug-In . SVG Version: 6.00 Build 0)  -->
<svg version="1.1" id="Layer_1" xmlns="http://www.w3.org/2000/svg" xmlns:xlink="http://www.w3.org/1999/xlink" x="0px" y="0px"
	 viewBox="0 0 24 24" style="enable-background:new 0 0 24 24;" xml:space="preserve">
<style type="text/css">
	.st0{fill:#006289;}
	.st1{fill:#9C9B9B;}
	.st2{fill:#009EE2;}
	.st3{fill:#81CFF4;}
	.st4{fill:#FFFFFF;}
	.st5{fill:#D9D9D9;}
</style>
<path class="st0" d="M11.8,12.7v-1.2l-1,0.6C11,12.5,11.4,12.7,11.8,12.7z"/>
<path class="st0" d="M18.8,7.3h-0.2h-0.6h-0.6h-0.7h-4.9v1.3l3.7,0h0l0.6,0v0h0c0.1,0,0.2,0,0.2,0.1c0,0,0.1,0.1,0.1,0.1l0.3-0.2
	L17.9,8l0.5-0.3l0,0l0.5-0.3L18.8,7.3C18.9,7.3,18.9,7.3,18.8,7.3z"/>
<path class="st1" d="M12.9,12.1l-1.1-0.6l0,0v1.2c0,0,0,0,0,0C12.3,12.7,12.7,12.5,12.9,12.1z"/>
<path class="st1" d="M7.4,8.9c0,0,0-0.1,0.1-0.1c0,0,0,0,0,0c0.1-0.1,0.2-0.2,0.3-0.2l4.2,0V7.3H6.4c-0.1,0-0.2,0-0.2-0.1
	C6,7.1,5.9,6.9,6,6.7l0,0l0.8-1.4l0,0h5V4.5H6.7h0c-0.1,0-0.2,0.1-0.3,0.2c0,0,0,0,0,0l0,0C6.4,4.7,5,7,5,7.1
	C4.9,7.1,4.9,7.2,4.9,7.3c0,0,0,0,0,0L5,7.5"/>
<path class="st2" d="M11.8,11.5L11.8,11.5l-1.1-0.6c-0.1,0.2-0.2,0.4-0.2,0.6c0,0.2,0.1,0.4,0.2,0.6L11.8,11.5z"/>
<path class="st2" d="M19.6,10L17,14.5l0.7,0.4l2.7-4.7c0.1-0.1,0.1-0.2,0-0.3v0l0-0.1l-0.1-0.1c0,0-1.2-2.2-1.2-2.2
	c0,0-0.1-0.1-0.1-0.1l-0.1,0.1l-0.5,0.3l0,0L17.9,8l-1.1,0.6l-0.3,0.2c0,0.1,0.1,0.2,0,0.3c0,0,0,0.1-0.1,0.1c0,0,0,0,0,0l-2.1,3.7
	l1.1,0.6c0,0,2.9-5,2.9-5c0.1-0.1,0.3-0.1,0.5,0C18.8,8.5,19.6,10,19.6,10"/>
<path class="st3" d="M10.8,10.9l1.1,0.6v-1.2C11.4,10.3,11,10.5,10.8,10.9z"/>
<path class="st3" d="M14.3,12.9c0,0-2.1,3.6-2.1,3.6c0,0,0,0,0,0c0,0-0.1,0.1-0.1,0.1c-0.1,0-0.1,0-0.2,0v0.3v1.3v0.5v0.6l0,0
	l3.5-5.9L14.3,12.9z"/>
<path class="st4" d="M11.9,11.5l1.1-0.6c-0.2-0.4-0.6-0.6-1.1-0.6c0,0,0,0,0,0L11.9,11.5L11.9,11.5z"/>
<path class="st4" d="M11.6,16.5c0,0-2.1-3.7-2.1-3.7l-1.1,0.6l2.7,4.7l0,0c0.1,0.1,0.1,0.3,0,0.4c-0.1,0.1-0.2,0.2-0.3,0.2v0H9.2
	l-2.5-4.3l-0.7,0.4l2.5,4.4l0.1,0.1c0,0,0,0,0.1,0.1c0.1,0,0.1,0.1,0.2,0.1h2.7c0.1,0,0.1,0,0.2,0v0v-2.8
	C11.8,16.7,11.7,16.6,11.6,16.5C11.7,16.6,11.6,16.6,11.6,16.5z"/>
<path class="st5" d="M12.9,12.1c0.1-0.2,0.2-0.4,0.2-0.6c0-0.2-0.1-0.4-0.2-0.6l-1.1,0.6L12.9,12.1z"/>
<path class="st5" d="M7.7,9.7L7.5,9.4L7.5,9.4L7.4,9.2l0,0c0,0,0,0,0,0c0-0.1,0-0.2,0-0.3c0,0-2.3-1.3-2.3-1.4L5.3,8l0.3,0.5
	l0.1,0.1L6,9.2l0,0.1l2.4,4.2l1.1-0.6L7.7,9.7L7.7,9.7z"/>
</svg>
