<?xml version="1.0" encoding="utf-8"?>
<!-- Generator: Adobe Illustrator 19.2.0, SVG Export Plug-In . SVG Version: 6.00 Build 0)  -->
<svg version="1.1" id="Capa_1" xmlns="http://www.w3.org/2000/svg" xmlns:xlink="http://www.w3.org/1999/xlink" x="0px" y="0px"
	 viewBox="0 0 249.1 32.7" style="enable-background:new 0 0 249.1 32.7;" xml:space="preserve">
<style type="text/css">
	.st0{fill:#009EE2;}
</style>
<title>descarga</title>
<path class="st0" d="M8.3,0.6c4.4,0,6.5,0.5,8.5,2c2.2,1.9,3.4,4.6,3.4,7.5c0.1,2.9-1.1,5.6-3.2,7.5c-2.1,1.6-4.2,2.1-8.3,2.1H3.5
	v12.4H0V0.6H8.3z M3.5,16.6h5c2.6,0,4.3-0.3,5.8-1.3c1.6-1.2,2.4-3.1,2.3-5.1c0.1-2-0.8-3.9-2.4-5.1c-1.6-1-3.2-1.3-5.9-1.3H3.5
	L3.5,16.6L3.5,16.6z"/>
<path class="st0" d="M22.3,16.4C22.2,7.5,29.3,0.2,38.2,0c0.2,0,0.4,0,0.6,0c8.9-0.2,16.3,6.9,16.4,15.8c0,0.2,0,0.3,0,0.5
	c0.1,8.9-7,16.2-15.9,16.3c-0.2,0-0.4,0-0.5,0c-8.9,0.2-16.3-6.9-16.4-15.8C22.3,16.7,22.3,16.6,22.3,16.4L22.3,16.4L22.3,16.4z
	 M25.9,16.3c-0.2,7.1,5.4,13.1,12.6,13.3c7.1,0.2,13.1-5.4,13.3-12.6c0-0.2,0-0.5,0-0.7C51.9,9.2,46.3,3.2,39.2,3
	C32,2.8,26.1,8.5,25.9,15.6C25.9,15.8,25.9,16.1,25.9,16.3C25.9,16.3,25.9,16.3,25.9,16.3z"/>
<path class="st0" d="M59.8,0.6H68c4.9,0,7.3,0.6,8.9,1.6c2.6,1.5,4.3,4.9,4.3,8.5c0.1,2.2-0.6,4.4-1.9,6.2c-1.9,2.6-4.1,3.1-7,3.5
	l7.8,11.8h-3.8l-8.9-13.8h1c2.2,0,5.3,0,7-1.6c1.6-1.5,2.5-3.6,2.4-5.8c0-2.4-1.1-4.7-3.1-6.1c-1.6-1-3.5-1.2-6.4-1.2h-4.9v28.4
	h-3.5V0.6z"/>
<path class="st0" d="M90,3.7h-7.7V0.6h19.1v3.1h-7.8v28.4H90V3.7z"/>
<path class="st0" d="M131.8,0.6h16v3.1h-12.5v11.1h12.4v3.1h-12.4v14.2h-3.5L131.8,0.6L131.8,0.6z"/>
<path class="st0" d="M151.1,16.4c0-9.1,7.3-16.5,16.4-16.5S184,7.2,184,16.3c0,9.1-7.3,16.5-16.4,16.5
	C158.5,32.9,151.1,25.5,151.1,16.4L151.1,16.4L151.1,16.4z M154.6,16.3c-0.2,7.1,5.4,13.1,12.6,13.3c7.1,0.2,13.1-5.4,13.3-12.6
	c0-0.2,0-0.5,0-0.7c0.2-7.1-5.4-13.1-12.6-13.3s-13.1,5.4-13.3,12.6C154.6,15.8,154.6,16.1,154.6,16.3L154.6,16.3z"/>
<path class="st0" d="M188.9,0.6h3.5V29h12v3.1h-15.5V0.6z"/>
<path class="st0" d="M207.8,0.6h3.5v31.5h-3.5V0.6z"/>
<path class="st0" d="M216.1,16.4c0-9.1,7.3-16.5,16.4-16.5S249,7.2,249,16.3c0,9.1-7.3,16.5-16.4,16.5
	C223.6,32.9,216.2,25.5,216.1,16.4L216.1,16.4L216.1,16.4z M219.7,16.3c-0.2,7.1,5.4,13.1,12.6,13.3c7.1,0.2,13.1-5.4,13.3-12.6
	c0-0.2,0-0.5,0-0.7C245.8,9.2,240.1,3.2,233,3s-13.1,5.4-13.3,12.6C219.7,15.8,219.7,16.1,219.7,16.3L219.7,16.3z"/>
<path class="st0" d="M115.4,0.5H112L98.9,31.9h29.4L115.4,0.5z M103.8,29.1l9.8-24.7l9.9,24.7H103.8z"/>
</svg>
