<svg id="3471a419-d045-48cd-982a-95d58a79c6e7" data-name="119851a6-63c1-4f8c-b2bf-c236a8b9de79" xmlns="http://www.w3.org/2000/svg" xmlns:xlink="http://www.w3.org/1999/xlink" width="200" height="200" viewBox="0 0 200 200"><defs><clipPath id="82c67cb6-f665-4a01-ac17-a82e3ba22c10"><rect x="20.44" y="98.01" width="77.85" height="51.16" rx="0.99" ry="0.99" fill="none"/></clipPath></defs><title>skill-2</title><circle cx="100" cy="100" r="100" fill="#1c1c1c"/><g id="16135cf0-2a65-4c73-a2e6-a73341d02e5c" data-name="16a1844c-0bc0-4130-8b35-f84d74e9a5bc"><rect x="41.42" y="32.68" width="86.91" height="114.34" rx="1.05" ry="1.05" fill="#fff"/><path d="M127.27,147.29H42.46A1.32,1.32,0,0,1,41.14,146V33.73a1.32,1.32,0,0,1,1.32-1.32h84.81a1.32,1.32,0,0,1,1.32,1.32V146A1.32,1.32,0,0,1,127.27,147.29ZM42.46,32.94a0.79,0.79,0,0,0-.79.79V146a0.79,0.79,0,0,0,.79.79h84.81a0.79,0.79,0,0,0,.79-0.79V33.73a0.79,0.79,0,0,0-.79-0.79H42.46Z" fill="#fff"/></g><g id="9c58da2e-3935-468a-b976-d26050d73cdd" data-name="cae8bc51-30f7-41ff-9fd8-a689f0226bb5"><rect x="109.05" y="40.79" width="71.17" height="104.87" rx="1.29" ry="1.29" fill="#fcd17a"/><path d="M178.93,146H110.34a1.61,1.61,0,0,1-1.61-1.61h0V42a1.61,1.61,0,0,1,1.61-1.61h68.59A1.61,1.61,0,0,1,180.54,42h0V144.32A1.61,1.61,0,0,1,179,146h-0.05ZM110.34,41.11a1,1,0,0,0-1,1V144.37a1,1,0,0,0,1,1h68.59a1,1,0,0,0,1-1V42a1,1,0,0,0-1-1H110.34v0Z" fill="#333"/></g><g id="c11d82e8-873c-4e44-b0ab-03fc3df2a63f" data-name="7c4f2c5f-39e5-46c1-b403-b1b0c887c34c"><path d="M179.09,40.79H110.5a1.24,1.24,0,0,0-1.24,1c1.61,4.43,4.36,12,4.67,13.09,0.43,1.51.86,2.48,3.24,2.48H172.3c2.37,0,2.8-1,3.24-2.48,0.31-1.08,3.14-8.91,4.74-13.3A1.24,1.24,0,0,0,179.09,40.79Z" fill="#fcd17a"/><path d="M172.29,57.63H117.15c-2.57,0-3.09-1.13-3.55-2.72-0.3-1.05-3-8.69-4.65-13.07v-0.2a1.61,1.61,0,0,1,1.56-1.24H179.1a1.63,1.63,0,0,1,1.45.92v0.25c-1.64,4.51-4.43,12.22-4.73,13.29C175.38,56.5,174.86,57.63,172.29,57.63Zm-62.7-15.9c1.61,4.46,4.33,12,4.63,13,0.41,1.43.74,2.25,2.92,2.25h55.14c2.17,0,2.48-.81,2.92-2.25,0.31-1.07,3.05-8.69,4.69-13.19a1,1,0,0,0-.81-0.43H110.5A1,1,0,0,0,109.59,41.74Z" fill="#333"/></g><g id="9d1f88e0-cfef-4375-892f-394663eefef5" data-name="0e561172-d93c-4a03-aca6-be6a6f2d68a2"><path d="M145.19,68.37A2.92,2.92,0,0,1,142,65.23a42.54,42.54,0,0,1,2.16-7.69c-0.87-2.36-1.58-4.33-2-5.78a2.37,2.37,0,0,1-1.3-2.36c0-3,1.37-4.53,3.95-4.53,1.63,0,2.78,1.18,4,2.42a7.31,7.31,0,0,0,4.11,2.64,0.32,0.32,0,1,1-.07.65,7.91,7.91,0,0,1-4.49-2.83c-1.13-1.14-2.18-2.22-3.54-2.22-2.2,0-3.3,1.3-3.3,3.88a2.11,2.11,0,0,0,.35,1.24,5.76,5.76,0,0,1-.24-1.24c0-1.63.36-3.5,3.2-3.5a3.18,3.18,0,0,1,3.49,3.49A2.31,2.31,0,0,1,146.76,52c-0.3.91-.68,2-1.13,3.38l-0.76,2.22,0.66,1.77a46.85,46.85,0,0,1,2.21,6.49A2.64,2.64,0,0,1,145.19,68.37Zm-0.62-9.87a38.17,38.17,0,0,0-1.86,6.73,2.26,2.26,0,0,0,2.48,2.48,2,2,0,0,0,1.94-1.94A64.06,64.06,0,0,0,145,59.57ZM142.91,52c0.42,1.24,1,2.92,1.6,4.54L145,55c0.35-1,.71-2.07,1-3a8.17,8.17,0,0,1-1.24.09A8.32,8.32,0,0,1,142.91,52Zm-0.24-.74a6.33,6.33,0,0,0,2.11.27,6.68,6.68,0,0,0,1.45-.12,14.07,14.07,0,0,0,.62-2.22,1.71,1.71,0,0,0-1.55-1.86H145c-1.35,0-2.06.09-2.06,2.06a0.32,0.32,0,0,1-.65,0c0-2.48,1.24-2.71,2.71-2.71a2.35,2.35,0,0,1,2.48,2.48A9.31,9.31,0,0,1,147,51a1.91,1.91,0,0,0,.62-1.71,2.56,2.56,0,0,0-2.84-2.84c-1.84,0-2.56.81-2.56,2.85a8.61,8.61,0,0,0,.48,1.95Z" fill="#333"/></g><g id="45957422-eadc-42a8-b4e2-d9885db3ebdc" data-name="836a6044-131e-4944-ae84-3b3baad8514a"><path d="M144.8,44.38a5,5,0,1,0,5,5A5,5,0,0,0,144.8,44.38Zm0,6.06a1.05,1.05,0,1,1,1.05-1.05h0A1.05,1.05,0,0,1,144.8,50.44Z" fill="#e2e2e2"/><path d="M144.8,54.72a5.34,5.34,0,1,1,5.34-5.34,5.34,5.34,0,0,1-5.34,5.34h0Zm0-10a4.69,4.69,0,1,0,4.69,4.69h0a4.69,4.69,0,0,0-4.69-4.68h0Zm0,6.06a1.38,1.38,0,1,1,1.38-1.38,1.38,1.38,0,0,1-1.38,1.38v0Zm0-2.1a0.73,0.73,0,1,0,.73.73h0a0.73,0.73,0,0,0-.73-0.72h0Z" fill="#333"/></g><g id="b1ed5b44-1b74-4113-b1df-1cb35aba7bd8" data-name="af018901-56b7-4458-a444-059522b96d5a"><path d="M144.8,60.54a5,5,0,1,0,5,5A5,5,0,0,0,144.8,60.54Zm0,6.06a1.05,1.05,0,1,1,1.05-1.05h0a1.05,1.05,0,0,1-1,1.07h0Z" fill="#e2e2e2"/><path d="M144.8,70.89a5.34,5.34,0,1,1,5.35-5.32v0A5.34,5.34,0,0,1,144.8,70.89Zm0-10a4.69,4.69,0,1,0,.06,0H144.8Zm0,6.06a1.38,1.38,0,1,1,1.37-1.39s0,0.06,0,.08a1.38,1.38,0,0,1-1.37,1.32h0Zm0-2.1a0.73,0.73,0,1,0,.73.73h0a0.73,0.73,0,0,0-.73-0.72h0Z" fill="#333"/></g><path d="M95.35,99.85h-72a1,1,0,0,0-1,1v45.47a1,1,0,0,0,1,1h72a1,1,0,0,0,1-1V100.85A1,1,0,0,0,95.35,99.85Z" fill="#fff"/><polygon points="43.54 149.16 43.53 149.17 50.51 149.17 50.53 149.16 43.54 149.16" fill="none"/><polygon points="72 149.16 71.98 149.17 79.48 149.17 79.5 149.16 72 149.16" fill="none"/><polygon points="57.78 149.16 57.76 149.17 64.85 149.17 64.87 149.16 57.78 149.16" fill="none"/><polygon points="29.32 149.16 29.3 149.17 36.16 149.17 36.18 149.16 29.32 149.16" fill="none"/><polygon points="20.48 136.77 20.47 136.78 20.47 141.45 20.48 141.44 20.48 136.77" fill="none"/><polygon points="20.48 109.58 20.47 109.59 20.47 113.03 20.48 113.02 20.48 109.58" fill="none"/><polygon points="20.48 118.23 20.47 118.24 20.47 122.92 20.48 122.91 20.48 118.23" fill="none"/><path d="M21.47,149.16a1,1,0,0,1-1-1v-1.52h0v1.52a1,1,0,0,0,1,1h0Z" fill="none"/><polygon points="20.48 128.12 20.47 128.13 20.47 131.57 20.48 131.56 20.48 128.12" fill="none"/><polygon points="86.49 149.16 86.47 149.17 93.83 149.17 93.85 149.16 86.49 149.16" fill="none"/><polygon points="20.48 99.7 20.47 99.71 20.47 104.38 20.48 104.37 20.48 99.7" fill="none"/><polygon points="22.38 116.91 20.48 118.23 20.48 122.91 22.38 121.6 22.38 116.91" fill="#fff"/><polygon points="96.34 117.6 98.33 116.23 98.33 111.1 96.34 112.48 96.34 117.6" fill="#fff"/><polygon points="60.44 147.31 57.78 149.16 64.87 149.16 67.56 147.31 60.44 147.31" fill="#fff"/><path d="M96.34,146.32a1,1,0,0,1-1,1h-6.2l-2.66,1.85h7.35l4.48-3.09v-5.14l-2,1.38v4Z" fill="#fff"/><polygon points="22.38 108.26 20.48 109.58 20.48 113.02 22.38 111.71 22.38 108.26" fill="#fff"/><polygon points="39.59 99.85 42.28 98 37.14 98 34.48 99.85 39.59 99.85" fill="#fff"/><polygon points="96.34 137.55 98.33 136.19 98.33 130.87 96.34 132.25 96.34 137.55" fill="#fff"/><polygon points="22.38 126.8 20.48 128.12 20.48 131.56 22.38 130.25 22.38 126.8" fill="#fff"/><path d="M23.37,147.31a1,1,0,0,1-1-1v-1l-1.9,1.32v1.52a1,1,0,0,0,1,1h0.35l2.68-1.85H23.37Z" fill="#fff"/><polygon points="31.98 147.31 29.32 149.16 36.18 149.16 38.86 147.31 31.98 147.31" fill="#fff"/><path d="M20.48,99.7v4.67l1.9-1.31v-2.21a1,1,0,0,1,1-1H27L29.72,98h-6.8Z" fill="#fff"/><polygon points="22.38 135.45 20.48 136.77 20.48 141.44 22.38 140.13 22.38 135.45" fill="#fff"/><polygon points="46.2 147.31 43.54 149.16 50.53 149.16 53.21 147.31 46.2 147.31" fill="#fff"/><polygon points="66.49 99.85 69.17 98 63.82 98 61.15 99.85 66.49 99.85" fill="#fff"/><polygon points="96.34 127.48 98.33 126.12 98.33 120.98 96.34 122.36 96.34 127.48" fill="#fff"/><polygon points="80.85 99.85 83.53 98 76.27 98 73.61 99.85 80.85 99.85" fill="#fff"/><polygon points="96.34 107.72 98.33 106.35 98.33 101.21 96.34 102.59 96.34 107.72" fill="#fff"/><polygon points="74.66 147.31 72 149.16 79.5 149.16 82.18 147.31 74.66 147.31" fill="#fff"/><polygon points="53.94 99.85 56.62 98 49.59 98 46.93 99.85 53.94 99.85" fill="#fff"/><polygon points="93.4 99.85 96.09 98 90.49 98 87.83 99.85 93.4 99.85" fill="#fff"/><polygon points="21.83 149.16 21.81 149.17 29.3 149.17 29.32 149.16 21.83 149.16" fill="#bb4d67"/><polygon points="24.51 147.31 21.83 149.16 29.32 149.16 31.98 147.31 24.51 147.31" fill="#bb4d67"/><path d="M98.28,98.77a1,1,0,0,0,0-.16A1,1,0,0,1,98.28,98.77Z" fill="#bb4d67"/><path d="M98,98.29a1,1,0,0,1,.08.12A1,1,0,0,0,98,98.29Z" fill="#bb4d67"/><path d="M97.83,98.15l-0.1-.07Z" fill="#bb4d67"/><path d="M97.83,98.15a1,1,0,0,1,.21.14A1,1,0,0,0,97.83,98.15Z" fill="#bb4d67"/><path d="M98.25,98.61a1,1,0,0,0-.13-0.19A1,1,0,0,1,98.25,98.61Z" fill="#bb4d67"/><path d="M97.72,98.08A1,1,0,0,0,97.34,98,1,1,0,0,1,97.72,98.08Z" fill="#bb4d67"/><path d="M98.28,98.77a1,1,0,0,1,0,.23h0A1,1,0,0,0,98.28,98.77Z" fill="#bb4d67"/><path d="M95.35,99.85a1,1,0,0,1,1,1v1.74l2-1.38V99a1,1,0,0,0,0-.23,1,1,0,0,0,0-.16,1,1,0,0,0-.13-0.19A1,1,0,0,0,98,98.29a1,1,0,0,0-.21-0.14l-0.1-.07A1,1,0,0,0,97.34,98H96.09L93.4,99.85h1.95Z" fill="#bb4d67"/><polygon points="36.18 149.16 36.16 149.17 43.53 149.17 43.54 149.16 36.18 149.16" fill="#456ac9"/><polygon points="38.86 147.31 36.18 149.16 43.54 149.16 46.2 147.31 38.86 147.31" fill="#456ac9"/><polygon points="96.34 112.48 98.33 111.1 98.33 106.35 96.34 107.72 96.34 112.48" fill="#456ac9"/><polygon points="20.48 131.56 20.47 131.57 20.47 136.78 20.48 136.77 20.48 131.56" fill="#bb4d67"/><polygon points="22.38 130.25 20.48 131.56 20.48 136.77 22.38 135.45 22.38 130.25" fill="#bb4d67"/><polygon points="73.61 99.85 76.27 98 69.17 98 66.49 99.85 73.61 99.85" fill="#bb4d67"/><polygon points="20.48 141.44 20.47 141.45 20.47 146.66 20.48 146.65 20.48 141.44" fill="#456ac9"/><polygon points="22.38 140.13 20.48 141.44 20.48 146.65 22.38 145.33 22.38 140.13" fill="#456ac9"/><polygon points="87.83 99.85 90.49 98 83.53 98 80.85 99.85 87.83 99.85" fill="#456ac9"/><polygon points="20.48 113.02 20.47 113.03 20.47 118.24 20.48 118.23 20.48 113.02" fill="#bb4d67"/><polygon points="46.93 99.85 49.59 98 42.28 98 39.59 99.85 46.93 99.85" fill="#bb4d67"/><polygon points="22.38 111.71 20.48 113.02 20.48 118.23 22.38 116.91 22.38 111.71" fill="#bb4d67"/><polygon points="20.48 122.91 20.47 122.92 20.47 128.13 20.48 128.12 20.48 122.91" fill="#456ac9"/><polygon points="60.56 99.85 60.56 98 56.62 98 53.94 99.85 60.56 99.85" fill="#456ac9"/><polygon points="22.38 121.6 20.48 122.91 20.48 128.12 22.38 126.8 22.38 121.6" fill="#456ac9"/><polygon points="60.56 99.85 61.15 99.85 63.82 98 60.56 98 60.56 99.85" fill="#456ac9"/><path d="M20.48,99a1,1,0,0,1,1-1h0a1,1,0,0,0-1,1v0.71h0V99Z" fill="#bb4d67"/><path d="M20.48,99v0.7L22.92,98H21.47A1,1,0,0,0,20.48,99Z" fill="#bb4d67"/><polygon points="20.48 104.37 20.47 104.38 20.47 109.59 20.48 109.58 20.48 104.37" fill="#456ac9"/><polygon points="34.48 99.85 37.14 98 29.72 98 27.03 99.85 34.48 99.85" fill="#456ac9"/><polygon points="22.38 108.26 22.38 103.06 20.48 104.37 20.48 109.58 22.38 108.26" fill="#456ac9"/><polygon points="50.53 149.16 50.51 149.17 57.76 149.17 57.78 149.16 50.53 149.16" fill="#bb4d67"/><polygon points="53.21 147.31 50.53 149.16 57.78 149.16 60.44 147.31 53.21 147.31" fill="#bb4d67"/><polygon points="96.34 122.36 98.33 120.98 98.33 116.23 96.34 117.6 96.34 122.36" fill="#bb4d67"/><polygon points="64.87 149.16 64.85 149.17 71.98 149.17 72 149.16 64.87 149.16" fill="#456ac9"/><polygon points="96.34 132.25 98.33 130.87 98.33 126.12 96.34 127.48 96.34 132.25" fill="#456ac9"/><polygon points="67.56 147.31 64.87 149.16 72 149.16 74.66 147.31 67.56 147.31" fill="#456ac9"/><polygon points="79.5 149.16 79.48 149.17 86.47 149.17 86.49 149.16 79.5 149.16" fill="#bb4d67"/><polygon points="96.34 142.31 98.33 140.94 98.33 136.19 96.34 137.55 96.34 142.31" fill="#bb4d67"/><polygon points="79.5 149.16 86.49 149.16 89.15 147.31 82.18 147.31 79.5 149.16" fill="#bb4d67"/><path d="M98.33,148.18h0a1,1,0,0,1-1,1h0A1,1,0,0,0,98.33,148.18Z" fill="#456ac9"/><path d="M97.34,149.16a1,1,0,0,0,1-1v-2.09l-4.48,3.09h3.49Z" fill="#456ac9"/><g clip-path="url(#82c67cb6-f665-4a01-ac17-a82e3ba22c10)"><g id="506ec57c-7363-489f-8c87-86bed457a192" data-name="c8df4752-6edb-46df-bdf6-d172acf70556"><path d="M59.37,134.33c-0.26,0-.81,0-17.83-14.89-9.11-7.94-19.3-17-24.2-21.36l-1.59-1.41,0.32-.37,1.59,1.41c26.41,23.44,40.45,35.59,41.71,36.11,1.79-.72,29.09-24.51,42.2-36l0.32,0.37c-4,3.57-14.17,12.41-23.52,20.51C60.21,134.33,59.62,134.33,59.37,134.33Zm0-.5h0Z" fill="#e2e2e2"/></g><g id="7fc712cf-362c-45a8-9712-8c4e1513ed88" data-name="ba0835a4-7310-4aab-ba66-9cc3f1b53cf0"><rect x="15.99" y="136.4" width="36.13" height="0.5" transform="translate(-81.41 56.02) rotate(-41.08)" fill="#e2e2e2"/></g><g id="86710145-7635-4a0c-8ca6-0ae8a98f6c79" data-name="3e5a2677-e5c0-4d7b-9242-24111b2e66e8"><rect x="84.31" y="118.51" width="0.5" height="36.29" transform="translate(-74.11 111.18) rotate(-49.13)" fill="#e2e2e2"/></g><g id="1f666257-6ab8-4631-bb60-0ced20ba2172" data-name="72bcf780-4f82-425d-9dce-52a2947622c4"><path d="M80.69,108.37l0.58-.63-0.61-.61,0.38-.77-0.74-.41,0.16-.84-0.88-.21v-0.82H78.73l-0.38-.77-0.82.26-0.42-.69-0.72.47-0.67-.53-0.56.65-0.79-.34-0.36.77-0.86-.11-0.14.84-0.84.12,0.09,0.86-0.78.35,0.32,0.79-0.66.55L71.65,108l-0.48.71,0.68,0.51-0.27.81,0.79,0.31v0.86l0.86,0.09,0.15,0.84,0.84-.15,0.4,0.76,0.74-.36L76,113l0.65-.62,0.73,0.43,0.47-.72,0.82,0.29,0.26-.82h0.86v-0.86l0.82-.24-0.21-.83,0.73-.45Zm-0.72.16a3.85,3.85,0,1,1-3.1-4.47h0A3.85,3.85,0,0,1,80,108.54h0Zm-3.29-3.36a2.72,2.72,0,1,0,2.17,3.17v0a2.72,2.72,0,0,0-2.18-3.14h0Z" fill="#bb4d67"/></g><g id="695212e1-f634-42df-ae78-2c984e780a34" data-name="ad78030d-9af5-4ee8-9eb4-2e516b36e8da"><path d="M77.39,107.1a0.32,0.32,0,1,0-.45-0.45l-0.5.5-1.24-.35-0.45.3L76,107.7h0a7.72,7.72,0,0,0-.56.66l-0.55-.15-0.27.22,0.53,0.3a0.19,0.19,0,0,0,.17.2h0l0.3,0.53,0.21-.21-0.15-.55a7.82,7.82,0,0,0,.66-0.56l0.6,1.24,0.3-.45-0.35-1.24Z" fill="#fff"/></g><g id="aa328b0b-6025-40e3-9526-d71f76f2b564" data-name="1ff22f25-4179-465b-a3e6-01ff8b37ef3d"><path d="M83.52,106v-0.45h0a3.16,3.16,0,0,1-.19.34l-0.27.42H82.9l-0.29-.56q-0.11-.22-0.2-0.45h0v0.86L82.07,106l0.07-1,0.27,0.09,0.3,0.57a3.17,3.17,0,0,1,.17.38h0a2,2,0,0,1,.16-0.3l0.27-.42h0.26l0.14,1h-0.2V106Z" fill="#456ac9"/><path d="M84.32,106.23l-0.16.3H84l0.51-.93h0.25l0.58,1H85.08l-0.19-.32Zm0.52,0-0.17-.3-0.12-.25h0v0.17l-0.19.27Z" fill="#456ac9"/><path d="M85.71,105.63v1H85.54v-1h0.17Z" fill="#456ac9"/><path d="M86.07,105.63h0.21v0.89H87v0.11H86.07v-1Z" fill="#456ac9"/><path d="M87.63,106.13a0.25,0.25,0,0,1,.25-0.19,0.2,0.2,0,0,1,.25.12,0.25,0.25,0,0,1-.25.2,0.2,0.2,0,0,1-.25-0.13h0Z" fill="#456ac9"/><path d="M89.14,105.95L89,106.3H88.78l0.51-1.12h0.25l0.58,0.89H89.9l-0.19-.29Zm0.52-.21-0.15-.25-0.09-.16h0l-0.07.2-0.15.32Z" fill="#456ac9"/><path d="M90.52,105v1H90.31v-1h0.21Z" fill="#456ac9"/><path d="M90.88,104.89l0.4-.11a0.91,0.91,0,0,1,.46,0,0.17,0.17,0,0,1,.14.16,0.42,0.42,0,0,1-.29.34h0a0.24,0.24,0,0,1,.24.15,0.92,0.92,0,0,0,.14.25H91.75a0.74,0.74,0,0,1-.11-0.21c0-.12-0.14-0.16-0.32-0.12h-0.2v0.43H90.9Zm0.22,0.41h0.21a0.38,0.38,0,0,0,.35-0.29c0-.12-0.16-0.15-0.37-0.1h-0.2v0.37h0Z" fill="#456ac9"/><path d="M93.5,104.81v-0.43h0a1.27,1.27,0,0,1-.19.43l-0.26.56H92.89l-0.27-.42a2.69,2.69,0,0,1-.2-0.35h0v0.91h-0.2l0.07-1,0.26-.06,0.21,0.48a2.48,2.48,0,0,1,.17.3h0a3.64,3.64,0,0,1,.15-0.38l0.26-.56h0.26l0.14,1h-0.2Z" fill="#456ac9"/><path d="M94.29,104.76l-0.15.35H93.93L94.48,104h0.25l0.53,0.87H95l-0.19-.29Zm0.52-.21-0.16-.26-0.09-.16h0l-0.09.19-0.15.32Z" fill="#456ac9"/><path d="M95.72,103.8v1H95.51v-1h0.21Z" fill="#456ac9"/><path d="M96,103.74h0.21v0.89l0.72-.09v0.1l-0.89.1Z" fill="#456ac9"/><path d="M97.58,104.21a0.29,0.29,0,0,1,.51,0,0.21,0.21,0,0,1-.25.16A0.22,0.22,0,0,1,97.58,104.21Z" fill="#456ac9"/><path d="M99.11,104.31l-0.16.31H98.73l0.51-1h0.2l0.58,1.09H99.8l-0.19-.34Zm0.52,0-0.19-.36-0.09-.2h0l-0.07.17-0.15.27Z" fill="#456ac9"/><path d="M100.5,103.81v1h-0.21v-1h0.21Z" fill="#456ac9"/><path d="M100.86,103.91l0.4,0.09a1.24,1.24,0,0,1,.47.24,0.36,0.36,0,0,1,.14.24c0,0.14-.12.17-0.3,0.15h0a0.51,0.51,0,0,1,.25.29,1.84,1.84,0,0,0,.14.32l-0.21-.07a1.44,1.44,0,0,1-.11-0.26,0.45,0.45,0,0,0-.34-0.3h-0.2V105h-0.21Zm0.22,0.51h0.21c0.22,0.06.36,0,.36-0.07a0.45,0.45,0,0,0-.38-0.31h-0.21v0.37h0Z" fill="#456ac9"/><path d="M82.49,107.6l-0.16.26-0.26-.07,0.51-.82L82.82,107l0.6,1.14H83.2L83,107.82Zm0.53,0-0.17-.22-0.09-.21h0l-0.07.16-0.15.24Z" fill="#456ac9"/><path d="M83.88,107.26v1H83.67v-1h0.21Z" fill="#456ac9"/><path d="M84.25,107.38h0.4a1.13,1.13,0,0,1,.47.12,0.25,0.25,0,0,1,.14.2,0.27,0.27,0,0,1-.3.24h0a0.35,0.35,0,0,1,.25.22,1.24,1.24,0,0,0,.14.29H85.12a1.05,1.05,0,0,1-.11-0.25,0.34,0.34,0,0,0-.34-0.22h-0.2v0.43H84.26v-1Zm0.22,0.48h0.21c0.22,0,.36,0,0.36-0.16a0.34,0.34,0,0,0-.37-0.22H84.46v0.37h0Z" fill="#456ac9"/><path d="M86.89,107.95v-0.43h0a1.13,1.13,0,0,1-.19.4l-0.26.51h-0.2L86,107.95a3.5,3.5,0,0,1-.19-0.4h0v0.88H85.53l0.07-1.05h0.26l0.3,0.48a3.2,3.2,0,0,1,.17.34h0a3,3,0,0,1,.16-0.35l0.26-.47H87l0.12,1H87Z" fill="#456ac9"/><path d="M87.7,108l-0.15.34H87.34l0.51-1.07H88.1l0.58,0.92H88.46l-0.19-.27Zm0.57-.17-0.16-.27L88,107.38h0l-0.07.2-0.15.31Z" fill="#456ac9"/><path d="M89.07,107.08v1H88.85v-1h0.21Z" fill="#456ac9"/><path d="M89.43,107h0.21v0.89l0.68-.15v0.11l-0.81.16Z" fill="#456ac9"/><path d="M91,107.29a0.29,0.29,0,0,1,.24-0.21c0.14,0,.25,0,0.25.1a0.29,0.29,0,0,1-.24.22C91.09,107.38,91,107.38,91,107.29Z" fill="#456ac9"/><path d="M92.49,107l-0.15.4H92.12l0.5-1.14h0.25l0.58,0.88H93.24L93,106.85Zm0.52-.22-0.16-.25-0.09-.16h0l-0.07.2-0.15.34Z" fill="#456ac9"/><path d="M93.86,106v1H93.64v-1h0.21Z" fill="#456ac9"/><path d="M94.22,105.9l0.4-.1a0.88,0.88,0,0,1,.46,0,0.19,0.19,0,0,1,.14.17,0.38,0.38,0,0,1-.29.31h0a0.25,0.25,0,0,1,.24.16,1,1,0,0,0,.14.26H95.08a0.79,0.79,0,0,1-.11-0.22,0.24,0.24,0,0,0-.3-0.15H94.45v0.43H94.24Zm0.26,0.41h0.21A0.36,0.36,0,0,0,95,106c0-.12-0.16-0.16-0.37-0.11h-0.2v0.37h0Z" fill="#456ac9"/><path d="M96.85,106v-0.43h0a1.17,1.17,0,0,1-.19.41l-0.26.52H96.24l-0.32-.38a3,3,0,0,1-.2-0.41h0v0.88h-0.2l0.07-1h0.26L96.14,106a2.74,2.74,0,0,1,.17.32h0a3.17,3.17,0,0,1,.16-0.36l0.26-.52H97l0.14,1H97Z" fill="#456ac9"/><path d="M97.65,106.13l-0.15.32H97.28l0.51-1H98l0.58,1H98.4l-0.2-.36H97.65v0.06ZM98.2,106L98,105.69l-0.09-.19h0l-0.07.19-0.15.3H98.2Z" fill="#456ac9"/><path d="M99,105.4v1H98.86v-1H99Z" fill="#456ac9"/><path d="M99.44,105.44h0.21v0.89l0.69,0.1v0.11a8.85,8.85,0,0,0-.89-0.12v-1Z" fill="#456ac9"/><path d="M101,106.32c0-.09.11-0.12,0.25-0.09a0.34,0.34,0,0,1,.26.24c0,0.09-.1.12-0.25,0.09A0.34,0.34,0,0,1,101,106.32Z" fill="#456ac9"/><path d="M82.48,108.69v1l-0.21-.07v-1Z" fill="#456ac9"/><path d="M82.85,108.8h0.21v0.89l0.72,0.16V110a8.41,8.41,0,0,1-.89-0.11Z" fill="#456ac9"/><path d="M84.41,109.75c0-.09.11-0.14,0.25-0.12a0.26,0.26,0,0,1,.26.17c0,0.09-.1.15-0.25,0.14A0.26,0.26,0,0,1,84.41,109.75Z" fill="#456ac9"/><path d="M86,109.86l-0.16.37H85.58l0.51-1h0.25l0.58,1H86.7l-0.17-.35H86Zm0.52,0-0.17-.29-0.09-.19h0l-0.07.19-0.15.29h0.48Z" fill="#456ac9"/><path d="M87.33,109.14v1H87.12v-1h0.21Z" fill="#456ac9"/><path d="M87.69,109.11l0.4-.07a1,1,0,0,1,.46,0,0.19,0.19,0,0,1,.14.17,0.37,0.37,0,0,1-.29.31h0a0.26,0.26,0,0,1,.24.16,1,1,0,0,0,.14.26H88.56a0.82,0.82,0,0,1-.11-0.22,0.26,0.26,0,0,0-.32-0.15h-0.2V110H87.71Zm0.22,0.43h0.21a0.34,0.34,0,0,0,.35-0.25c0-.12-0.16-0.16-0.37-0.14H87.9v0.37h0Z" fill="#456ac9"/><path d="M90.32,109.2v-0.43h0a1.13,1.13,0,0,1-.19.42l-0.26.55H89.71l-0.27-.42a2.85,2.85,0,0,1-.2-0.36h0v0.89H89l0.07-1h0.26l0.29,0.43a2.57,2.57,0,0,1,.17.31h0a3.56,3.56,0,0,1,.15-0.37l0.2-.57h0.26l0.14,1h-0.2Z" fill="#456ac9"/><path d="M91.11,109.14L91,109.5H90.75l0.5-1.14H91.5l0.58,0.88H91.86L91.67,109Zm0.52-.22-0.17-.3-0.09-.12h0l-0.07.2-0.15.34Z" fill="#456ac9"/><path d="M92.48,108.11v1H92.27v-1h0.21Z" fill="#456ac9"/><path d="M92.84,108H93v0.89l0.68-.16v0.11l-0.88.21V108Z" fill="#456ac9"/><path d="M94.38,108.28a0.27,0.27,0,0,1,.25-0.21c0.14,0,.25,0,0.25.1a0.26,0.26,0,0,1-.24.21C94.48,108.42,94.39,108.37,94.38,108.28Z" fill="#456ac9"/><path d="M95.9,108.07l-0.19.35H95.51l0.53-1h0.25l0.58,0.94H96.65L96.46,108Zm0.52-.17-0.16-.27-0.09-.17h0l-0.07.2L96,108Z" fill="#456ac9"/><path d="M97.27,107.21v1H97.11v-1h0.16Z" fill="#456ac9"/><path d="M97.64,107.2H98a0.91,0.91,0,0,1,.47.09,0.24,0.24,0,0,1,.14.2,0.3,0.3,0,0,1-.3.25h0a0.32,0.32,0,0,1,.25.21,1.24,1.24,0,0,0,.14.29H98.5a1,1,0,0,1-.11-0.24,0.3,0.3,0,0,0-.32-0.2h-0.2v0.43H97.68Zm0.22,0.45h0.21c0.22,0,.36-0.07.36-0.2s-0.16-.19-0.37-0.19H97.84v0.37h0Z" fill="#456ac9"/><path d="M100.3,107.91v-0.43h0a3.72,3.72,0,0,1-.19.35l-0.26.45H99.69l-0.27-.51a4,4,0,0,1-.26-0.38h0v0.88H98.91l0.07-1h0.26l0.3,0.51a3.61,3.61,0,0,1,.17.36h0a2.3,2.3,0,0,1,.16-0.32l0.27-.42h0.26l0.14,1h-0.2Z" fill="#456ac9"/><path d="M101.1,108.21l-0.16.27h-0.21l0.51-.87,0.25,0.07,0.6,1.24-0.16-.17-0.19-.37Zm0.53,0-0.17-.34-0.09-.21h0l-0.07.16-0.15.25Z" fill="#456ac9"/></g></g><path d="M97.3,97.75H21.42A1.24,1.24,0,0,0,20.18,99v49.18a1.24,1.24,0,0,0,1.24,1.24H97.3a1.24,1.24,0,0,0,1.24-1.24V99A1.24,1.24,0,0,0,97.3,97.75ZM98,148.18a0.74,0.74,0,0,1-.74.74H21.42a0.74,0.74,0,0,1-.74-0.74V99a0.74,0.74,0,0,1,.74-0.74H97.3A0.74,0.74,0,0,1,98,99v49.2Z" fill="#333"/><g id="1610987f-3d68-4593-a8a1-e350a978d6da" data-name="46d64780-a661-478a-9be2-f5768061cffb"><polygon points="77.22 150.13 81.11 150.13 81.11 153.16 79.16 152.06 77.22 153.16 77.22 150.13" fill="#bb4d67"/><path d="M80.68,150.54v1.95l-1.53-.86-1.53.86v-1.9h3.05m0.83-.83H76.8v4.16l1.24-.69,1.12-.63,1.12,0.63,1.24,0.69v-4.16h0Z" fill="#333"/></g><g id="0502ed55-64ea-45ae-a02e-6929c0181238" data-name="94f8f98f-37fa-44c0-ba17-c1c0c29856dc"><path d="M119.92,68h-48v82.55h48a4.58,4.58,0,0,0,5-5V73.06A4.89,4.89,0,0,0,120.24,68h-0.32Z" fill="#616263"/><path d="M119.92,151H71.52V67.57h48.4a5.32,5.32,0,0,1,5.45,5.2q0,0.14,0,.29v72.49A5,5,0,0,1,119.92,151Zm-47.62-.83h47.62a4.16,4.16,0,0,0,4.62-4.62V73.06a4.46,4.46,0,0,0-4.29-4.62H72.31v81.69Z" fill="#333"/></g><g id="b3418558-2fc9-45ad-bd82-30f3048d92f1" data-name="9d4bbecf-de90-4546-8499-f79bf9fad799"><rect x="71.47" y="102.93" width="54.06" height="28.63" fill="#3fa9f5"/><path d="M126,132H71.05V102.51H126V132Zm-54.06-.83h53.23V103.35H71.9v27.8h0Z" fill="#333"/></g><g id="6f8c45dc-b911-4cd2-b301-fa31b1390d3e" data-name="34b7bce5-652e-448e-9ac1-3d7e8a1b37d2"><path d="M115.72,151.17a1.24,1.24,0,0,1-.37-0.21h0.2V67.57h-0.36a3,3,0,0,1,.58-0.57h2.33a0.17,0.17,0,0,1,.17.17V151a0.17,0.17,0,0,1-.17.17h-2.38Z" fill="#333"/><path d="M117.84,67.41v83.34H116V67.41h1.89m0.25-.83h-2.38A4.49,4.49,0,0,0,114.3,68h0.82v82.55H114.3a2.83,2.83,0,0,0,1.41,1h2.37a0.6,0.6,0,0,0,.6-0.6h0V67.18a0.6,0.6,0,0,0-.6-0.6h0Z" fill="#111"/></g><path d="M98.3,116.64v-1.33l-1.15.66A1.35,1.35,0,0,0,98.3,116.64Z" fill="#006289"/><path d="M106,110.66H98.33v1.42h4.72a0.41,0.41,0,0,1,.24.08,0.41,0.41,0,0,1,.12.15l0.31-.18,1.21-.7,0.53-.31h0l0.55-.32,0.05-.09Z" fill="#006289"/><path d="M99.48,116l-1.16-.67h0v1.33h0A1.35,1.35,0,0,0,99.48,116Z" fill="#9c9b9b"/><path d="M93.34,112.4a0.41,0.41,0,0,1,.06-0.13h0a0.41,0.41,0,0,1,.33-0.17h4.58v-1.42H92.25A0.41,0.41,0,0,1,91.9,110h0l0.92-1.59h5.51v-0.83H92.59a0.41,0.41,0,0,0-.33.17l0,0h0l-1.52,2.56a0.41,0.41,0,0,0-.08.29v0.05l0.11,0.19" fill="#9c9b9b"/><path d="M98.3,115.31v0l-1.16-.67a1.35,1.35,0,0,0,0,1.36Z" fill="#009ee2"/><path d="M106.89,113.57l-2.88,5,0.73,0.42,3-5.19a0.41,0.41,0,0,0,0-.32h0l0-.08-0.07-.12-1.37-2.42a0.4,0.4,0,0,0-.11-0.13l-0.1.06-0.55.32h0l-0.53.31-1.21.7-0.31.18a0.41,0.41,0,0,1,0,.32,0.42,0.42,0,0,1-.06.11l0,0L101,116.83l1.16,0.67s3.17-5.52,3.2-5.53a0.41,0.41,0,0,1,.52,0s1,1.62,1,1.62" fill="#009ee2"/><path d="M97.13,114.62l1.16,0.67v-1.36A1.35,1.35,0,0,0,97.13,114.62Z" fill="#81cff4"/><path d="M101,116.83l-2.3,4,0,0a0.41,0.41,0,0,1-.37.16V124l3.84-6.54Z" fill="#81cff4"/><path d="M98.32,115.3l1.18-.68a1.35,1.35,0,0,0-1.18-.69h0v1.36h0Z" fill="#fff"/><path d="M98.06,120.84s-2.35-4.07-2.35-4.07l-1.17.68,3,5.2h0a0.41,0.41,0,0,1-.36.62H95.38l-2.73-4.74-0.73.42,2.8,4.87L94.81,124,94.88,124a0.41,0.41,0,0,0,.24.08h3a0.4,0.4,0,0,0,.2-0.05V121a0.41,0.41,0,0,1-.23-0.09Z" fill="#fff"/><path d="M99.48,116a1.36,1.36,0,0,0,0-1.35l-1.18.68Z" fill="#d9d9d9"/><path d="M93.68,113.26L93.54,113l-0.06-.1-0.12-.2h0v0a0.41,0.41,0,0,1,0-.28l-2.58-1.49,0.32,0.55L91.39,112l0.08,0.14,0.34,0.58,0,0.08,2.68,4.64,1.17-.68-2-3.5h0Z" fill="#d9d9d9"/><path d="M55.81,47.49V46.17l-1.15.66A1.35,1.35,0,0,0,55.81,47.49Z" fill="#006289"/><path d="M63.52,41.52H55.84v1.42h4.72a0.41,0.41,0,0,1,.24.08,0.41,0.41,0,0,1,.12.15L61.24,43l1.21-.7L63,42h0l0.55-.32,0.05-.09Z" fill="#006289"/><path d="M57,46.83l-1.16-.67h0v1.33h0A1.35,1.35,0,0,0,57,46.83Z" fill="#9c9b9b"/><path d="M50.86,43.26a0.41,0.41,0,0,1,.06-0.13h0a0.41,0.41,0,0,1,.33-0.17h4.58V41.52H49.77a0.41,0.41,0,0,1-.35-0.63h0l0.92-1.59h5.51V38.47H50.1a0.41,0.41,0,0,0-.33.17l0,0h0l-1.52,2.56a0.41,0.41,0,0,0-.08.29v0.05l0.11,0.19" fill="#9c9b9b"/><path d="M55.81,46.17v0l-1.16-.67a1.35,1.35,0,0,0,0,1.36Z" fill="#009ee2"/><path d="M64.4,44.43l-2.88,5,0.73,0.42,3-5.19a0.41,0.41,0,0,0,0-.32h0l0-.08-0.07-.12-1.37-2.42a0.4,0.4,0,0,0-.11-0.13l-0.1.06L63,42h0l-0.53.31-1.21.7-0.31.18a0.41,0.41,0,0,1,0,.32,0.42,0.42,0,0,1-.06.11l0,0-2.34,4.06,1.16,0.67s3.17-5.52,3.2-5.53a0.41,0.41,0,0,1,.52,0s1,1.62,1,1.62" fill="#009ee2"/><path d="M54.65,45.48l1.16,0.67V44.79A1.35,1.35,0,0,0,54.65,45.48Z" fill="#81cff4"/><path d="M58.53,47.69l-2.3,4,0,0a0.41,0.41,0,0,1-.37.16V54.9l3.84-6.54Z" fill="#81cff4"/><path d="M55.83,46.16L57,45.48a1.35,1.35,0,0,0-1.18-.69h0v1.36h0Z" fill="#fff"/><path d="M55.57,51.7s-2.35-4.07-2.35-4.07L52,48.3l3,5.2h0a0.41,0.41,0,0,1-.36.62H52.9l-2.73-4.74-0.73.42,2.8,4.87,0.08,0.14,0.07,0.06a0.41,0.41,0,0,0,.24.08h3a0.4,0.4,0,0,0,.2-0.05V51.84a0.41,0.41,0,0,1-.23-0.09Z" fill="#fff"/><path d="M57,46.83a1.36,1.36,0,0,0,0-1.35l-1.18.68Z" fill="#d9d9d9"/><path d="M51.2,44.12l-0.14-.25L51,43.77l-0.12-.2h0v0a0.41,0.41,0,0,1,0-.28l-2.58-1.49,0.32,0.55,0.32,0.55L49,43l0.34,0.58,0,0.08L52,48.3l1.17-.68-2-3.5h0Z" fill="#d9d9d9"/></svg>