<svg id="3291cf8b-579d-40eb-9c9e-200b0131f2c6" data-name="3ffdb2a9-76f4-4b9f-9ecf-c0968bc9f97c" xmlns="http://www.w3.org/2000/svg" xmlns:xlink="http://www.w3.org/1999/xlink" width="200" height="200" viewBox="0 0 200 200"><defs><clipPath id="3273396b-6194-42fc-889a-10a7429ec9d4" transform="translate(0 0.42)"><rect id="e4a1c7bc-8f09-4686-be84-001120dc3bd1" data-name="&lt;Trazado de recorte&gt;" x="167.08" y="24.42" width="28" height="28" rx="4.86" ry="4.86" fill="#25a1c3"/></clipPath></defs><title>skill-5</title><circle cx="100" cy="100" r="100" fill="#1c1c1c"/><g id="45fa4bff-3fb2-41e4-81f0-48a30a513d05" data-name="2cf0f1c0-e79a-481a-874a-12ed84b120ce"><g id="5e2a7429-69a3-4444-8d93-c6cac72aeaf9" data-name="2a6eeb2f-311c-44e6-b80d-40cbc90e8852"><rect x="63.91" y="27.07" width="72.2" height="147.26" rx="12.43" ry="12.43" fill="#e2e2e2"/><path d="M123.66,27.39c7.29,0,11.7,4.41,11.7,11.7V161.48c0,7.24-4.41,11.7-11.7,11.7H76.34c-7.29,0-11.7-4.44-11.7-11.7V39.09c0-7.29,4.41-11.7,11.7-11.7h47.31m0-1.49H76.34c-8.14,0-13.19,5-13.19,13.19V161.48a12.31,12.31,0,0,0,13.19,13.19h47.31a12.31,12.31,0,0,0,13.19-13.19V39.09c0-8.13-5-13.19-13.19-13.19h0Z" transform="translate(0 0.42)" fill="#333"/></g><g id="4ca91b0a-988d-4c3d-9844-b850ab975f36" data-name="2e6d7c9c-cd7c-44e0-a605-0f010120aee8"><path d="M122.17,28.88H77.85c-7.29,0-11.7,4.41-11.7,11.7V160c0,7.24,4.41,11.7,11.7,11.7h44.32c7.29,0,11.7-4.44,11.7-11.7V40.58C133.86,33.29,129.46,28.88,122.17,28.88Z" transform="translate(0 0.42)" fill="#f4f4f4"/></g><path id="c02126f7-4838-4c2f-bdbb-4531096531a7" data-name="b1284889-7147-46e4-9b46-f513242fa6f1" d="M98.9,158.67a5.7,5.7,0,1,0,5.7,5.7h0A5.71,5.71,0,0,0,98.9,158.67Zm0,10.85a5.15,5.15,0,1,1,5.13-5.16s0,0,0,0a5.15,5.15,0,0,1-5.13,5.1v0Z" transform="translate(0 0.42)" fill="#d6d6d6"/><path id="b87869b6-e314-4021-bb56-1ce45c71e990" data-name="242c4602-c821-4cd5-bc6b-5a105b3f2454" d="M94.86,36.66h9.94a0.62,0.62,0,0,1,0,1.23H94.86A0.62,0.62,0,0,1,94.86,36.66Z" transform="translate(0 0.42)" fill="#333"/><path id="e74e725d-5dfd-45e9-8b67-5a4f237c444f" data-name="16cc9425-1ab9-401a-ab87-195a64eca02b" d="M88.42,36.51a1.12,1.12,0,1,1-1.12,1.12h0A1.12,1.12,0,0,1,88.42,36.51Z" transform="translate(0 0.42)" fill="#333"/><rect id="f27353e1-b478-496f-a156-d00d5f722627" data-name="a5b3e5c1-37b5-40d0-aab3-229f47221d0d" x="68.7" y="45.76" width="62.6" height="110.81" fill="#3b5998"/><path id="cbc7699c-8453-4f36-a7c4-1acc174cf16b" data-name="d329c571-c0f9-42d7-8d9e-a3b159a372b4" d="M87.51,27.39L64.63,50.25V61L98.22,27.39H87.51Zm36.15,0h-23.1L64.63,63.3v36.79l68.53-68.5C131.12,28.89,127.9,27.39,123.66,27.39Z" transform="translate(0 0.42)" fill="#fff" opacity="0.1" style="isolation:isolate"/></g><path d="M103.89,104.44h12.57a84.35,84.35,0,0,0,1.23-13.33H107.13V84.2a1.67,1.67,0,0,1,1.52-1.8h0a16.18,16.18,0,0,1,3.5-.42c1.45-.12-1.67.22,3.33,0.22V70.62h-7.82a34.55,34.55,0,0,0-5.25.62,10.53,10.53,0,0,0-7.55,5.08,18,18,0,0,0-3.33,8.2c-0.12,2.48-1.13,5-1.13,7.48V91.1H83.74v13.33h6.67v35h13.33v-35h0.15Z" transform="translate(0 0.42)" fill="#fff"/><path d="M36.08,154.08a4.66,4.66,0,0,0-4.66-4.66H12.74a4.66,4.66,0,0,0-4.66,4.66v18.68a4.66,4.66,0,0,0,4.66,4.66H31.41a4.66,4.66,0,0,0,4.66-4.66V154.08Z" transform="translate(0 0.42)" fill="#42c6f3"/><path d="M32.5,156.38A8.55,8.55,0,0,1,30,157a4.29,4.29,0,0,0,1.88-2.37,8.55,8.55,0,0,1-2.72,1,4.28,4.28,0,0,0-7.29,3.9,12.14,12.14,0,0,1-8.82-4.47,4.29,4.29,0,0,0,1.32,5.71,4.27,4.27,0,0,1-1.94-.54v0.05a4.28,4.28,0,0,0,3.43,4.2,4.3,4.3,0,0,1-1.13.15,4.25,4.25,0,0,1-.81-0.08,4.28,4.28,0,0,0,4,3,8.58,8.58,0,0,1-5.31,1.83,8.83,8.83,0,0,1-1-.06,12.17,12.17,0,0,0,18.73-10.25c0-.18,0-0.37,0-0.55A8.72,8.72,0,0,0,32.5,156.38Z" transform="translate(0 0.42)" fill="#fff"/><path d="M166.08,87.08a4.66,4.66,0,0,0-4.66-4.66H142.74a4.66,4.66,0,0,0-4.66,4.66v18.68a4.66,4.66,0,0,0,4.66,4.66h18.68a4.66,4.66,0,0,0,4.66-4.66V87.08Z" transform="translate(0 0.42)" fill="#e43546"/><path d="M152.42,86.8a9.57,9.57,0,0,0-3.84,18.33,8.41,8.41,0,0,1,.17-2.2L150,97.71a3.66,3.66,0,0,1-.31-1.51c0-1.42.82-2.48,1.85-2.48a1.28,1.28,0,0,1,1.29,1.44,20.63,20.63,0,0,1-.85,3.39,1.48,1.48,0,0,0,1.51,1.84c1.81,0,3-2.33,3-5.09,0-2.1-1.41-3.67-4-3.67a4.53,4.53,0,0,0-4.71,4.58,2.76,2.76,0,0,0,.63,1.88,0.46,0.46,0,0,1,.14.53l-0.19.77a0.33,0.33,0,0,1-.48.24c-1.34-.55-2-2-2-3.65,0-2.72,2.29-6,6.84-6,3.65,0,6.06,2.64,6.06,5.48,0,3.75-2.09,6.56-5.16,6.56a2.74,2.74,0,0,1-2.34-1.19s-0.56,2.2-.67,2.63a8,8,0,0,1-1,2A9.57,9.57,0,1,0,152.42,86.8Z" transform="translate(0 0.42)" fill="#fff"/><rect id="c0658540-ba0d-4375-9c09-7389481c0860" data-name="&lt;Trazado de recorte&gt;" x="167.08" y="24.83" width="28" height="28" rx="4.86" ry="4.86" fill="#25a1c3"/><g clip-path="url(#3273396b-6194-42fc-889a-10a7429ec9d4)"><path d="M174,28.59h13.25a2.29,2.29,0,0,1,2.29,2.29V44.12a2.29,2.29,0,0,1-2.29,2.29H174a2.29,2.29,0,0,1-2.29-2.29V30.88A2.29,2.29,0,0,1,174,28.59Zm10.7,2a0.81,0.81,0,0,0-.8.8v1.92a0.8,0.8,0,0,0,.8.8h2a0.81,0.81,0,0,0,.8-0.8V31.37a0.81,0.81,0,0,0-.8-0.8h-2Zm2.82,5.56h-1.57a5.22,5.22,0,0,1,.23,1.53,5.54,5.54,0,0,1-11.08,0,5.24,5.24,0,0,1,.23-1.53h-1.64v7.53a0.71,0.71,0,0,0,.71.71h12.41a0.71,0.71,0,0,0,.71-0.71V36.13ZM180.63,34a3.47,3.47,0,1,0,3.58,3.47A3.52,3.52,0,0,0,180.63,34Z" transform="translate(0 0.42)" fill="#fff"/></g><path d="M37.08,29.6c0-2.64-2.77-5.18-5.38-5.18H12.82c-2.6,0-4.75,2.54-4.75,5.18V48.33c0,2.64,2.15,4.09,4.75,4.09H31.7c2.6,0,5.38-1.45,5.38-4.09V29.6Z" transform="translate(0 0.42)" fill="#d62038"/><path d="M22.28,31a3.15,3.15,0,0,1,.5.4,4.26,4.26,0,0,1,.52.68,4.52,4.52,0,0,1,.43.9,4.23,4.23,0,0,1,.15,1.21,3.54,3.54,0,0,1-.56,2,6.22,6.22,0,0,1-.56.68l-0.69.63a3.2,3.2,0,0,0-.39.49,1.1,1.1,0,0,0-.21.67,0.88,0.88,0,0,0,.22.61,4.73,4.73,0,0,0,.36.4l0.8,0.66a8.07,8.07,0,0,1,1.31,1.34,3.43,3.43,0,0,1,.55,2,4,4,0,0,1-1.51,3,6.86,6.86,0,0,1-4.53,1.41A5.72,5.72,0,0,1,15,47a2.86,2.86,0,0,1-1.23-2.31,3.31,3.31,0,0,1,.4-1.46,3.46,3.46,0,0,1,1.41-1.41A7.34,7.34,0,0,1,17.95,41,18.18,18.18,0,0,1,20,40.78a5,5,0,0,1-.45-0.72,1.63,1.63,0,0,1-.23-0.89,1.35,1.35,0,0,1,.09-0.52l0.14-.4a6.74,6.74,0,0,1-.76,0,3.62,3.62,0,0,1-2.87-1.18,3.53,3.53,0,0,1-1-2.52,4.3,4.3,0,0,1,1.46-3.15,5.15,5.15,0,0,1,2.09-1.08,10.12,10.12,0,0,1,2-.22h4.72L23.73,31H22.28Zm0.91,13.57A2.29,2.29,0,0,0,22.6,43a14.33,14.33,0,0,0-1.94-1.55l-0.53,0a6.17,6.17,0,0,0-.92,0,10.09,10.09,0,0,0-1.5.33L17.21,42a3.14,3.14,0,0,0-.66.43,2.47,2.47,0,0,0-.55.71,2.12,2.12,0,0,0-.26,1.08,2.43,2.43,0,0,0,1.13,2,4.87,4.87,0,0,0,2.93.83,4,4,0,0,0,2.54-.74A2.23,2.23,0,0,0,23.19,44.56ZM19.9,37.65A2.21,2.21,0,0,0,21.45,37a2.42,2.42,0,0,0,.38-0.92,7.66,7.66,0,0,0,.05-0.8,6.22,6.22,0,0,0-.71-2.81,3.15,3.15,0,0,0-.88-1.11A2.27,2.27,0,0,0,19,30.92a2.08,2.08,0,0,0-1.59.77,2.9,2.9,0,0,0-.51,1.75,5.59,5.59,0,0,0,.75,2.66,3.65,3.65,0,0,0,.94,1.09A2.06,2.06,0,0,0,19.9,37.65Z" transform="translate(0 0.42)" fill="#fff"/><polygon points="31.58 33.13 29.1 33.13 29.1 30.65 27.9 30.65 27.9 33.13 25.43 33.13 25.43 34.33 27.9 34.33 27.9 36.8 29.1 36.8 29.1 34.33 31.58 34.33 31.58 33.13" fill="#fff"/><path d="M60.08,87.08a4.66,4.66,0,0,0-4.66-4.66H36.74a4.66,4.66,0,0,0-4.66,4.66v18.68a4.66,4.66,0,0,0,4.66,4.66H55.41a4.66,4.66,0,0,0,4.66-4.66V87.08Z" transform="translate(0 0.42)" fill="#e43546"/><path d="M43.78,86.85H42.62l-0.79,3-0.82-3H39.8L40.54,89a18.94,18.94,0,0,1,.7,2.43v3.11H42.4V91.42Zm3.08,5.83v-2a2.25,2.25,0,0,0-.32-1.35,1.54,1.54,0,0,0-2.42,0,2.23,2.23,0,0,0-.33,1.35v2A2.22,2.22,0,0,0,44.12,94a1.54,1.54,0,0,0,2.42,0A2.25,2.25,0,0,0,46.86,92.68Zm-1,.2c0,0.53-.16.8-0.49,0.8s-0.5-.27-0.5-0.8V90.46c0-.53.16-0.79,0.5-0.79s0.49,0.26.49,0.79v2.41Zm4.88,1.66V88.8h-1v4.38a0.91,0.91,0,0,1-.66.49,0.24,0.24,0,0,1-.24-0.24,2.24,2.24,0,0,1,0-.4V88.8h-1v4.53a2.87,2.87,0,0,0,.09.85,0.64,0.64,0,0,0,.67.43,1.67,1.67,0,0,0,1.19-.7v0.63h1Z" transform="translate(0 0.42)" fill="#fff"/><path d="M54.07,101.49a18.15,18.15,0,0,1-.3,4,2.15,2.15,0,0,1-1.84,1.67,57.21,57.21,0,0,1-6.37.24,57.19,57.19,0,0,1-6.37-.24,2.15,2.15,0,0,1-1.84-1.67,18.26,18.26,0,0,1-.3-4,18.21,18.21,0,0,1,.3-4A2.15,2.15,0,0,1,39.2,95.8a57.12,57.12,0,0,1,6.37-.24,57.14,57.14,0,0,1,6.37.24,2.14,2.14,0,0,1,1.84,1.67A18.23,18.23,0,0,1,54.07,101.49Z" transform="translate(0 0.42)" fill="#fff"/><path d="M41.91,98.63V97.56H38.33v1.07h1.21v6.54h1.14V98.63h1.23ZM44,105.17v-0.62a1.65,1.65,0,0,1-1.17.7,0.63,0.63,0,0,1-.66-0.42,2.88,2.88,0,0,1-.09-0.84V99.5h1v4.18a3.3,3.3,0,0,0,0,.4,0.24,0.24,0,0,0,.24.24,0.9,0.9,0,0,0,.65-0.48V99.5h1v5.67H44Zm3.91-1.62c0,0.51-.15.76-0.45,0.76a0.73,0.73,0,0,1-.51-0.25V100.6a0.74,0.74,0,0,1,.51-0.25c0.3,0,.45.26,0.45,0.77v2.42Zm1-.08v-2.26a4.4,4.4,0,0,0-.1-1.14A0.81,0.81,0,0,0,48,99.43a1.39,1.39,0,0,0-1.06.61V97.56h-1v7.61h1v-0.55a1.4,1.4,0,0,0,1.06.63,0.81,0.81,0,0,0,.82-0.64A4.54,4.54,0,0,0,48.92,103.47Zm2.85-1.8h-1v-0.52q0-.79.52-0.79c0.34,0,.51.26,0.51,0.79v0.52Zm1,1.69V103.2h-1a6.73,6.73,0,0,1,0,.7,0.44,0.44,0,0,1-.46.41c-0.35,0-.52-0.26-0.52-0.79v-1H52.8v-1.17a2.23,2.23,0,0,0-.32-1.34,1.43,1.43,0,0,0-1.21-.58A1.46,1.46,0,0,0,50,100a2.21,2.21,0,0,0-.32,1.34v2a2.19,2.19,0,0,0,.33,1.33,1.47,1.47,0,0,0,1.24.58,1.42,1.42,0,0,0,1.24-.61,1.47,1.47,0,0,0,.24-0.62C52.79,103.91,52.8,103.68,52.8,103.35Z" transform="translate(0 0.42)" fill="#cc342c"/><rect x="167.08" y="149.83" width="28" height="28" rx="4.66" ry="4.66" fill="#1b4684"/><path d="M172,158.42h4v12.91h-4V158.42Zm2-6.42a2.33,2.33,0,1,1-2.33,2.33A2.33,2.33,0,0,1,174,152" transform="translate(0 0.42)" fill="#fff"/><path d="M178.51,158.42h3.85v1.76h0.05a4.22,4.22,0,0,1,3.8-2.09c4.06,0,4.81,2.67,4.81,6.15v7.08h-4v-6.28c0-1.5,0-3.42-2.09-3.42s-2.41,1.63-2.41,3.31v6.39h-4V158.42Z" transform="translate(0 0.42)" fill="#fff"/></svg>