<svg id="0c0de67c-edc3-4c4b-904a-bc8eb6714efb" data-name="Capa 1" xmlns="http://www.w3.org/2000/svg" width="200" height="200" viewBox="0 0 200 200"><title>skill-1</title><circle cx="100" cy="100" r="100" fill="#1c1c1c"/><g id="02d33802-048b-4022-9233-9ce174aa4bfb" data-name="screen"><path d="M82,144.79l-4.9,20h45.7l-4.9-20H82Z" transform="translate(0 0)" fill="#afaeb4" stroke="#333" stroke-miterlimit="10"/><path d="M99.73,164.81h23.12l-4.9-20H99.73v20Z" transform="translate(0 0)" fill="#c2c3ca"/><path d="M125.67,164.46H74.33A2.59,2.59,0,0,0,72,167.23v1H128v-1A2.59,2.59,0,0,0,125.67,164.46Z" transform="translate(0 0)" fill="#fff" stroke="#333" stroke-miterlimit="10"/><path d="M22.79,137v11a3.84,3.84,0,0,0,3.85,3.84H173.36a3.84,3.84,0,0,0,3.85-3.84V137H22.79Z" transform="translate(0 0)" fill="#fff" stroke="#333" stroke-miterlimit="10"/><path d="M177.21,137V43.59a3.84,3.84,0,0,0-3.85-3.84H26.64a3.84,3.84,0,0,0-3.85,3.84V137H177.21Z" transform="translate(0 0)" fill="#333"/><rect x="29.12" y="45.75" width="141.77" height="84.87" fill="#666"/></g><path d="M97.32,82.3V78.57l-3.23,1.86A3.8,3.8,0,0,0,97.32,82.3Z" transform="translate(0 0)" fill="#006289"/><path d="M119,65.51H97.41v4l11.43,0h1.76v0h0.08a1.16,1.16,0,0,1,.69.23,1.14,1.14,0,0,1,.35.41l0.87-.51,3.41-2,1.5-.87,0.07,0,1.56-.9,0.15-.25A1.09,1.09,0,0,0,119,65.51Z" transform="translate(0 0)" fill="#006289"/><path d="M100.64,80.43l-3.27-1.89-0.05,0V82.3h0A3.8,3.8,0,0,0,100.64,80.43Z" transform="translate(0 0)" fill="#9c9b9b"/><path d="M83.39,70.38A1.16,1.16,0,0,1,83.58,70l0,0a1.16,1.16,0,0,1,.94-0.48H97.41v-4H80.33a1.16,1.16,0,0,1-1-1.77h0l2.59-4.48h15.5V56.92H81.28a1.16,1.16,0,0,0-.94.48l-0.05.08h0s-4.24,7.15-4.28,7.2a1.14,1.14,0,0,0-.22.83,1,1,0,0,0,0,.15l0.31,0.53" transform="translate(0 0)" fill="#9c9b9b"/><path d="M97.32,78.57V78.51l-3.27-1.89a3.8,3.8,0,0,0,0,3.81Z" transform="translate(0 0)" fill="#009ee2"/><path d="M121.47,73.67l-8.09,14,2.06,1.19,8.34-14.59a1.15,1.15,0,0,0,.14-0.9h0l-0.12-.21-0.19-.33-3.86-6.8a1.12,1.12,0,0,0-.32-0.35l-0.28.16-1.56.9-0.07,0-1.5.87-3.41,2-0.87.51a1.16,1.16,0,0,1,.06.9,1.19,1.19,0,0,1-.16.31l-0.06.08L105,82.84l3.27,1.89s8.92-15.5,9-15.56a1.16,1.16,0,0,1,1.46-.07c0.14,0.1,2.77,4.57,2.77,4.57" transform="translate(0 0)" fill="#009ee2"/><path d="M94.05,76.62l3.27,1.89V74.69A3.8,3.8,0,0,0,94.05,76.62Z" transform="translate(0 0)" fill="#81cff4"/><path d="M105,82.84L98.53,94l-0.08.1a1.15,1.15,0,0,1-1,.45v8.55l0,0.06,10.8-18.38Z" transform="translate(0 0)" fill="#81cff4"/><path d="M97.37,78.54l3.31-1.91a3.8,3.8,0,0,0-3.32-1.94h0v3.82Z" transform="translate(0 0)" fill="#fff"/><path d="M96.65,94.11C96.57,94,90,82.67,90,82.67l-3.3,1.9,8.44,14.62,0,0a1.16,1.16,0,0,1-1,1.74h-5L81.46,87.62l-2,1.18,7.88,13.69,0.22,0.39a1.2,1.2,0,0,0,.19.18,1.16,1.16,0,0,0,.69.22h8.44a1.14,1.14,0,0,0,.57-0.15V94.51a1.15,1.15,0,0,1-.64-0.27Z" transform="translate(0 0)" fill="#fff"/><path d="M100.64,80.43a3.81,3.81,0,0,0,0-3.8l-3.31,1.91Z" transform="translate(0 0)" fill="#d9d9d9"/><path d="M84.35,72.81l-0.4-.7-0.16-.28-0.33-.56h0l0-.09a1.15,1.15,0,0,1,0-.8s-7.22-4.15-7.26-4.19L77,67.73l0.9,1.55,0.22,0.39,0.95,1.64,0.13,0.22,7.53,13,3.3-1.9-5.68-9.84h0Z" transform="translate(0 0)" fill="#d9d9d9"/><g opacity="0.79"><path d="M52.81,117.89a1.91,1.91,0,0,0,1.9,1.92,1.86,1.86,0,0,0,1.9-1.81c0-1.34-1.15-1.63-2.25-2-0.77-.23-2.43-0.72-2.43-2.52a2.64,2.64,0,0,1,2.83-2.62,2.57,2.57,0,0,1,2.7,2.46H56.41a1.71,1.71,0,0,0-3.42.08c0,1.16.93,1.44,2.37,1.93,0.9,0.35,2.32.85,2.32,2.6a2.76,2.76,0,0,1-2.94,2.78,2.8,2.8,0,0,1-3-2.81h1.07Z" transform="translate(0 0)" fill="#fff"/><path d="M59.1,111h5.28V112H60.16v3.3h4.19v0.94H60.16v3.4h4.22v0.94H59.1V111h0Z" transform="translate(0 0)" fill="#fff"/><path d="M66.06,111h2.5a3.21,3.21,0,0,1,1.88.45,2.18,2.18,0,0,1,1,2,2.14,2.14,0,0,1-1.27,2A2.44,2.44,0,0,1,72,117.89a2.41,2.41,0,0,1-1.3,2.22,3.53,3.53,0,0,1-2,.42H66.06V111Zm1.05,4.12h1.44a2.64,2.64,0,0,0,1.11-.19,1.46,1.46,0,0,0,.77-1.42,1.44,1.44,0,0,0-.77-1.35,2.58,2.58,0,0,0-1.18-.21H67.12v3.17Zm0,4.46h1.72a3.16,3.16,0,0,0,1.16-.18,1.62,1.62,0,0,0,1-1.58,1.69,1.69,0,0,0-1-1.61,3,3,0,0,0-1.34-.19H67.12v3.56h0Z" transform="translate(0 0)" fill="#fff"/><path d="M82.82,117.89a1.91,1.91,0,0,0,1.9,1.92,1.86,1.86,0,0,0,1.9-1.81c0-1.34-1.15-1.63-2.25-2-0.77-.23-2.43-0.72-2.43-2.52a2.64,2.64,0,0,1,2.83-2.62,2.56,2.56,0,0,1,2.7,2.46H86.43a1.71,1.71,0,0,0-3.42.08c0,1.16.93,1.44,2.37,1.93,0.9,0.35,2.31.85,2.31,2.6a2.76,2.76,0,0,1-2.94,2.78,2.81,2.81,0,0,1-3-2.82h1.06Z" transform="translate(0 0)" fill="#fff"/><path d="M89.12,120.54V111h1.05v4.23h4.59V111h1.07v9.52H94.76v-4.35H90.17v4.35H89.12Z" transform="translate(0 0)" fill="#fff"/><path d="M98.78,111v6a2.91,2.91,0,0,0,.45,1.92,2,2,0,0,0,1.67.8,2,2,0,0,0,1.64-.78,2.9,2.9,0,0,0,.45-1.93v-6h1v6a3.36,3.36,0,0,1-1.08,2.93,3.12,3.12,0,0,1-2.06.72,3.23,3.23,0,0,1-2.1-.72,3.37,3.37,0,0,1-1.08-2.93v-6h1.07Z" transform="translate(0 0)" fill="#fff"/><path d="M105.91,111h5.28V112H107v3.3h4.19v0.94H107v3.4h4.22v0.94H105.9V111h0Z" transform="translate(0 0)" fill="#fff"/><path d="M112.78,111h2.48a4.86,4.86,0,0,1,2.68.49,3,3,0,0,1,1.3,2.56,3.06,3.06,0,0,1-.56,1.87,2.62,2.62,0,0,1-2.12,1l2.37,3.56h-1.17l-2.69-4.15h0.31a3.15,3.15,0,0,0,2.11-.49,2.32,2.32,0,0,0,.71-1.75,2.22,2.22,0,0,0-.94-1.84,3.42,3.42,0,0,0-1.92-.34h-1.49v8.57h-1.07V111Z" transform="translate(0 0)" fill="#fff"/><path d="M121.9,112h-2.34V111h5.76V112H123v8.57H121.9V112Z" transform="translate(0 0)" fill="#fff"/><path d="M135.12,117.89a1.91,1.91,0,0,0,1.9,1.92,1.87,1.87,0,0,0,1.9-1.81c0-1.34-1.15-1.63-2.25-2-0.77-.23-2.43-0.72-2.43-2.52a2.63,2.63,0,0,1,2.83-2.62,2.56,2.56,0,0,1,2.7,2.46h-1.05a1.72,1.72,0,0,0-3.42.08c0,1.16.93,1.44,2.37,1.93,0.9,0.35,2.32.85,2.32,2.6A2.76,2.76,0,0,1,137,120.7a2.81,2.81,0,0,1-3-2.82h1.07Z" transform="translate(0 0)" fill="#fff"/><path d="M129.54,111h-1l-4,9.65h9.07ZM126,119.86l3-7.61,3,7.61H126Z" transform="translate(0 0)" fill="#fff"/><path d="M77.29,110.88h-1l-4,9.65h9.07Zm-3.58,8.82,3-7.61,3,7.61H73.71Z" transform="translate(0 0)" fill="#fff"/></g><g id="0bc32051-3467-452d-a670-02eccca0af9d" data-name="Front"><g id="f8578dd1-d79f-4632-9de1-0093aa8f0fd0" data-name="Background"><rect x="19.6" y="108.95" width="30.96" height="63.16" rx="5.33" ry="5.33" fill="#e2e2e2"/><path d="M45.22,109.27a4.62,4.62,0,0,1,5,5v52.49a4.63,4.63,0,0,1-5,5H24.93a4.63,4.63,0,0,1-5-5V114.28a4.62,4.62,0,0,1,5-5H45.22m0-.64H24.93a5.25,5.25,0,0,0-5.65,5.65v52.49a5.68,5.68,0,0,0,1.52,4.12,5.67,5.67,0,0,0,4.13,1.53H45.22a5.26,5.26,0,0,0,5.65-5.65V114.28a5.25,5.25,0,0,0-5.65-5.65h0Z" transform="translate(0 0)" fill="#333"/></g><g id="5c22a5f2-30f8-4933-8da9-2a8a5b3a6e3b" data-name="Light"><path d="M44.58,109.91h-19a4.62,4.62,0,0,0-5,5v51.21a4.63,4.63,0,0,0,5,5h19a4.63,4.63,0,0,0,5-5V114.92A4.62,4.62,0,0,0,44.58,109.91Z" transform="translate(0 0)" fill="#f4f4f4" fill-rule="evenodd"/></g><path id="598e965e-bb05-4e49-b79f-2ccae7cff685" data-name="Home Button" d="M34.61,165.57A2.45,2.45,0,1,0,37.05,168,2.45,2.45,0,0,0,34.61,165.57Zm0,4.65A2.21,2.21,0,1,1,36.81,168,2.21,2.21,0,0,1,34.61,170.22Z" transform="translate(0 0)" fill="#d6d6d6" fill-rule="evenodd"/><path id="f4cb205b-d410-4f59-824a-1d2c6fe8066d" data-name="Speaker" d="M32.87,113.25h4.26a0.27,0.27,0,0,1,0,.53H32.87A0.27,0.27,0,0,1,32.87,113.25Z" transform="translate(0 0)" fill="#333" fill-rule="evenodd"/><path id="e1705d9e-c389-48be-b7e8-3fd984617254" data-name="Camera" d="M30.11,113.19a0.48,0.48,0,1,1-.48.48A0.48,0.48,0,0,1,30.11,113.19Z" transform="translate(0 0)" fill="#333" fill-rule="evenodd"/><rect id="8ed62c63-67dd-4f18-b851-7362c2009e21" data-name="Display" x="21.65" y="116.97" width="26.85" height="47.52" fill="#666"/><path id="8972f46b-e396-47ec-852f-71e846220828" data-name="Light" d="M29.72,109.27l-9.8,9.8v4.59l14.4-14.4H29.72Zm15.5,0H35.31l-15.4,15.4v15.78L49.3,111.07A4.82,4.82,0,0,0,45.22,109.27Z" transform="translate(0 0)" fill="#fff" opacity="0.1"/><path d="M34.28,142.19v-1.64l-1.42.82A1.67,1.67,0,0,0,34.28,142.19Z" transform="translate(0 0)" fill="#006289"/><path d="M43.8,134.81H34.33v1.76h5.79v0h0a0.51,0.51,0,0,1,.3.1,0.5,0.5,0,0,1,.15.18l0.38-.22,1.5-.87,0.66-.38,0,0,0.68-.4,0.06-.11Z" transform="translate(0 0)" fill="#006289"/><path d="M35.74,141.37l-1.44-.83h0v1.64h0A1.67,1.67,0,0,0,35.74,141.37Z" transform="translate(0 0)" fill="#9c9b9b"/><path d="M28.17,137a0.51,0.51,0,0,1,.08-0.16h0a0.51,0.51,0,0,1,.41-0.21h5.66v-1.76h-7.5a0.51,0.51,0,0,1-.43-0.78h0l1.14-2h6.81v-1H27.24a0.51,0.51,0,0,0-.41.21l0,0h0l-1.88,3.16a0.5,0.5,0,0,0-.09.36,0.43,0.43,0,0,0,0,.07L25,135.11" transform="translate(0 0)" fill="#9c9b9b"/><path d="M34.28,140.55v0l-1.43-.83a1.67,1.67,0,0,0,0,1.67Z" transform="translate(0 0)" fill="#009ee2"/><path d="M44.89,138.4l-3.55,6.16,0.9,0.52,3.66-6.4a0.51,0.51,0,0,0,.06-0.39h0l-0.05-.09L45.82,138l-1.69-3A0.49,0.49,0,0,0,44,134.9l-0.12.07-0.68.4,0,0-0.66.38-1.5.87-0.38.22a0.51,0.51,0,0,1,0,.4,0.52,0.52,0,0,1-.07.14l0,0-2.89,5,1.44,0.83S43,136.45,43,136.43a0.51,0.51,0,0,1,.64,0c0.06,0,1.22,2,1.22,2" transform="translate(0 0)" fill="#009ee2"/><path d="M32.85,139.7l1.43,0.83v-1.68A1.67,1.67,0,0,0,32.85,139.7Z" transform="translate(0 0)" fill="#81cff4"/><path d="M37.65,142.43l-2.83,4.88,0,0a0.51,0.51,0,0,1-.45.2v3.78l4.74-8.07Z" transform="translate(0 0)" fill="#81cff4"/><path d="M34.31,140.54l1.45-.84a1.67,1.67,0,0,0-1.46-.85h0v1.68h0Z" transform="translate(0 0)" fill="#fff"/><path d="M34,147.38s-2.9-5-2.9-5l-1.45.84,3.71,6.42h0a0.51,0.51,0,0,1-.44.76h-2.2l-3.37-5.85-0.9.52,3.46,6,0.1,0.17,0.08,0.08a0.51,0.51,0,0,0,.3.1h3.71a0.5,0.5,0,0,0,.25-0.07v-3.79a0.51,0.51,0,0,1-.28-0.12Z" transform="translate(0 0)" fill="#fff"/><path d="M35.74,141.37a1.67,1.67,0,0,0,0-1.67l-1.45.84Z" transform="translate(0 0)" fill="#d9d9d9"/><path d="M28.59,138l-0.18-.31-0.07-.12-0.14-.25h0l0,0a0.51,0.51,0,0,1,0-.35L25,135.12l0.39,0.67,0.39,0.68,0.1,0.17,0.42,0.72,0.06,0.1,3.31,5.73,1.45-.84L28.59,138h0Z" transform="translate(0 0)" fill="#d9d9d9"/></g><g id="fcebdc39-ea00-44a0-98aa-c477fbf58de0" data-name="Front"><g id="d5329e06-55da-42ec-9bc9-1be990b74dda" data-name="Backbround"><rect x="142.15" y="96.22" width="53.58" height="79.24" rx="4.64" ry="4.64" fill="#f4f4f4"/><path d="M191.1,96.5a4,4,0,0,1,4.36,4.36v70a4,4,0,0,1-4.36,4.36H146.79a4,4,0,0,1-4.36-4.36v-70a4,4,0,0,1,4.36-4.36H191.1m0-.56H146.79a4.56,4.56,0,0,0-4.91,4.91v70a4.58,4.58,0,0,0,4.91,4.91H191.1a4.58,4.58,0,0,0,4.91-4.91v-70a4.56,4.56,0,0,0-4.91-4.91h0Z" transform="translate(0 0)" fill="#333"/></g><path id="c6593efa-40c7-44b8-b0ab-1d9e4e274236" data-name="Home Button" d="M168.92,169.2a2.13,2.13,0,1,0,2.13,2.13A2.13,2.13,0,0,0,168.92,169.2Zm0,4a1.92,1.92,0,1,1,1.92-1.92A1.92,1.92,0,0,1,168.92,173.25Z" transform="translate(0 0)" fill="#fcc865" fill-rule="evenodd"/><rect id="dd690d9c-c0a7-424f-9b0c-3ce6831ff12b" data-name="Display" x="144.51" y="104.14" width="47.79" height="62.93" fill="#666"/><path id="2de26563-422f-4bef-8057-b22a7c2ebeeb" data-name="Camera" d="M169,100a0.42,0.42,0,1,1-.42.42A0.42,0.42,0,0,1,169,100Z" transform="translate(0 0)" fill="#333" fill-rule="evenodd"/><g id="46396389-2bee-4665-ae71-c832e5b5a1a5" data-name="Light" opacity="0.1"><path d="M158.27,96.5L142.4,112.36v7.36L165.63,96.5h-7.36Zm9.72,0L142.4,122.09V143.9l47.4-47.4H168Z" transform="translate(0 0)" fill="#fff" fill-rule="evenodd"/></g><path d="M167.79,136.16V134l-1.84,1.06A2.16,2.16,0,0,0,167.79,136.16Z" transform="translate(0 0)" fill="#006289"/><path d="M180.14,126.58h-12.3v2.28h7.52v0h0a0.66,0.66,0,0,1,.39.13,0.65,0.65,0,0,1,.2.23l0.5-.29,1.94-1.12,0.86-.49,0,0,0.89-.51,0.08-.14Z" transform="translate(0 0)" fill="#006289"/><path d="M169.68,135.09L167.82,134l0,0v2.12h0A2.17,2.17,0,0,0,169.68,135.09Z" transform="translate(0 0)" fill="#9c9b9b"/><path d="M159.85,129.36a0.66,0.66,0,0,1,.1-0.21h0a0.66,0.66,0,0,1,.53-0.27h7.35v-2.28H158.1a0.66,0.66,0,0,1-.56-1h0L159,123h8.83v-1.32h-9.2a0.66,0.66,0,0,0-.53.27l0,0h0l-2.44,4.11a0.65,0.65,0,0,0-.12.47,0.55,0.55,0,0,0,0,.09l0.17,0.3" transform="translate(0 0)" fill="#9c9b9b"/><path d="M167.79,134v0l-1.86-1.08a2.17,2.17,0,0,0,0,2.17Z" transform="translate(0 0)" fill="#009ee2"/><path d="M181.55,131.24l-4.61,8,1.17,0.68,4.75-8.32a0.66,0.66,0,0,0,.08-0.51h0l-0.07-.12-0.11-.19-2.2-3.87a0.64,0.64,0,0,0-.18-0.2l-0.16.09-0.89.51,0,0-0.86.49-1.94,1.12-0.5.29a0.66,0.66,0,0,1,0,.51,0.68,0.68,0,0,1-.09.18l0,0-3.75,6.5,1.87,1.08s5.09-8.84,5.12-8.87a0.66,0.66,0,0,1,.83,0c0.08,0.06,1.58,2.6,1.58,2.6" transform="translate(0 0)" fill="#009ee2"/><path d="M165.92,132.92l1.86,1.08v-2.18A2.16,2.16,0,0,0,165.92,132.92Z" transform="translate(0 0)" fill="#81cff4"/><path d="M172.15,136.47l-3.68,6.34,0,0.05a0.66,0.66,0,0,1-.59.26V148l0,0L174,137.54Z" transform="translate(0 0)" fill="#81cff4"/><path d="M167.82,134l1.89-1.09a2.17,2.17,0,0,0-1.89-1.11h0V134Z" transform="translate(0 0)" fill="#fff"/><path d="M167.4,142.89c0-.05-3.76-6.52-3.76-6.52l-1.88,1.09,4.81,8.34h0a0.66,0.66,0,0,1-.58,1h-2.85l-4.38-7.6-1.16.67,4.49,7.8,0.13,0.22,0.11,0.1a0.66,0.66,0,0,0,.39.13h4.81a0.65,0.65,0,0,0,.33-0.09v-4.91a0.66,0.66,0,0,1-.36-0.15Z" transform="translate(0 0)" fill="#fff"/><path d="M169.68,135.09a2.17,2.17,0,0,0,0-2.17L167.82,134Z" transform="translate(0 0)" fill="#d9d9d9"/><path d="M160.39,130.75l-0.23-.4-0.09-.16-0.19-.32h0l0,0a0.66,0.66,0,0,1,0-.45L155.71,127l0.51,0.88,0.51,0.89,0.13,0.22,0.54,0.93,0.07,0.13,4.29,7.44,1.88-1.09-3.24-5.61h0Z" transform="translate(0 0)" fill="#d9d9d9"/></g></svg>