<svg id="1a9c6828-1bdc-4285-8858-aa798e5cbe6c" data-name="c82a089c-d18e-4bd7-9fb7-5b814d859035" xmlns="http://www.w3.org/2000/svg" xmlns:xlink="http://www.w3.org/1999/xlink" width="200" height="200" viewBox="0 0 200 200"><defs><clipPath id="a6e79f12-ef99-417e-be87-c9e78016bb4b" transform="translate(0)"><circle cx="116.54" cy="103.11" r="16.27" fill="none"/></clipPath></defs><title>skill-6</title><circle cx="100" cy="100" r="100" fill="#1c1c1c"/><g id="4f553749-b905-4796-9f94-fbc85d872213" data-name="c4eee569-f4d5-40c0-a594-98f1e6b84253"><path d="M143.5,46.27c0.08-.33,6.18-0.22,11.88,1.3s11.13,4.45,11,5.33c-0.36,1.75-1,2.9-.6,3.56s-20.3-3.8-22.23-6.74S143.5,46.27,143.5,46.27Z" transform="translate(0)" fill="#616263" stroke="#333" stroke-miterlimit="10" stroke-width="4"/><line x1="164.99" y1="51.31" x2="163.82" y2="55.85" fill="none" stroke="#333" stroke-miterlimit="10" stroke-width="2"/><line x1="163.54" y1="50.59" x2="162.37" y2="55.12" fill="none" stroke="#333" stroke-miterlimit="10" stroke-width="2"/><line x1="162.11" y1="50.59" x2="160.93" y2="55.12" fill="none" stroke="#333" stroke-miterlimit="10" stroke-width="2"/><line x1="160.66" y1="49.88" x2="159.48" y2="54.4" fill="none" stroke="#333" stroke-miterlimit="10" stroke-width="2"/><line x1="159.21" y1="49.51" x2="158.03" y2="54.04" fill="none" stroke="#333" stroke-miterlimit="10" stroke-width="2"/><line x1="158.03" y1="48.37" x2="156.58" y2="53.68" fill="none" stroke="#333" stroke-miterlimit="10" stroke-width="2"/><line x1="156.58" y1="47.91" x2="155.15" y2="53.31" fill="none" stroke="#333" stroke-miterlimit="10" stroke-width="2"/><line x1="154.87" y1="48.07" x2="153.7" y2="52.59" fill="none" stroke="#333" stroke-miterlimit="10" stroke-width="2"/><line x1="153.42" y1="47.7" x2="152.25" y2="52.23" fill="none" stroke="#333" stroke-miterlimit="10" stroke-width="2"/><line x1="152.25" y1="46.56" x2="150.8" y2="51.87" fill="none" stroke="#333" stroke-miterlimit="10" stroke-width="2"/><line x1="150.8" y1="46.1" x2="149.36" y2="51.5" fill="none" stroke="#333" stroke-miterlimit="10" stroke-width="2"/><line x1="149" y1="46.92" x2="147.55" y2="52.23" fill="none" stroke="#333" stroke-miterlimit="10" stroke-width="2"/><line x1="147.55" y1="46.46" x2="146.1" y2="51.87" fill="none" stroke="#333" stroke-miterlimit="10" stroke-width="2"/></g><path id="31e2a7d5-a672-475b-866e-faaf7689dcbe" data-name="a8dafd66-acf1-4a19-9143-792f6b1590ed" d="M54,51.6a2.09,2.09,0,0,0-1.81,1.89l0.18,1.89,4.49-1.21a11.62,11.62,0,0,0-.18-1.48C56.56,52.12,55.71,51.32,54,51.6Zm10.44-1.45A2.09,2.09,0,0,0,62.61,52l0.18,1.83,4.49-1.21a11.62,11.62,0,0,0-.18-1.48C67,50.67,66.2,49.88,64.42,50.15Zm10.48-1.09A2.09,2.09,0,0,0,73.1,51l0.18,1.83,4.49-1.21a11.62,11.62,0,0,0-.07-1.51c-0.17-.48-1-1.29-2.73-1H74.91Zm11.71-.43c-0.12-.49-1-1.29-2.68-1a2.09,2.09,0,0,0-1.81,1.89l0.18,1.83,4.49-1.21a11.62,11.62,0,0,0-.12-1.51H86.62Z" transform="translate(0)" fill="#535454" stroke="#333" stroke-miterlimit="10" stroke-width="4"/><g id="5c91b3f8-dca9-42c5-9117-0ec69ebd3280" data-name="231e23d9-c670-4141-9ce9-afc9fbbe0cf8"><path d="M165.07,141.89c5.25-.36,9.13-2.71,9.13-9.94,0-1.09.72-.27,0.81-2.41a235.59,235.59,0,0,0,1.45-26.4c0-15.88-.6-30.88-1.45-32.17s-0.36-11-5.33-13.2-14.83-2.9-22.41-8.59-11-17.71-16.64-19.88-22.33-2-27.3,0S94.74,48.6,82.18,49.54s-13,1.35-30,3.62S27.32,56.21,25.32,71.84a2.5,2.5,0,0,0-1,2c-0.08,1.45-.81,14.37-0.81,29.28s0.9,31.25,1,32a2.76,2.76,0,0,0,.75,1.41c0,5.27,1,6.66,7.24,7.56,3,0.43,13.27.71,23.68,0.71,5.43,0,4-2.63,9.16-2.68,9.35-.1,21.71.52,34.92,0.52C139.94,142.61,165.07,141.89,165.07,141.89Z" transform="translate(0)" fill="#616263"/><path d="M56.2,145.49c-11.06,0-20.85-.3-23.79-0.72-6.31-.9-7.83-2.41-7.88-8a3.16,3.16,0,0,1-.75-1.63c-0.06-.8-1-17.28-1-32,0-15.85.81-29.19,0.82-29.33a3.37,3.37,0,0,1,1-2.33C26.7,55.78,35,54.68,51.31,52.52l0.76-.1c4.83-.64,8.25-1.12,11-1.51,7.24-1,10-1.39,19-2.11,7.67-.6,11.88-7.64,15.27-13.27,2-3.41,3.62-6.1,5.67-6.91,5-2,21.86-2.32,27.83,0,3.06,1.21,5.37,4.83,8,9.07,2.41,3.84,5.14,8.18,8.78,10.86,5,3.74,11.07,5.31,16,6.57A44.64,44.64,0,0,1,170,57.05c4,1.74,4.75,7.61,5.22,11.12a12.5,12.5,0,0,0,.42,2.35c1.15,1.76,1.57,20.44,1.57,32.57A215.55,215.55,0,0,1,176,127.23c-0.12,1.1-.19,1.88-0.22,2.34a2.74,2.74,0,0,1-.76,2.21h0v0.14c0,6.72-3.21,10.21-9.81,10.66h0c-0.25,0-25.59.72-64.83,0.72-6.6,0-12.82-.14-18.86-0.3s-11.38-.28-16.07-0.23A6,6,0,0,0,61.37,144,7.59,7.59,0,0,1,56.2,145.49Zm61.06-117c-5.62,0-11.22.54-13.63,1.51-1.56.63-3.14,3.26-5,6.31-3.37,5.62-8,13.27-16.39,14-9,.71-11.7,1.09-18.92,2.1-2.8.39-6.27,0.88-11.05,1.51l-0.76.1C34.84,56.2,27.93,57.11,26,72v0.35l-0.3.18a1.85,1.85,0,0,0-.63,1.41c0,0.13-.81,13.44-0.81,29.24,0,14.71.89,31.12,1,31.91a2,2,0,0,0,.54,1L26,136.22v0.3c0,4.83.62,6,6.65,6.85,2.84,0.41,12.75.71,23.57,0.71a6.21,6.21,0,0,0,4.29-1.21,7.38,7.38,0,0,1,4.83-1.46c4.7,0,10.25.08,16.12,0.23s12.23,0.3,18.82.3c38.82,0,64-.7,64.77-0.72,5.84-.41,8.44-3.25,8.44-9.22a1.5,1.5,0,0,1,.51-1.21,1.53,1.53,0,0,0,.31-1.21c0-.51.11-1.31,0.23-2.41a214.22,214.22,0,0,0,1.21-23.92c0-17.52-.69-30.58-1.34-31.79a8.34,8.34,0,0,1-.64-2.93c-0.42-3.21-1.13-8.58-4.37-10a43.88,43.88,0,0,0-6-2c-5-1.29-11.24-2.91-16.47-6.82-3.85-2.88-6.66-7.35-9.13-11.29S133,31,130.42,30s-8-1.6-13.17-1.6v0Z" transform="translate(0)" fill="#333"/></g><path id="636081de-3708-43c3-9e11-b34c904db853" data-name="b28f4515-eb8c-4293-b8a3-dec180bda2c8" d="M25.32,71.82h0ZM56,52.61c-0.86.12-12.43,1.74-21.08,4-8.44,2.18-9.57,14.63-9.65,15.22,0-.49.77-7.9,7.06-11.18,7-3.62,13.74-3.88,18-5.15S56.87,52.51,56,52.61Zm90.1-5.08a21.72,21.72,0,0,1-4.45-3.92c-2-2.59-7.12-10.71-7.12-10.71s4.83,9.65,3.5,14.48-2.85,6-2.85,6a11.11,11.11,0,0,1,8,3.93c3.46,4,6,13,6,13s-1.85-18.88-3.06-22.8h0ZM92.74,43.62a21.71,21.71,0,0,1-4.5,3.92C87,51.46,85.16,70.3,85.16,70.3s2.61-9,6-13a11.11,11.11,0,0,1,8-3.93s-1.5-1.21-2.85-6,3.5-14.48,3.5-14.48S94.76,41,92.74,43.62ZM58,56.34c-4.28,1.21-5.53,16.14-6.27,16.24V138.1c2.41-.22,1.21.21,2.41-0.22s2.74-2.58,6.19-2.58v-65C58.73,70.31,59.24,56,58,56.34Z" transform="translate(0)" fill="#535454"/><g id="fa74e51b-3f7e-4a4c-8fa8-30220d42f78c" data-name="17e839e0-d396-4d71-bdfd-034e35a6d11b"><path d="M39,74a83.24,83.24,0,0,1-14.34-1.46l0.24-1.42A81.68,81.68,0,0,0,39,72.57c7.24,0,13.27-.62,14.09-1,0.51-.24.92-0.48,1.3-0.71a7.82,7.82,0,0,1,4.83-1.21h88.67l15.39,0.64c6.88,0.28,11.73,0,11.77,0l0.08,1.45s-5,.27-11.91,0-15.32-.65-15.41-0.65H59.15a6.49,6.49,0,0,0-4.07,1.06c-0.4.23-.84,0.49-1.4,0.76C52.24,73.55,44.9,74,39,74Z" transform="translate(0)" fill="#333"/></g><g id="45fc8fb0-e935-41fc-8aff-1f075c3bee9f" data-name="ae265c67-4200-49c5-9d27-117f981df33d"><path d="M42,138.85H37.93c-10-.28-13.2-2.41-13.27-2.55l0.83-1.21s3,2,12.53,2.28c8.44,0.23,14.15-.24,16.89-1.39a3.39,3.39,0,0,0,1.3-.92c0.78-.82,1.47-1.31,4.4-1.31h8.13c2.79,0,4.5-.54,5.92-1.88s5.24-3,9.81-3c1.45,0,10.57.21,22.11,0.47,21.61,0.49,54.29,1.21,57,1.06,4.22-.27,11.1-0.28,11.16-0.28v1.45c-0.07,0-6.9,0-11.07.27-2.84.18-34.23-.54-57.15-1.06-11.53-.27-20.64-0.47-22.08-0.47-4.15,0-7.48,1.35-8.82,2.61-1.69,1.59-3.76,2.28-6.91,2.28h-8.2c-2.53,0-2.88.36-3.37,0.87a4.83,4.83,0,0,1-1.77,1.21C52.93,138.33,48.52,138.85,42,138.85Z" transform="translate(0)" fill="#333"/></g><g id="4094c5d8-7088-4ec6-b982-33fd072f3c32" data-name="e023f875-f39c-4185-b229-8cca7e824c52"><path d="M56.2,145.49c-11.06,0-20.85-.3-23.79-0.72-6.31-.9-7.83-2.41-7.88-8a3.16,3.16,0,0,1-.75-1.63c-0.06-.8-1-17.28-1-32,0-15.85.81-29.19,0.82-29.33a3.37,3.37,0,0,1,1-2.33C26.7,55.78,35,54.68,51.31,52.52l0.76-.1c4.83-.64,8.25-1.12,11-1.51,7.24-1,10-1.39,19-2.11,7.67-.6,11.88-7.64,15.27-13.27,2-3.41,3.62-6.1,5.67-6.91,5-2,21.86-2.32,27.83,0,3.06,1.21,5.37,4.83,8,9.07,2.41,3.84,5.14,8.18,8.78,10.86,5,3.74,11.07,5.31,16,6.57A44.64,44.64,0,0,1,170,57.05c4,1.74,4.75,7.61,5.22,11.12a12.5,12.5,0,0,0,.42,2.35c1.15,1.76,1.57,20.44,1.57,32.57A215.55,215.55,0,0,1,176,127.23c-0.12,1.1-.19,1.88-0.22,2.34a2.74,2.74,0,0,1-.76,2.21h0v0.14c0,6.72-3.21,10.21-9.81,10.66h0c-0.25,0-25.59.72-64.83,0.72-6.6,0-12.82-.14-18.86-0.3s-11.38-.28-16.07-0.23A6,6,0,0,0,61.37,144,7.59,7.59,0,0,1,56.2,145.49Zm61.06-117c-5.62,0-11.22.54-13.63,1.51-1.56.63-3.14,3.26-5,6.31-3.37,5.62-8,13.27-16.39,14-9,.71-11.7,1.09-18.92,2.1-2.8.39-6.27,0.88-11.05,1.51l-0.76.1C34.84,56.2,27.93,57.11,26,72v0.35l-0.3.18a1.85,1.85,0,0,0-.63,1.41c0,0.13-.81,13.44-0.81,29.24,0,14.71.89,31.12,1,31.91a2,2,0,0,0,.54,1L26,136.22v0.3c0,4.83.62,6,6.65,6.85,2.84,0.41,12.75.71,23.57,0.71a6.21,6.21,0,0,0,4.29-1.21,7.38,7.38,0,0,1,4.83-1.46c4.7,0,10.25.08,16.12,0.23s12.23,0.3,18.82.3c38.82,0,64-.7,64.77-0.72,5.84-.41,8.44-3.25,8.44-9.22a1.5,1.5,0,0,1,.51-1.21,1.53,1.53,0,0,0,.31-1.21c0-.51.11-1.31,0.23-2.41a214.22,214.22,0,0,0,1.21-23.92c0-17.52-.69-30.58-1.34-31.79a8.34,8.34,0,0,1-.64-2.93c-0.42-3.21-1.13-8.58-4.37-10a43.88,43.88,0,0,0-6-2c-5-1.29-11.24-2.91-16.47-6.82-3.85-2.88-6.66-7.35-9.13-11.29S133,31,130.42,30s-8-1.6-13.17-1.6v0Z" transform="translate(0)" fill="#333"/></g><g id="68b7bb56-cf60-4a71-b2ea-debdba81e4a1" data-name="2cbc5eab-4535-46d5-9ec9-2300d8f5c46f"><path d="M82.19,80.72s2-7.35,5.07-17.47S104.86,52,106.56,52h20.26c1.76,0,16.32,1.09,19.3,11.21s5.16,17.47,5.16,17.47H82.19Z" transform="translate(0)" fill="#535454"/><path d="M152.19,81.46H81.24l0.25-.92c0-.07,2.05-7.48,5.07-17.49,3.38-11.22,19.89-11.73,20.05-11.73h20.21c0.17,0,16.68.51,20.05,11.73,3,10,5,17.42,5.07,17.49ZM83.15,80h67.15c-0.64-2.28-2.41-8.58-4.83-16.54C142.39,53.24,127,52.78,126.79,52.78H106.65c-0.16,0-15.6.46-18.67,10.69C85.56,71.43,83.73,77.73,83.15,80Z" transform="translate(0)" fill="#333"/></g><g id="1ff33bf6-4b6f-4559-9659-04eb2debcd39" data-name="a7d59afa-2e27-4ccd-8ede-0161e261f9ab"><circle cx="148.73" cy="100.5" r="13.92" fill="#535454"/><path d="M148.71,115.14a14.65,14.65,0,1,1,14.63-14.66h0A14.66,14.66,0,0,1,148.71,115.14Zm0-27.84a13.2,13.2,0,1,0,13.2,13.2A13.2,13.2,0,0,0,148.71,87.3Z" transform="translate(0)" fill="#333"/></g><g id="6512dba8-271f-4c41-a05d-572e17aae34a" data-name="e29a379e-19b7-4412-8d37-f4120c7e1ab9"><circle cx="116.54" cy="103.11" r="42.48" fill="#535454" stroke="#333" stroke-miterlimit="10" stroke-width="4"/><path d="M116.54,137.42a34.35,34.35,0,1,1,34.35-34.35,34.35,34.35,0,0,1-34.35,34.35h0Z" transform="translate(0)" fill="#535454" stroke="#333" stroke-miterlimit="10" stroke-width="4"/><path d="M116.54,135.29a32.17,32.17,0,1,1,32.17-32.17h0A32.17,32.17,0,0,1,116.54,135.29Z" transform="translate(0)" fill="#535454" stroke="#333" stroke-miterlimit="10" stroke-width="2"/><path d="M116.54,133.8a30.73,30.73,0,1,1,30.73-30.73,30.73,30.73,0,0,1-30.73,30.73h0Z" transform="translate(0)" fill="#535454" stroke="#333" stroke-miterlimit="10" stroke-width="2"/><path d="M116.54,132.41a29.28,29.28,0,1,1,29.28-29.28A29.28,29.28,0,0,1,116.54,132.41Z" transform="translate(0)" fill="#535454" stroke="#333" stroke-miterlimit="10" stroke-width="2"/><path d="M116.54,131a27.84,27.84,0,1,1,27.84-27.84A27.84,27.84,0,0,1,116.54,131h0Z" transform="translate(0)" fill="#535454" stroke="#333" stroke-miterlimit="10" stroke-width="2"/><path d="M116.54,129.51a26.4,26.4,0,1,1,26.4-26.4h0A26.4,26.4,0,0,1,116.54,129.51Z" transform="translate(0)" fill="#535454" stroke="#333" stroke-miterlimit="10" stroke-width="2"/><path d="M116.54,128.42a25.33,25.33,0,1,1,25.33-25.33,25.33,25.33,0,0,1-25.33,25.33h0Z" transform="translate(0)" fill="#535454" stroke="#333" stroke-miterlimit="10"/><path d="M116.54,127.7a24.59,24.59,0,1,1,24.59-24.59h0A24.59,24.59,0,0,1,116.54,127.7Z" transform="translate(0)" fill="#535454" stroke="#333" stroke-miterlimit="10"/><path d="M116.54,127a23.86,23.86,0,1,1,23.89-23.86A23.86,23.86,0,0,1,116.54,127h0Z" transform="translate(0)" fill="#535454" stroke="#333" stroke-miterlimit="10"/><path d="M116.54,146.33a43.2,43.2,0,1,1,43.19-43.21A43.2,43.2,0,0,1,116.54,146.33Zm0-85a41.75,41.75,0,1,0,41.75,41.75h0A41.8,41.8,0,0,0,116.54,61.36Zm0,79.54a37.78,37.78,0,1,1,37.78-37.78h0A37.82,37.82,0,0,1,116.54,140.9Zm0-74.12a36.34,36.34,0,1,0,36.34,36.34h0A36.37,36.37,0,0,0,116.54,66.78Z" transform="translate(0)" fill="#333"/><path d="M116.44,145.6h-2.75l-1-.07H112l-0.53-.23-1-.12-0.72-.1h0l-0.52-.08-1-.17-0.72-.14h0l-0.51-.12-0.94-.23-0.49-.13h0l-0.31-.08h-0.07l-0.33-.1-0.93-.28-0.24-.07h0l-0.31-.11-0.27-.11h0l-0.39-.13-0.92-.33-0.76-.28h0l-0.42-.17-0.88-.3-0.71-.3h0l-0.45-.21-0.87-.41L97.15,141h0l-0.47-.25-0.84-.46L95.38,140h0l-0.63-.37-0.82-.51-0.45-.28h0l-0.11-.13H93.3l-0.43-.3-0.8-.55-0.43-.3h0l-0.16-.12-0.42-.31-0.77-.59-0.41-.35h0l-0.12-.08H89.69l-0.41-.34-0.72-.69-0.4-.35h0l-0.11-.1h0l-0.39-.36-0.7-.66-0.52-.51h0l-0.37-.39L85.4,132,85,131.66h0l-0.48-.54-0.63-.74L83.59,130h0l-0.12-.16h0l-0.33-.42-0.63-.8-0.31-.42h0l-0.08-.11h0l-0.3-.43-0.54-.8L81,126.4h0v-0.06l-0.07-.11h0l-0.28-.45-0.53-.88-0.27-.45h0l-0.06-.11v-0.07h0l-0.25-.46L79.07,123l-0.24-.46h0l-0.07-.14h0l-0.23-.47L78.12,121,78,120.86h0l-0.35-.49h0l-0.21-.48L77.11,119l-0.17-.42h0l-0.28-.76-0.33-.92-0.13-.39h0v-0.14l-0.14-.43h0l-0.13-.22q-0.14-.46-0.28-0.93l-0.27-.92h0l-0.11-.36q-0.12-.47-0.23-0.94L75,112.09h0l-0.12-.72q-0.12-.48-0.19-1l-0.1-.52h0l-0.08-.72a8.57,8.57,0,0,0-.12-1l-0.06-.53h0v-0.72a4.34,4.34,0,0,0-.07-1v-0.72h0v-2h0V103h0v-2.07h0V100.8h0v-0.53a4.34,4.34,0,0,1,.07-1V98.77h0V98.58h0L74.38,98a3.82,3.82,0,0,1,.12-1l0.07-.52h0V96.43h0l0.1-.52a4.42,4.42,0,0,1,.18-1l0.07-.35h0L75,94.28h0l0.12-.52q0.11-.47.23-0.94l0.13-.54h0.29l-0.24-.17,0.14-.51q0.13-.47.28-0.93l0.06-.3h0L76.15,90V89.8h0l0.13-.39,0.33-.92,0.24-.66h0l0.21-.52,0.37-.89,0.3-.71,0.21,0.08-0.11-.24L78,85.24l0.42-.89,0.19-.41h0.17l-0.13-.07L79,83.21l0.46-.84,0.25-.43h0V81.75h0l0.42-.42,0.51-.82,0.28-.45h0l0.41-.6,0.54-.8,0.3-.43h0l0.08-.11h0l0.29-.48,0.59-.77,0.45-.57h0l0.36-.4,0.63-.74L85,74.62h0l0.36-.39,0.66-.75,0.37-.39h0L86.51,73h0l0.39-.37L87.6,72,88,71.63h0l0.57-.55,0.74-.63,0.47-.29h0V70.08h0.06l0.42-.33L91,69.17l0.42-.31,0.17-.12h0l0.43-.3,0.8-.55,0.65-.42h0l0.45-.28,0.82-.51,0.63-.42,0.1,0.16V66.25L95.79,66l0.84-.46,0.23-.12h0l0.43-.22L97.77,65l0.87-.41,0.63-.29,0.52-.22,0.89-.37,0.31-.13h0l0.35-.13h0.11l0.4-.14,0.9-.33,0.45-.16h0.1l0.6-.18,0.93-.28,0.34-.1h0.07l0.25-.07h0L106,62l0.84-.21h0l0.53-.11,0.46-.11h0l0.45-.18,1-.18,0.52-.1h0.14l0.52-.07,1-.12,0.53-.06h0.72l1-.07h5.65l1,0.07h0.87L121.65,61l1,0.12,0.52,0.07h0.21l0.52,0.08,0.89,0.19v0.71h0.36V61.48l0.84,0.21,0.94,0.23L127.43,62h0.31l0.35,0.1L129,62.42l0.54,0.21h0l0.69,0.24,0.92,0.33,0.55,0.21h0l0.57,0.23L133.19,64l0.35,0.14h0l0.27,0.12h0.08l0.51,0.25L135.26,65l0.46,0.23h0.11l0.33,0.16h0l0.23,0.12,0.84,0.46,0.42,0.24h0l0.13,0.08,1.87,1h-0.17l0.11,0.14h0l0.17,0.12,0.43,0.29,0.8,0.55,0.43,0.24h0L142,69.09l0.82,0.62L143.26,70h0l0.16,0.12h0l0.41,0.34,0.68,0.58L145,71.55h0l0.39,0.36,0.7,0.66L146.46,73h0l0.08,0.08h0l0.48,0.4,0.64,0.74L148,74.61h0l0.13,0.14,0.35,0.4,0.65,0.75,0.34,0.41h0l0.1,0.12h0l0.33,0.41,0.59,0.77L150.82,78h0v0.07l0.07,0.1h0l0.39,0.45,0.54,0.8,0.29,0.43h0v0.06L152.19,80h0l0.3,0.46L153,81.33l0.27,0.45h0V82h0l0.43,0.46,0.46,0.84,0.21,0.39h0v0.08l0.31,0.6h0l0.42,0.87,0.21,0.45h0l0.3,0.71L156,87.25l0.13,0.42h0l0.29,0.8,0.33,0.92,0.17,0.49h0v0.18h0L157,90.53c0.1,0.31.19,0.62,0.28,0.93l0.21,0.71h0l0.12,0.49q0.11,0.42.21,0.84h0L158,94.17l0.07,0.33h0l0.07,0.35q0.1,0.47.18,1l0.22,0.6h0l0.08,0.72q0.07,0.48.12,1l0.06,0.53h0v0.72a4.34,4.34,0,0,0,.07,1V101h0v2h0v0.21h0v2h0v0.19h0V106a4.34,4.34,0,0,1-.07,1v0.72h0l-0.06.53a8.23,8.23,0,0,1-.12,1v0.4h0v0.33h0l-0.08.52a4.42,4.42,0,0,1-.18,1l-0.07.35h0l-0.21.88c-0.07.31-.14,0.63-0.23,0.94l-0.22.88h0l-0.1.34c-0.08.31-.18,0.63-0.28,0.93l-0.14.47h0l-0.25.72-0.33.92-0.18.49h0l-0.18.49h0v0.12l-0.37.89-0.3.7h0l-0.21.45-0.42.87-0.19.4h-0.4l0.19,0.39-0.17.33-0.46.84-0.25.46h0v0.07l-0.06.11h0l-0.27.45-0.51.82-0.28.45h0l-0.11.17h0l-0.29.43-0.55.8-0.3.43h0l-0.07.11v0.06h0l-0.31.42-0.59.77-0.33.42h0l-0.08.11h0l-0.34.41-0.63.74-0.48.54h0l-0.36.39-0.66.7L147,133h0l-0.13.13h0l-0.39.37-0.7.66-0.39.36h0l-0.54.48-0.74.63-0.4.34h0l-0.58.45-0.77.59-0.59.43h0l-0.42.3-0.8.55-0.43.3h0l-0.12.08h0l-0.45.28-0.82.51-0.46.28h-0.17l-0.46.25-0.84.46-0.47.25h0l-0.14.07h0l-0.47.23-0.87.41-0.45.21h0l-0.35.16-0.35.14-0.89.37-0.37.14h0l-0.81.29-0.92.33-0.49.17h0l-0.63.31h0l-0.48.14-0.93.28-0.34.1h-0.33l-0.55.14-0.94.23-0.69.16h0l-0.54.11-1,.18-0.52.08h-0.16l-0.52.07-1,.12-0.53.06h-0.78l-1,.07h-2.9Zm0.1-78.83a36.34,36.34,0,1,0,36.34,36.34h0A36.37,36.37,0,0,0,116.54,66.78Z" transform="translate(0)" fill="#616263"/><path d="M117.15,61.36h1a0.62,0.62,0,0,0,.58.64h0a0.62,0.62,0,0,0,.65-0.58h0l1,0.07a0.62,0.62,0,0,0,.55.68h0.07a0.62,0.62,0,0,0,.62-0.55l0.94,0.12a0.62,0.62,0,0,0,.5.71h0.11a0.62,0.62,0,0,0,.62-0.52h0l0.93,0.17h0a0.62,0.62,0,0,0,.47.73h0.13a0.62,0.62,0,0,0,.6-0.49h0l0.93,0.29h0a0.62,0.62,0,0,0,.43.76h0.16a0.62,0.62,0,0,0,.59-0.46h0l0.92,0.27h0a0.62,0.62,0,0,0,.39.78h0.21a0.62,0.62,0,0,0,.59-0.42h0l0.89,0.31h0a0.62,0.62,0,0,0,.36.79h0a0.79,0.79,0,0,0,.8-0.4h0L133,64.63h0a0.62,0.62,0,0,0,1.13.51h0L135,65.55h0a0.62,0.62,0,0,0,1.1.57h0l0.83,0.46h0a0.62,0.62,0,0,0,1.07.62h0l0.81,0.49a0.62,0.62,0,0,0,1,.68h0l0.78,0.54a0.62,0.62,0,1,0,1,.72h0l0.76,0.58a0.62,0.62,0,0,0,1,.78L144,71.68a0.62,0.62,0,1,0,.92.83l0.69,0.65a0.62,0.62,0,0,0,.87.87l0.64,0.66a0.62,0.62,0,0,0,.83.92l0.62,0.72a0.62,0.62,0,1,0,.78,1h0L150,78a0.62,0.62,0,1,0,.72,1h0l0.59,0.81h0a0.62,0.62,0,1,0,.68,1h0l0.49,0.81a0.62,0.62,0,0,0,.62,1.07l0.46,0.83h0a0.63,0.63,0,1,0,.55,1.13h0l0.36,0.81h0a0.62,0.62,0,0,0,.51,1.13h0l0.36,0.88h0a0.64,0.64,0,1,0,.45,1.21h0c0.11,0.3.22,0.6,0.31,0.89h0a0.62,0.62,0,0,0,.19,1.21h0.19q0.14,0.46.28,0.92h0a0.62,0.62,0,0,0,.16,1.21H157q0.12,0.46.22,0.93h0a0.62,0.62,0,0,0,.13,1.21h0.13q0.1,0.47.17,0.93h0a0.62,0.62,0,0,0,.1,1.21h0.1L158,98.2a0.62,0.62,0,0,0,.07,1.21h0a4.29,4.29,0,0,0,.07,1,0.62,0.62,0,0,0,0,1.21h0v1a0.62,0.62,0,0,0,0,1.21v1h0a0.62,0.62,0,0,0,0,1.21,4.29,4.29,0,0,1-.07,1h0A0.62,0.62,0,0,0,158,108a3.78,3.78,0,0,1-.12.94h-0.1a0.62,0.62,0,0,0-.1,1.21h0l-0.17.93H157.4a0.62,0.62,0,0,0-.13,1.21h0l-0.22.93h-0.16a0.62,0.62,0,0,0-.16,1.21h0l-0.27.92h-0.19a0.62,0.62,0,0,0-.19,1.21h0l-0.31.89h0a0.64,0.64,0,1,0-.45,1.21h0l-0.36.88h0a0.62,0.62,0,1,0-.51,1.13h0l-0.41.86h0a0.62,0.62,0,1,0-.57,1.1h0l-0.46.83h0a0.62,0.62,0,0,0-.62,1.07l-0.49.81a0.62,0.62,0,0,0-.68,1h0l-0.54.78a0.62,0.62,0,1,0-.72,1l-0.58.76a0.62,0.62,0,0,0-.78,1l-0.62.72a0.63,0.63,0,0,0-.41-0.16,0.62,0.62,0,0,0-.42,1.07l-0.65.69a0.62,0.62,0,0,0-.87.87l-0.69.65a0.62,0.62,0,1,0-.92.83h0l-0.72.62a0.62,0.62,0,0,0-1,.78h0l-0.76.58a0.62,0.62,0,1,0-1,.72h0l-0.78.54a0.62,0.62,0,0,0-1,.68L138,139a0.62,0.62,0,0,0-1.07.62l-0.83.46h0a0.62,0.62,0,0,0-1.1.57h0l-0.86.41h0a0.62,0.62,0,0,0-1.13.51h0l-0.88.36h0a0.64,0.64,0,1,0-1.21.45h0l-0.89.31h0a0.62,0.62,0,0,0-.54-0.45h-0.19a0.62,0.62,0,0,0-.4.77h0l-0.92.27h0a0.62,0.62,0,0,0-.6-0.46h-0.16a0.62,0.62,0,0,0-.44.75h0l-0.93.22h0a0.62,0.62,0,0,0-.6-0.49h-0.12a0.62,0.62,0,0,0-.49.72h0l-0.93.17a0.62,0.62,0,0,0-.62-0.52H123a0.62,0.62,0,0,0-.52.7h0l-0.94.12a0.62,0.62,0,0,0-.62-0.55h-0.06a0.62,0.62,0,0,0-.56.67h0l-1,.07a0.62,0.62,0,0,0-.62-0.58h0a0.62,0.62,0,0,0-.59.64h-1a0.62,0.62,0,0,0-.62-0.62h-0.14a0.62,0.62,0,0,0-.49.6h-1a0.62,0.62,0,0,0-.58-0.64h0a0.62,0.62,0,0,0-.62.58l-1-.06a0.62,0.62,0,0,0-.55-0.67h-0.07a0.62,0.62,0,0,0-.62.55l-0.94-.12a0.62,0.62,0,0,0-.5-0.71H110a0.62,0.62,0,0,0-.62.52l-0.93-.17a0.62,0.62,0,0,0-.47-0.73h-0.14a0.62,0.62,0,0,0-.6.49h0l-0.93-.23h0a0.62,0.62,0,0,0-.43-0.76h-0.16a0.62,0.62,0,0,0-.59.46h0l-0.9-.25h0a0.62,0.62,0,0,0-.39-0.78h-0.21a0.62,0.62,0,0,0-.59.42h0l-0.89-.31h0a0.64,0.64,0,1,0-1.21-.45h0l-0.88-.36h0a0.62,0.62,0,0,0-.3-0.82h0a0.83,0.83,0,0,0-.82.36h0l-0.86-.41h0a0.62,0.62,0,1,0-1.1-.57l-0.83-.46a0.62,0.62,0,0,0-1.07-.62l-0.81-.49a0.62,0.62,0,0,0-.17-0.85h0a0.63,0.63,0,0,0-.86.18l-0.78-.54a0.62,0.62,0,1,0-1-.72L90.7,136a0.62,0.62,0,1,0-1-.78L89,134.62a0.62,0.62,0,0,0-.92-0.83h0l-0.69-.65a0.62,0.62,0,0,0-.87-0.87l-0.65-.69a0.62,0.62,0,1,0-.83-0.92l-0.62-.72a0.62,0.62,0,0,0-.78-1l-0.58-.76a0.62,0.62,0,1,0-.72-1l-0.54-.78a0.62,0.62,0,0,0-.68-1l-0.49-.81a0.62,0.62,0,0,0-.62-1.07l-0.46-.83a0.62,0.62,0,1,0-.57-1.1l-0.41-.86h0a0.62,0.62,0,1,0-.51-1.13h0l-0.36-.88h0a0.64,0.64,0,0,0-.45-1.21h0L77,116.63h0a0.62,0.62,0,0,0-.19-1.21H76.58q-0.1-.43-0.23-0.92h0a0.62,0.62,0,0,0-.16-1.21H76q-0.12-.46-0.22-0.93h0a0.62,0.62,0,0,0-.13-1.21H75.56q-0.1-.47-0.17-0.93a0.62,0.62,0,0,0-.1-1.21H75.2a8.36,8.36,0,0,0-.12-0.94,0.62,0.62,0,0,0-.07-1.21h0a4.29,4.29,0,0,0-.07-1,0.62,0.62,0,0,0,0-1.21h0q0-.47,0-1a0.62,0.62,0,0,0,0-1.21q0-.48,0-1h0a0.62,0.62,0,0,0,0-1.21,4.29,4.29,0,0,1,.07-1h0a0.62,0.62,0,0,0,.07-1.21,3.78,3.78,0,0,1,.12-0.94h0.08a0.62,0.62,0,0,0,.1-1.21l0.17-.93h0.13A0.62,0.62,0,0,0,75.81,94h0L76,93h0.16a0.62,0.62,0,0,0,.16-1.21h0l0.27-.92H76.8A0.62,0.62,0,0,0,77,89.7h0l0.31-.89h0a0.64,0.64,0,0,0,.45-1.21h0l0.36-.88h0a0.64,0.64,0,1,0,.52-1.17h0L79,84.69h0a0.62,0.62,0,1,0,.57-1.1h0l0.49-.82a0.62,0.62,0,0,0,.62-1.07h0l0.49-.81a0.62,0.62,0,0,0,.68-1h0l0.54-.78a0.62,0.62,0,0,0,.72-1h0l0.57-.75a0.62,0.62,0,0,0,.78-1l0.62-.72a0.62,0.62,0,1,0,.8-1L86.57,74a0.62,0.62,0,0,0,.87-0.87l0.69-.65A0.62,0.62,0,0,0,89,71.65h0l0.71-.58a0.62,0.62,0,1,0,1-.78h0l0.75-.58a0.62,0.62,0,1,0,1-.72h0l0.78-.54a0.62,0.62,0,0,0,1-.68l0.81-.49a0.62,0.62,0,0,0,1.07-.62h0L97,66.19a0.62,0.62,0,1,0,1.1-.57h0L99,65.21h0a0.62,0.62,0,0,0,1.13-.51h0l0.88-.36h0a0.64,0.64,0,0,0,1.21-.45h0l0.86-.31h0a0.62,0.62,0,0,0,.59.42h0.19a0.62,0.62,0,0,0,.44-0.75v0h0l0.92-.27h0a0.62,0.62,0,0,0,.59.46h0.16a0.62,0.62,0,0,0,.44-0.75v0h0l0.93-.22h0a0.62,0.62,0,0,0,.6.49H108a0.62,0.62,0,0,0,.49-0.72h0l0.93-.17a0.62,0.62,0,0,0,.62.52h0.1a0.62,0.62,0,0,0,.52-0.7h0l0.94-.12a0.62,0.62,0,0,0,.62.55h0.06a0.62,0.62,0,0,0,.56-0.67h0l0.93-.16a0.62,0.62,0,0,0,.62.58h0a0.62,0.62,0,0,0,.62-0.58h1a0.62,0.62,0,0,0,1.21,0m-0.59,78.75a37.06,37.06,0,1,0-37.06-37.06h0a37.06,37.06,0,0,0,37.06,37.06m-0.81-80.28h-2.88l-0.76.08-0.87.24h0l-0.62.08h0l-0.86.14-0.77.11h-0.27l-1.28.29-1.8.36h0l-0.48.22-0.92.23h0l-0.45.13h0l-0.64.22-0.83.25h0l-0.3.11h0l-0.86.35-1.21.43h0l-0.33.13h0L99,63.57l-0.6.25h0l-0.71.34h0l-0.7.41-1.38.66h0l-0.71.43-0.17.1h0L94.37,66l-0.68.41h0l-0.78.53-0.6.37h0l-0.51.35h0l-0.71.53-0.63.48h0L90,69h0l-0.62.52-0.65.52h0l-0.48.41h0L87.67,71,87,71.58h0L86.55,72h0L86,72.58l-0.59.58h0l-0.47.45h0l-0.59.68-0.48.53h0l-0.41.48h0L82.88,76l-0.45.54h0l-0.36.54h0l-0.46.64-0.53.57h0l-0.35.51h0l-0.35.54-0.55.82h0l-0.33.53h0l-0.4.71-0.43.72h0l-0.37.7-0.18.34h0L78,83.44l-0.3.78h0l-0.24.51h0l-0.59,1.4-0.37.8h0l-0.3.81L76,88.12h0v0.11l-0.18.51h0L75.5,89.94l-0.41,1.21h0L75,91.39v0.14h0l-0.1.37-0.14.51h0v0.21l-0.19.77h0l-0.29,1.44a2.72,2.72,0,0,0-.3.72h0l-0.11.77-0.14.84h0a2.27,2.27,0,0,1-.08.62h0l-0.07.87-0.08.75h0V100h0v1.62h0v0.64h0v1.62h0v0.64h0v1.6h0v0.64h0l0.08,0.74,0,1h0a2.27,2.27,0,0,0,.08.62h0l0.14,0.84L74,110.71h0l0.14,0.8v0.13h0l0.12,0.55,0.14,0.75h0v0.17h0l0.37,1.33,0.1,0.36h0v0.14l0.07,0.24h0l0.47,1.38,0.29,0.94h0L75.87,118v0.07h0l0.18,0.45,0.25,0.68h0L77,120.65l0.72,1.48h0l0.3,0.58,0.39,0.8h0L78.67,124h0l0.41,0.69,0.41,0.74h0L79.82,126h0l0.47,0.71,0.42,0.66h0l0.35,0.52h0l0.52,0.69L82,129.22h0l0.39,0.51h0l0.49,0.58L83.44,131h0l0.41,0.48h0L84.35,132l0.58,0.59h0l0.45,0.47h0l0.69,0.74,0.48,0.49h0L87,134.75h0l0.64,0.55,0.57,0.52h0l0.48,0.41h0l0.63,0.49L90,137.25h0l0.51,0.39h0l0.59,0.42,0.72,0.54h0L92.3,139h0L93,139.39l0.69,0.45h0l0.52,0.33h0l0.64,0.35,0.8,0.47h0l0.54,0.3h0L97,141.67,97.65,142h0l0.55,0.23h0l0.94,0.4,0.57,0.27h0l0.47,0.19h0l0.92,0.35,0.58,0.23h0l0.48,0.17h0l1.09,0.34,1.21,0.43h0l0.66,0.17,1,0.29h0l0.58,0.14h0l0.81,0.16,0.48,0.11h0.14l0.78,0.14h0l1,0.23,0.66,0.11h0l0.62,0.08h0l0.84,0.07,0.78,0.1h7.4l0.78-.1,0.84-.07h0l0.62-.08h0l0.76-.13,0.87-.12h0l0.65-.12h0l0.86-.19,0.71-.13h0l0.69-.17h0l0.8-.23,1-.27H129l0.76-.27,0.89-.27h0l0.7-.25h0l0.58-.37,1.1-.4h0.11l0.81-.37,1-.42h0l0.53-.25h0l0.64-.34,0.78-.39h0l0.57-.31h0l0.72-.43,0.71-.4h0l0.52-.33h0l0.72-.48,0.65-.41h0l0.51-.35h0l0.76-.57,0.57-.41h0l0.49-.39h0l0.53-.45,0.74-.58h0l0.48-.41h0l0.54-.51,0.66-.58h0l0.46-.43h0l0.52-.54,0.63-.6h0l0.45-.46h0l0.63-.71,0.46-.49h0l0.41-.48h0l0.53-.66,0.51-.6h0l0.39-.49h0l0.46-.64,0.51-.69h0l0.35-.51h0l0.42-.68,0.48-.71h0l0.41-.68,0.22-.36h0l0.11-.21,0.41-.69h0l0.37-.7,0.06-.4h0l0.11-.23v-0.1h0l0.23-.48,0.31-.64h0l0.37-.88,0.13-.3h0l0.11-.24h0l0.57-1.54,0.29-.71h0l0.28-.77h0l0.16-.51,0.31-.92h0l0.06-.21h0l0.28-1.12,0.16-.55h0v-0.08c0.08-.31.16-0.64,0.23-1v-0.08h0l0.11-.54,0.25-1.15h0v-0.28h0l0.11-.8,0.18-1.07h0v-0.37h0l0.07-.88,0.08-.75h0v-0.63h0v-1.62h0v-0.63h0v-1.6h0v-0.63h0V100h0V99.42h0l-0.08-.76-0.07-.88h0V97.41h0L159,96.32l-0.11-.8h0V95.26h0l-0.27-1.21L158.18,92l-0.06.06-0.06-.23L158,91.42h0V91.28l-0.22-.72h0l-0.3-.88-0.23-.74h0l-0.27-.75V88.08h0l-0.16-.4-0.4-1.07h0l-0.22-.52h0L156,85.55l-0.22-.49h0L155,83.5l-0.46-.93h0l-0.19-.35h0l-0.42-.7-0.41-.72h0l-0.31-.52h0l-0.41-.76-0.43-.69h0L152,78.32h0l-0.51-.68L151,77h0l-0.37-.49h0l-0.49-.59-0.54-.69h0l-0.41-.47h0l-0.51-.54-0.58-.66h0l-0.45-.39h0l-0.6-.58L146.52,72h0l-0.46-.43h0l-0.7-.6-0.52-.47h0l-0.48-.41h0l-0.69-.54-0.58-.48h0l-0.49-.4h0L142,68.25l-0.18-.13h0.6l-4.27-2.41-0.74-.45h0l-1.29-.64-0.72-.39h0L134.9,64h0l-0.78-.34L133,63.16h0L132.61,63h0L132,62.75l-0.6-.24h0l-0.88-.31h0L129.92,62l-0.81-.28h0l-0.27-.08h0l-0.94-.23L127,61.17h0L126.17,61l-1.79-.39h-0.27l-0.82-.12-1.06-.24h-0.37l-0.74-.07-0.84-.1h-4.55V59.89Zm0.81,78.84a35.61,35.61,0,1,1,35.61-35.61,35.61,35.61,0,0,1-35.61,35.61h0Z" transform="translate(0)" fill="#333"/><circle cx="116.54" cy="103.11" r="21.69" fill="#4f8699"/><circle cx="116.54" cy="103.11" r="19.52" fill="#4ba7af"/><circle cx="116.54" cy="103.11" r="10.85" fill="#58b6b4"/><circle cx="116.54" cy="103.11" r="5.43" fill="#4f8699"/><circle cx="123.81" cy="96.37" r="3.02" fill="#f5f6ca"/><g clip-path="url(#a6e79f12-ef99-417e-be87-c9e78016bb4b)"><g opacity="0.2"><polygon points="153.06 66.8 87.46 132.41 50.78 132.41 50.78 57.16 153.06 66.8" fill="#fff"/></g></g></g><g id="2a11a3cd-aa70-4dab-8637-de49755902a6" data-name="67899487-cd33-4fd6-ac18-c97569f7cb24"><circle cx="90.92" cy="64.12" r="1.76" fill="#333"/></g><g id="490ed88a-9763-446d-9031-d5e8a14b4caa" data-name="6667d47d-c156-4267-8786-c7c8d8439afb"><circle cx="142.99" cy="64.12" r="1.76" fill="#333"/></g><g id="1341f4b1-3714-4f25-91aa-20b7df88d464" data-name="6363a654-9e03-420b-93e3-c594887e50ee"><rect x="68.19" y="135.3" width="1.45" height="6.79" fill="#333"/></g><g id="b289f802-c80c-40da-8767-d309e9364816" data-name="ee087d4b-da5c-43cd-9c90-315e871303b5"><path d="M131.81,43.19a3.08,3.08,0,0,1-3.08,3.08h-23.3a3.08,3.08,0,0,1-3.08-3.08h0a3.08,3.08,0,0,1,3.08-3.08h23.3a3.08,3.08,0,0,1,3.08,3.08h0Z" transform="translate(0)" fill="#e2e2e2"/></g><g id="136736d2-f90e-4ee5-9ce4-d879421fcdbc" data-name="cc980ff5-5412-484c-be21-00fb862f11a4"><circle cx="68.29" cy="78.99" r="3.34" fill="#bb4d67"/><path d="M68.27,83.05A4.07,4.07,0,1,1,72.34,79h0A4.08,4.08,0,0,1,68.27,83.05Zm0-6.68A2.62,2.62,0,1,0,70.89,79h0A2.63,2.63,0,0,0,68.27,76.37Z" transform="translate(0)" fill="#333"/></g><g id="150905bb-f827-4ad0-8adc-b185e45c20f6" data-name="7fb8a78c-3bcd-444e-bda0-1218fb1d5dea"><path d="M42.88,58.42c2.71-1.21,5.51-.41,6.32,1s0.27,4.61-4.25,5.38-5.2-.13-5.61-1.4S39.93,59.68,42.88,58.42Z" transform="translate(0)" fill="#616263"/><path d="M42.17,65.85c-2.29,0-3.06-.82-3.51-2.18-0.49-1.56.59-4.46,3.93-5.9,3.12-1.34,6.26-.39,7.24,1.35a3.75,3.75,0,0,1,0,3.4c-0.43.9-1.63,2.51-4.77,3A17.75,17.75,0,0,1,42.17,65.85Zm3.43-7.24a6.15,6.15,0,0,0-2.41.52h0c-2.61,1.12-3.4,3.26-3.12,4.13s0.53,1.64,4.83.9a4.73,4.73,0,0,0,3.7-2.24,2.32,2.32,0,0,0,0-2.06,3.46,3.46,0,0,0-3-1.28v0Z" transform="translate(0)" fill="#333"/></g><g id="551e5244-c201-40d9-a169-0835449618e5" data-name="325f2755-c056-42e8-b0a1-6c0625bf23d8"><path d="M41.5,61.84a0.36,0.36,0,0,1-.3-0.55,7.24,7.24,0,0,1,4.54-2.55,0.36,0.36,0,1,1,.13.71,6.47,6.47,0,0,0-4.05,2.23A0.36,0.36,0,0,1,41.5,61.84Z" transform="translate(0)" fill="#e2e2e2"/></g><g id="2ce67512-dc5e-47cb-a07a-2b2c8c9878de" data-name="3941f798-eb37-4ae8-925e-3bb9fcf1ec61"><rect x="160.93" y="74.52" width="10.3" height="12.32" rx="1.03" ry="1.03" fill="#616263"/><path d="M170.2,87.58h-8.25a1.75,1.75,0,0,1-1.75-1.75V75.55a1.75,1.75,0,0,1,1.75-1.75h8.25a1.75,1.75,0,0,1,1.75,1.75V85.83a1.75,1.75,0,0,1-1.75,1.75h0Zm-8.25-12.32a0.3,0.3,0,0,0-.3.3V85.84a0.3,0.3,0,0,0,.3.3h8.25a0.3,0.3,0,0,0,.3-0.3V75.55a0.3,0.3,0,0,0-.3-0.3h-8.25Z" transform="translate(0)" fill="#333"/></g><g id="bd0a229f-b610-4a0a-8871-779b1373d861" data-name="05d0fed0-2b7f-4c79-bb67-710cfa727ff9"><path d="M38.66,57.4c4.61-1.38,8.77-1.76,11.73-2.64l0.77-.23a9,9,0,0,0-12.46,2.82Z" transform="translate(0)" fill="#616263"/><path d="M37,58.65L38,57a9.76,9.76,0,0,1,13.44-3.1l1.3,0.82-1.46.48-0.74.23c-1.35.4-3,.7-4.66,1a69.28,69.28,0,0,0-7.07,1.62Zm9.31-4.75a8.26,8.26,0,0,0-5.67,2.22c1.79-.43,3.47-0.76,5-1,1.21-.24,2.41-0.46,3.41-0.7A8.31,8.31,0,0,0,46.33,53.89Z" transform="translate(0)" fill="#333"/></g><g id="50940788-6819-42d8-83a1-a365022106ca" data-name="b453839a-5457-47f7-8fdb-d6568415c73d"><path d="M50.43,54.75a0.62,0.62,0,0,1,0-.59l-0.17-.08a0.62,0.62,0,0,1-1.15-.46H48.93a0.62,0.62,0,1,1-1.21-.28H47.55a0.62,0.62,0,0,1-1.21-.08H46.13a0.62,0.62,0,0,1-1.21.11H44.75a0.62,0.62,0,1,1-1.21.3H43.36a0.62,0.62,0,1,1-1.13.48h0l-0.17,0a0.62,0.62,0,1,1-1,.65l-0.14.11a0.62,0.62,0,1,1-.93.81h0l-0.13.13a0.62,0.62,0,0,1-.8.94L38.9,57a0.62,0.62,0,0,1,.22.24c4.43-1.21,8.44-1.66,11.27-2.51h0Z" transform="translate(0)" fill="#535454"/></g><g id="50adc251-7e18-4fe4-beb8-544995a2961a" data-name="bb1af54a-02c6-44a7-990d-385f8f03a7b4"><path d="M95.64,71.19a1.21,1.21,0,0,1-.37.36A0.9,0.9,0,0,1,94,71.41l-0.08-.12a1,1,0,0,1,.17-1.35l0.1-.07a1,1,0,0,1,.4-0.18l0.1,0.18a0.92,0.92,0,0,0-.37.16,0.72,0.72,0,0,0-.25,1l0.08,0.1a0.71,0.71,0,0,0,1,.28l0.09-.06a1,1,0,0,0,.29-0.27Z" transform="translate(0)" fill="#fff"/><path d="M94.92,69.46a2.61,2.61,0,0,1,.39-0.29A0.8,0.8,0,0,1,95.87,69a0.48,0.48,0,0,1,.33.23,0.51,0.51,0,0,1,0,.62h0a0.48,0.48,0,0,1,.45.18,3.1,3.1,0,0,0,.41.37l-0.22.13a2.57,2.57,0,0,1-.36-0.33A0.37,0.37,0,0,0,96,70.07h0l-0.21.12,0.45,0.71-0.25.16Zm0.69,0.62,0.18-.13a0.39,0.39,0,0,0,.2-0.51l0,0a0.37,0.37,0,0,0-.52-0.11l0,0a1,1,0,0,0-.21.16Z" transform="translate(0)" fill="#fff"/><path d="M97.67,69L97,69.36,97.35,70l0.74-.42,0.12,0.19-1,.54-1-1.7,0.92-.52,0.11,0.18-0.71.41,0.3,0.53,0.66-.37Z" transform="translate(0)" fill="#fff"/><path d="M98.47,68.9l0.1,0.64-0.23.12-0.29-2,0.27-.17,1.47,1.44L99.54,69l-0.46-.45ZM99,68.43L98.53,68l-0.25-.27h0a0.65,0.65,0,0,0,.07.36l0.08,0.54Z" transform="translate(0)" fill="#fff"/><path d="M99.41,67.18l-0.51.28-0.08-.19,1.31-.6,0.08,0.19-0.54.25,0.72,1.56-0.23.11Z" transform="translate(0)" fill="#fff"/><path d="M100.9,66.52l-0.54.23-0.08-.19,1.34-.54,0.07,0.23-0.55.23L101.82,68l-0.24.1Z" transform="translate(0)" fill="#fff"/><path d="M102.09,65.84l0.69,1.82-0.24.08-0.71-1.82Z" transform="translate(0)" fill="#fff"/><path d="M104.44,67a1.21,1.21,0,0,1-.46.25,0.9,0.9,0,0,1-1.17-.52l0-.11a1,1,0,0,1,.54-1.26l0.1,0a1,1,0,0,1,.47-0.07v0.22a0.9,0.9,0,0,0-.4,0,0.72,0.72,0,0,0-.5.89l0,0.11a0.71,0.71,0,0,0,.85.54L104,67a1,1,0,0,0,.36-0.21Z" transform="translate(0)" fill="#fff"/><path d="M106,65.58a0.92,0.92,0,0,1-.53,1.18l-0.06,0a0.89,0.89,0,0,1-1.09-.63l0-.08a0.93,0.93,0,0,1,.55-1.19h0a0.89,0.89,0,0,1,1.09.63Zm-1.45.45a0.64,0.64,0,1,0,.39-1,0.7,0.7,0,0,0-.43.89Z" transform="translate(0)" fill="#fff"/><path d="M106.57,66.48l-0.43-1.89,0.27-.06,0.83,0.82a5.42,5.42,0,0,1,.48.54h0c-0.08-.25-0.13-0.48-0.21-0.77l-0.18-.8h0.23L108,66.22h-0.25l-0.82-.83a6.19,6.19,0,0,1-.49-0.55h0c0.07,0.24.12,0.46,0.19,0.78l0.18,0.81Z" transform="translate(0)" fill="#fff"/><path d="M110.58,63.75h0.25L111,65.47l0.83-.1v0.21l-1.07.12Z" transform="translate(0)" fill="#fff"/><path d="M113.08,64.56h-0.76v0.7l0.84-.06V65.4l-1.1.08-0.14-1.94,1-.08v0.21l-0.71.17v0.62H113v0.11h0.06Z" transform="translate(0)" fill="#fff"/><path d="M113.54,65.44l-0.06-1.94h0.28l0.65,1a5.49,5.49,0,0,1,.37.63h0V63.47H115l0.06,1.94h-0.33l-0.65-1a6.23,6.23,0,0,1-.39-0.62h0v1.64h-0.24Z" transform="translate(0)" fill="#fff"/><path d="M115.38,65a0.89,0.89,0,0,0,.45.13,0.35,0.35,0,0,0,.41-0.28v0a0.42,0.42,0,0,0-.36-0.4,0.62,0.62,0,0,1-.51-0.55,0.55,0.55,0,0,1,.58-0.52H116a0.89,0.89,0,0,1,.43.1l-0.07.21a0.78,0.78,0,0,0-.37-0.1,0.31,0.31,0,0,0-.37.25v0a0.43,0.43,0,0,0,.39.39,0.6,0.6,0,0,1,.48.58,0.59,0.59,0,0,1-.62.56H115.8a1,1,0,0,1-.49-0.13Z" transform="translate(0)" fill="#fff"/><path d="M120.33,64.73l-0.76-.07-0.06.7,0.84,0.07v0.21l-1.09-.1,0.17-1.94,1,0.1v0.21l-0.84-.06v0.62l0.76,0.07Z" transform="translate(0)" fill="#fff"/><path d="M120.88,63.74l1,0.1V64l-0.8-.06-0.08.64,0.74,0.08v0.21L121,64.82l-0.11.88h-0.25Z" transform="translate(0)" fill="#fff"/><path d="M125.78,64.85l-0.7-.14-0.17.46h0.16a0.8,0.8,0,0,1,.37.18,0.53,0.53,0,0,1,.16.53,0.65,0.65,0,0,1-.78.49h0a0.92,0.92,0,0,1-.43-0.22l0.11-.18a0.84,0.84,0,0,0,.37.18,0.41,0.41,0,0,0,.51-0.27v0a0.45,0.45,0,0,0-.37-0.51h-0.33l0.31-.86,0.88,0.19Z" transform="translate(0)" fill="#fff"/><path d="M127.16,65.93c-0.16.62-.47,0.9-0.88,0.8s-0.45-.48-0.33-1.09a0.8,0.8,0,0,1,.8-0.79h0.06C127.23,65,127.36,65.35,127.16,65.93Zm-1-.22a0.66,0.66,0,0,0,.18.83,0.7,0.7,0,0,0,.57-0.66c0.12-.46.07-0.77-0.18-0.83s-0.37.17-.51,0.66h-0.06Z" transform="translate(0)" fill="#fff"/><path d="M127.55,66a1.59,1.59,0,0,1,.1-0.36l0.22,0.06v0.22h0a0.48,0.48,0,0,1,.49-0.11,0.41,0.41,0,0,1,.3.39h0a0.57,0.57,0,0,1,.21-0.13,0.48,0.48,0,0,1,.33,0,0.51,0.51,0,0,1,.29.65l0,0.06-0.24.78-0.29-.06,0.23-.76a0.38,0.38,0,0,0-.17-0.51,0.33,0.33,0,0,0-.35.13,0.41,0.41,0,0,0,0,.12l-0.28.82-0.24-.07,0.24-.81a0.33,0.33,0,0,0-.13-0.44l0,0a0.25,0.25,0,0,0-.37.27l-0.24.81-0.24-.07Z" transform="translate(0)" fill="#fff"/><path d="M129.88,66.68a1.28,1.28,0,0,1,.12-0.36l0.21,0.07-0.07.22h0a0.48,0.48,0,0,1,.51-0.08,0.41,0.41,0,0,1,.28.4h0a0.58,0.58,0,0,1,.21-0.12,0.47,0.47,0,0,1,.33,0,0.49,0.49,0,0,1,.26.65l0,0.07-0.29.77-0.23-.08,0.29-.76a0.38,0.38,0,0,0-.13-0.51,0.33,0.33,0,0,0-.36.11,0.42,0.42,0,0,0-.06.11l-0.3.81-0.23-.08,0.29-.78a0.33,0.33,0,0,0-.12-0.45h0a0.38,0.38,0,0,0-.45.24l-0.29.8-0.19,0Z" transform="translate(0)" fill="#fff"/><path d="M135.7,68.53h-0.37V68.33h0.47l0.19,0.1-0.88,1.66L134.89,70Z" transform="translate(0)" fill="#fff"/><path d="M135.82,70.29a0.17,0.17,0,1,1,.07.24A0.17,0.17,0,0,1,135.82,70.29Zm0.51-.89a0.17,0.17,0,1,1,.06.24,0.17,0.17,0,0,1-.06-0.24h0Z" transform="translate(0)" fill="#fff"/><path d="M137.57,69.58h-0.37V69.38h0.47l0.18,0.11-0.92,1.58L136.72,71Z" transform="translate(0)" fill="#fff"/><path d="M137.59,71.35a0.17,0.17,0,0,1,.24,0h0a0.18,0.18,0,1,1-.26,0h0Z" transform="translate(0)" fill="#fff"/><path d="M138.64,72.22l0.29-.42-0.72-.49,0.1-.13,1.38-.52,0.23,0.16-0.66,1,0.22,0.14-0.11.17-0.22-.14-0.29.42Zm0.4-.59,0.35-.52,0.17-.24h0l-0.29.14-0.74.27h0Z" transform="translate(0)" fill="#fff"/></g><g id="04fcdfc2-213e-4bcd-ab5a-144ac577ff17" data-name="81b20382-9638-4923-8a05-9f817f8945a9"><path d="M138,134.75a1.21,1.21,0,0,1,.36-0.37,0.92,0.92,0,0,1,1.29.14l0.07,0.11a1,1,0,0,1-.14,1.36l-0.09.07a1,1,0,0,1-.42.21L139,136a0.92,0.92,0,0,0,.36-0.17,0.72,0.72,0,0,0,.22-1l-0.08-.1a0.71,0.71,0,0,0-1-.27l-0.09.06a1,1,0,0,0-.29.3Z" transform="translate(0)" fill="#fff"/><path d="M138.83,136.47a2.63,2.63,0,0,1-.39.3,0.8,0.8,0,0,1-.55.18,0.48,0.48,0,0,1-.33-0.23,0.51,0.51,0,0,1,0-.62h0a0.48,0.48,0,0,1-.46-0.17,3.12,3.12,0,0,0-.42-0.36l0.22-.14a2.53,2.53,0,0,1,.36.31,0.37,0.37,0,0,0,.52.12h0l0.19-.13-0.46-.71,0.21-.13Zm-0.7-.6-0.22.14a0.39,0.39,0,0,0-.19.51l0,0a0.37,0.37,0,0,0,.53.05l0.05-.05a1,1,0,0,0,.19-0.16Z" transform="translate(0)" fill="#fff"/><path d="M136.08,137l0.65-.39-0.36-.6-0.72.43,0-.22,0.94-.55,1,1.68-0.9.54-0.11-.18,0.69-.41-0.31-.53-0.65.39Z" transform="translate(0)" fill="#fff"/><path d="M135.29,137.09l-0.11-.64,0.23-.12,0.34,2-0.27.14L134,137.1l0.24-.13,0.47,0.46Zm-0.47.47,0.43,0.41,0.25,0.27h0a0.59,0.59,0,0,0-.08-0.36l-0.1-.59Z" transform="translate(0)" fill="#fff"/><path d="M134.39,138.84l0.53-.27,0.1,0.19-1.29.63-0.1-.19,0.53-.27-0.78-1.51,0.23-.11Z" transform="translate(0)" fill="#fff"/><path d="M132.91,139.51l0.54-.24,0.08,0.19-1.33.58-0.07-.21,0.54-.24L132,138l0.23-.1Z" transform="translate(0)" fill="#fff"/><path d="M131.75,140.23L131,138.42l0.23-.1,0.72,1.81Z" transform="translate(0)" fill="#fff"/><path d="M129.38,139.11a1.21,1.21,0,0,1,.46-0.27,0.92,0.92,0,0,1,1.18.53l0,0.07a1,1,0,0,1-.49,1.27l-0.11,0a1,1,0,0,1-.47.07v-0.22a0.92,0.92,0,0,0,.4,0,0.72,0.72,0,0,0,.49-0.9l0-.12a0.71,0.71,0,0,0-.86-0.52l-0.12,0a1,1,0,0,0-.36.22Z" transform="translate(0)" fill="#fff"/><path d="M127.83,140.57a0.92,0.92,0,0,1,.52-1.19l0,0a0.89,0.89,0,0,1,1.11.6l0,0.09a0.93,0.93,0,0,1-.54,1.2h0a0.89,0.89,0,0,1-1.11-.6Zm1.44-.48a0.64,0.64,0,1,0-.36,1,0.7,0.7,0,0,0,.39-0.91Z" transform="translate(0)" fill="#fff"/><path d="M127.25,139.69l0.47,1.89-0.27.07-0.84-.81a5.52,5.52,0,0,1-.49-0.53h0a7.66,7.66,0,0,1,.22.77l0.19,0.8H126.3L125.83,140l0.24-.06,0.84,0.81a6.2,6.2,0,0,1,.51.54h0c-0.07-.23-0.13-0.46-0.22-0.77L127,139.7h0.25Z" transform="translate(0)" fill="#fff"/><path d="M123.3,142.5H123l-0.23-1.73-0.82.11v-0.21l1.07-.14Z" transform="translate(0)" fill="#fff"/><path d="M120.79,141.74l0.76-.07-0.07-.7-0.84.08v-0.21l1.09-.11,0.18,1.94-1,.1v-0.21l0.8-.07v-0.62l-0.76.07Z" transform="translate(0)" fill="#fff"/><path d="M120.3,140.87l0.1,1.94h-0.27l-0.68-1a5.53,5.53,0,0,1-.39-0.62h0a3.15,3.15,0,0,0,.07.8v0.82H118.9l-0.1-1.94h0.25l0.68,1a6.21,6.21,0,0,1,.4.63h0a4,4,0,0,0-.06-0.81v-0.83h0.23Z" transform="translate(0)" fill="#fff"/><path d="M118.47,141.26a0.89,0.89,0,0,0-.46-0.12,0.35,0.35,0,0,0-.39.3v0a0.42,0.42,0,0,0,.37.39,0.62,0.62,0,0,1,.52.54,0.55,0.55,0,0,1-.56.55h-0.05a0.88,0.88,0,0,1-.39-0.1l0.06-.21a0.77,0.77,0,0,0,.37.08,0.31,0.31,0,0,0,.36-0.26v0a0.43,0.43,0,0,0-.4-0.37,0.6,0.6,0,0,1-.51-0.57,0.59,0.59,0,0,1,.61-0.57h0.07a1,1,0,0,1,.49.12Z" transform="translate(0)" fill="#fff"/><path d="M112.88,141.6v0.84h0c0.08-.22.18-0.46,0.3-0.71l0.42-.92h0.19l0.24,1c0.07,0.28.12,0.54,0.16,0.77h0a8.32,8.32,0,0,1,.11-0.86l0.12-.83h0.24l-0.3,1.93h-0.31l-0.25-1c-0.06-.24-0.11-0.47-0.14-0.68h0a6.1,6.1,0,0,1-.27.64l-0.42.9h-0.31v-2h0.24v0.87Z" transform="translate(0)" fill="#fff"/><path d="M111.94,141.25l0.28-.58h0.25l-0.9,1.85h-0.3l-0.41-2h0.27l0.13,0.64Zm-0.66.11,0.12,0.58v0.36h0l0.14-.34,0.27-.53Z" transform="translate(0)" fill="#fff"/><path d="M110.27,142.35a3.62,3.62,0,0,1-.53,0A1.12,1.12,0,0,1,109,142a0.89,0.89,0,0,1-.16-0.74,1,1,0,0,1,.41-0.7,1.21,1.21,0,0,1,.89-0.13l0.45,0.1Zm0-1.74H110a0.75,0.75,0,0,0-1,.68,0.7,0.7,0,0,0,.49.86l0.16,0H110Z" transform="translate(0)" fill="#fff"/><path d="M107.55,140.79l0.74,0.16,0.14-.69-0.82-.18v-0.21l1.07,0.23L108.28,142l-1-.22v-0.21l0.78,0.17,0.13-.6L107.5,141Z" transform="translate(0)" fill="#fff"/><path d="M104.23,141l0.57-1.87,0.24,0.07-0.6,1.87Z" transform="translate(0)" fill="#fff"/><path d="M104.37,139l-0.63,1.85-0.27-.08-0.28-1.13a5.59,5.59,0,0,1-.13-0.71h0c-0.06.25-.13,0.48-0.23,0.77l-0.27.77-0.23-.07,0.69-1.86,0.24,0.08,0.27,1.13a6.14,6.14,0,0,1,.13.74h0c0.06-.24.13-0.46,0.24-0.77l0.27-.78Z" transform="translate(0)" fill="#fff"/><path d="M98.59,138.77l-0.23-.14,0.55-1.21a0.55,0.55,0,0,1,.66-0.42l0.16,0.06a0.81,0.81,0,0,1,.22.16l-0.12.17a0.59,0.59,0,0,0-.17-0.12c-0.21-.1-0.36-0.06-0.53.28Z" transform="translate(0)" fill="#fff"/><path d="M98.29,137.15l0.46-.45L99,136.82l-1.5,1.42-0.27-.14,0.31-2,0.24,0.12-0.1.64ZM97.62,137l-0.1.59a0.61,0.61,0,0,1-.07.36h0l0.25-.27,0.43-.41Z" transform="translate(0)" fill="#fff"/><path d="M96.33,137.59a2.91,2.91,0,0,1-.43-0.21,0.8,0.8,0,0,1-.4-0.41,0.53,0.53,0,0,1,0-.43,0.58,0.58,0,0,1,.34-0.29,0.81,0.81,0,0,1,.63.11l0.17,0.12,0.39-.68,0.22,0.12Zm0.25-.94-0.17-.12a0.42,0.42,0,0,0-.59.07l0,0.05a0.39,0.39,0,0,0,.13.53l0.08,0,0.22,0.1Z" transform="translate(0)" fill="#fff"/><path d="M95.61,135.64l0.49-.41,0.22,0.14-1.6,1.29-0.25-.16,0.48-2,0.23,0.14-0.16.63ZM95,135.46l-0.13.58a1.08,1.08,0,0,1-.11.35h0l0.28-.24,0.46-.37Z" transform="translate(0)" fill="#fff"/><path d="M94.73,134.35l-1.12,1.59-0.23-.16v-1.21a5.49,5.49,0,0,1,.07-0.72h0c-0.13.23-.27,0.42-0.43,0.68l-0.47.66-0.19-.13,1.12-1.59,0.21,0.14-0.06,1.21a6.24,6.24,0,0,1-.07.74h0c0.13-.21.25-0.41,0.45-0.68l0.48-.68Z" transform="translate(0)" fill="#fff"/></g></svg>