<svg id="3a5a6238-7c16-43d0-b2e6-3aa21fc99321" data-name="fc46291d-e828-4557-bbb9-8fe03762e756" xmlns="http://www.w3.org/2000/svg" width="199.75" height="199.75" viewBox="0 0 199.75 199.75"><title>skill-4</title><circle cx="99.88" cy="99.88" r="99.88" fill="#1c1c1c"/><path d="M101,103.49V94.17L92.9,98.83A9.49,9.49,0,0,0,101,103.49Z" transform="translate(-0.25 -0.09)" fill="#006289"/><rect x="98.4" y="64.03" width="5.22" height="4.77" fill="none"/><rect x="100.67" y="67.56" width="0.53" height="0.89" fill="#009ee2"/><rect x="100.67" y="65.98" width="0.53" height="0.89" fill="#009ee2"/><rect x="100.67" y="64.39" width="0.53" height="0.89" fill="#009ee2"/><rect x="103.87" y="68.89" width="4.62" height="5.22" transform="translate(-0.38 0.11) rotate(-0.11)" fill="none"/><rect x="107.3" y="71.3" width="0.86" height="0.53" transform="translate(-0.38 0.12) rotate(-0.11)" fill="#009ee2"/><rect x="105.75" y="71.32" width="0.86" height="0.53" transform="translate(-0.37 0.09) rotate(-0.1)" fill="#009ee2"/><rect x="104.22" y="71.31" width="0.86" height="0.53" transform="translate(-0.38 0.11) rotate(-0.11)" fill="#009ee2"/><rect x="108.49" y="68.86" width="4.62" height="5.22" transform="translate(-0.38 0.12) rotate(-0.11)" fill="none"/><rect x="111.92" y="71.3" width="0.86" height="0.51" transform="translate(-0.37 0.11) rotate(-0.1)" fill="#009ee2"/><rect x="110.38" y="71.28" width="0.86" height="0.53" transform="translate(-0.38 0.12) rotate(-0.11)" fill="#009ee2"/><rect x="108.84" y="71.31" width="0.86" height="0.53" transform="translate(-0.37 0.1) rotate(-0.1)" fill="#009ee2"/><rect x="113.12" y="68.85" width="4.62" height="5.22" transform="translate(-0.38 0.13) rotate(-0.11)" fill="none"/><rect x="116.55" y="71.27" width="0.86" height="0.53" transform="translate(-0.38 0.13) rotate(-0.11)" fill="#009ee2"/><rect x="115" y="71.29" width="0.86" height="0.53" transform="translate(-0.38 0.13) rotate(-0.11)" fill="#009ee2"/><rect x="113.47" y="71.29" width="0.86" height="0.53" transform="translate(-0.38 0.13) rotate(-0.11)" fill="#009ee2"/><rect x="117.74" y="68.86" width="4.62" height="5.22" transform="translate(-0.38 0.14) rotate(-0.11)" fill="none"/><rect x="121.18" y="71.28" width="0.86" height="0.53" transform="translate(-0.38 0.14) rotate(-0.11)" fill="#009ee2"/><rect x="119.63" y="71.28" width="0.86" height="0.53" transform="translate(-0.38 0.14) rotate(-0.11)" fill="#009ee2"/><rect x="118.1" y="71.27" width="0.86" height="0.53" transform="translate(-0.38 0.14) rotate(-0.11)" fill="#009ee2"/><rect x="122.37" y="68.84" width="4.62" height="5.22" transform="translate(-0.38 0.15) rotate(-0.11)" fill="none"/><rect x="125.8" y="71.25" width="0.86" height="0.51" transform="translate(-0.38 0.15) rotate(-0.11)" fill="#009ee2"/><rect x="124.24" y="71.28" width="0.86" height="0.53" transform="translate(-0.37 0.13) rotate(-0.1)" fill="#009ee2"/><rect x="122.71" y="71.3" width="0.86" height="0.53" transform="translate(-0.37 0.12) rotate(-0.1)" fill="#009ee2"/><rect x="126.99" y="68.82" width="4.62" height="5.22" transform="translate(-0.4 0.18) rotate(-0.12)" fill="none"/><rect x="130.41" y="71.28" width="0.86" height="0.53" transform="translate(-0.33 0.07) rotate(-0.07)" fill="#009ee2"/><rect x="128.63" y="71.17" width="0.86" height="0.51" fill="#009ee2"/><rect x="127.1" y="71.18" width="0.86" height="0.53" fill="#009ee2"/><rect x="139.13" y="68.09" width="4.19" height="5.22" transform="translate(-16.67 79.99) rotate(-30)" fill="none"/><rect x="142.07" y="69.81" width="0.78" height="0.51" transform="translate(-16.19 80.53) rotate(-30)" fill="#009ee2"/><rect x="140.87" y="70.51" width="0.78" height="0.51" transform="translate(-16.71 80.02) rotate(-30)" fill="#009ee2"/><rect x="139.67" y="71.2" width="0.78" height="0.53" transform="translate(-17.21 79.51) rotate(-30)" fill="#009ee2"/><rect x="143.32" y="66.28" width="4.2" height="5.23" transform="translate(-15.24 81.53) rotate(-29.89)" fill="none"/><rect x="145.69" y="67.72" width="0.78" height="0.51" transform="translate(-14.66 82.06) rotate(-30)" fill="#009ee2"/><rect x="144.49" y="68.43" width="0.78" height="0.51" transform="translate(-15.18 81.55) rotate(-30)" fill="#009ee2"/><rect x="143.29" y="69.11" width="0.78" height="0.53" transform="translate(-15.69 81.04) rotate(-30)" fill="#009ee2"/><rect x="146.38" y="63.91" width="4.19" height="5.22" transform="translate(-13.62 83.03) rotate(-29.99)" fill="none"/><rect x="149.33" y="65.64" width="0.78" height="0.53" transform="translate(-13.14 83.57) rotate(-29.99)" fill="#009ee2"/><rect x="148.12" y="66.32" width="0.78" height="0.53" transform="translate(-13.64 83.09) rotate(-30)" fill="#009ee2"/><rect x="146.92" y="67.02" width="0.78" height="0.53" transform="translate(-14.15 82.58) rotate(-30)" fill="#009ee2"/><rect x="149.99" y="61.83" width="4.19" height="5.22" transform="translate(-12.1 84.53) rotate(-29.98)" fill="none"/><rect x="152.93" y="63.53" width="0.78" height="0.51" transform="translate(-11.6 85.12) rotate(-30)" fill="#009ee2"/><rect x="151.75" y="64.22" width="0.78" height="0.53" transform="translate(-12.1 84.62) rotate(-30)" fill="#009ee2"/><rect x="150.53" y="64.92" width="0.78" height="0.51" transform="translate(-12.62 84.07) rotate(-29.99)" fill="#009ee2"/><rect x="148.59" y="58.81" width="4.49" height="5.22" fill="none"/><rect x="148.92" y="61.08" width="0.83" height="0.53" fill="#009ee2"/><rect x="150.41" y="61.08" width="0.83" height="0.53" fill="#009ee2"/><rect x="151.91" y="61.08" width="0.83" height="0.53" fill="#009ee2"/><rect x="144.08" y="58.81" width="4.49" height="5.22" fill="none"/><rect x="144.42" y="61.08" width="0.83" height="0.53" fill="#009ee2"/><rect x="145.92" y="61.08" width="0.83" height="0.53" fill="#009ee2"/><rect x="147.41" y="61.08" width="0.83" height="0.53" fill="#009ee2"/><rect x="139.59" y="58.81" width="4.49" height="5.22" fill="none"/><rect x="139.92" y="61.08" width="0.83" height="0.53" fill="#009ee2"/><rect x="141.42" y="61.08" width="0.83" height="0.53" fill="#009ee2"/><rect x="142.91" y="61.08" width="0.83" height="0.53" fill="#009ee2"/><rect x="135.1" y="58.81" width="4.49" height="5.22" fill="none"/><rect x="135.43" y="61.08" width="0.83" height="0.53" fill="#009ee2"/><rect x="136.92" y="61.08" width="0.83" height="0.53" fill="#009ee2"/><rect x="138.42" y="61.08" width="0.83" height="0.53" fill="#009ee2"/><rect x="130.6" y="58.81" width="4.49" height="5.22" fill="none"/><rect x="130.94" y="61.08" width="0.83" height="0.53" fill="#009ee2"/><rect x="132.42" y="61.08" width="0.83" height="0.53" fill="#009ee2"/><rect x="133.91" y="61.08" width="0.83" height="0.53" fill="#009ee2"/><rect x="126.1" y="58.81" width="4.49" height="5.22" fill="none"/><rect x="126.43" y="61.08" width="0.83" height="0.53" fill="#009ee2"/><rect x="127.93" y="61.08" width="0.83" height="0.53" fill="#009ee2"/><rect x="129.42" y="61.08" width="0.83" height="0.53" fill="#009ee2"/><rect x="121.6" y="58.81" width="4.49" height="5.22" fill="none"/><rect x="121.94" y="61.08" width="0.83" height="0.53" fill="#009ee2"/><rect x="123.44" y="61.08" width="0.83" height="0.53" fill="#009ee2"/><rect x="124.93" y="61.08" width="0.83" height="0.53" fill="#009ee2"/><rect x="117.11" y="58.81" width="4.49" height="5.22" fill="none"/><rect x="117.44" y="61.08" width="0.83" height="0.53" fill="#009ee2"/><rect x="118.93" y="61.08" width="0.83" height="0.53" fill="#009ee2"/><rect x="120.43" y="61.08" width="0.83" height="0.53" fill="#009ee2"/><rect x="112.62" y="58.81" width="4.49" height="5.22" fill="none"/><rect x="112.94" y="61.08" width="0.83" height="0.53" fill="#009ee2"/><rect x="114.44" y="61.08" width="0.83" height="0.53" fill="#009ee2"/><rect x="115.93" y="61.08" width="0.83" height="0.53" fill="#009ee2"/><rect x="108.11" y="58.81" width="4.49" height="5.22" fill="none"/><rect x="108.44" y="61.08" width="0.83" height="0.53" fill="#009ee2"/><rect x="109.95" y="61.08" width="0.83" height="0.53" fill="#009ee2"/><rect x="111.43" y="61.08" width="0.83" height="0.53" fill="#009ee2"/><rect x="103.62" y="58.81" width="4.49" height="5.22" fill="none"/><rect x="103.95" y="61.08" width="0.83" height="0.53" fill="#009ee2"/><rect x="105.44" y="61.08" width="0.83" height="0.53" fill="#009ee2"/><rect x="106.94" y="61.08" width="0.83" height="0.53" fill="#009ee2"/><rect x="100.79" y="69.15" width="0.53" height="0.88" fill="#009ee2"/><polygon points="100.79 71.6 100.79 70.72 101.31 70.72 101.31 71.07 101.66 71.07 101.66 71.6 100.79 71.6" fill="#009ee2"/><rect x="102.59" y="71.16" width="0.88" height="0.53" transform="translate(-0.37 0.09) rotate(-0.1)" fill="#009ee2"/><rect x="131.97" y="71.22" width="0.88" height="0.53" transform="translate(-0.37 0.14) rotate(-0.1)" fill="#009ee2"/><rect x="133.48" y="71.22" width="0.88" height="0.53" transform="translate(-0.37 0.14) rotate(-0.1)" fill="#009ee2"/><path d="M135.16,71.87l0.14-.5h0.31l0.18,0.19H136l0.14,0.08,0.14,0.08-0.29.43-0.11-.07h-0.11L135.58,72h-0.26Z" transform="translate(-0.25 -0.09)" fill="#009ee2"/><path d="M136.9,73.41V73.16L136.69,73h-0.08l-0.08-.11-0.08-.17,0.39-.35L137,72.48l0.13,0.17h0.11l0.22-.15L137.69,73Z" transform="translate(-0.25 -0.09)" fill="#009ee2"/><rect x="138.7" y="72.22" width="0.92" height="0.52" transform="translate(-17.86 78.89) rotate(-29.89)" fill="#009ee2"/><rect x="154.14" y="62.68" width="0.89" height="0.53" transform="translate(-11.01 85.63) rotate(-30)" fill="#009ee2"/><path d="M156.21,61.74l-0.45.77-0.46-.26,0.18-.31h-0.24l0.14-.5,0.45,0.17h0.24Z" transform="translate(-0.25 -0.09)" fill="#009ee2"/><rect x="153.49" y="61.23" width="0.89" height="0.53" fill="#009ee2"/><rect x="102.39" y="61.19" width="0.88" height="0.53" fill="#009ee2"/><polygon points="100.82 61.19 101.7 61.19 101.7 61.72 101.35 61.72 101.35 62.07 100.82 62.07 100.82 61.19" fill="#009ee2"/><rect x="100.82" y="62.76" width="0.53" height="0.88" fill="#009ee2"/><path d="M109.33,98.81l-8.18-4.72-0.14.08v9.32h0.11A9.5,9.5,0,0,0,109.33,98.81Z" transform="translate(-0.25 -0.09)" fill="#9c9b9b"/><path d="M66.21,73.71a2.89,2.89,0,0,1,.46-0.92h0A2.89,2.89,0,0,1,69,71.56h32.2v-10H58.54a2.91,2.91,0,0,1-2.48-4.42h0l6.47-11.21h38.71V40.06H60.91a2.89,2.89,0,0,0-2.34,1.18l-0.13.19h0s-10.6,17.87-10.7,18a3,3,0,0,0-.47,2.46l0.78,1.32" transform="translate(-0.25 -0.09)" fill="#9c9b9b"/><path d="M101,94.17V94L92.9,89.3a9.5,9.5,0,0,0,0,9.53Z" transform="translate(-0.25 -0.09)" fill="#009ee2"/><path d="M161.37,81.93l-20.23,35,5.15,3,20.87-36.46a2.88,2.88,0,0,0,.35-2.24h0l-0.31-.53-0.57-.81-9.64-17a2.78,2.78,0,0,0-.79-0.89l-0.71.42-3.83,2.16-0.18.11-3.76,2.17-8.53,4.92L137,73.08a2.92,2.92,0,0,1,.15,2.25,3,3,0,0,1-.4.78l-0.15.19-16.46,28.54,8.18,4.73s22.26-38.75,22.45-38.95a2.91,2.91,0,0,1,3.64-.18c0.35,0.25,7,11.42,7,11.42" transform="translate(-0.25 -0.09)" fill="none"/><rect x="157.82" y="81.36" width="4.73" height="5.22" transform="translate(7.15 180.64) rotate(-60.01)" fill="none"/><rect x="158.89" y="85.04" width="0.88" height="0.51" transform="matrix(0.5, -0.87, 0.87, 0.5, 5.56, 180.57)" fill="#009ee2"/><rect x="159.68" y="83.67" width="0.88" height="0.51" transform="translate(7.14 180.57) rotate(-60.01)" fill="#009ee2"/><rect x="160.47" y="82.32" width="0.88" height="0.51" transform="translate(8.71 180.58) rotate(-60.01)" fill="#009ee2"/><rect x="155.46" y="85.46" width="4.73" height="5.22" transform="translate(2.42 180.65) rotate(-60.01)" fill="none"/><rect x="156.52" y="89.14" width="0.88" height="0.51" transform="translate(0.83 180.57) rotate(-60.01)" fill="#009ee2"/><rect x="157.33" y="87.77" width="0.88" height="0.53" transform="translate(2.41 180.58) rotate(-60.01)" fill="#009ee2"/><rect x="158.11" y="86.41" width="0.88" height="0.53" transform="matrix(0.5, -0.87, 0.87, 0.5, 3.98, 180.58)" fill="#009ee2"/><rect x="153.09" y="89.55" width="4.73" height="5.22" transform="translate(-2.31 180.65) rotate(-60.01)" fill="none"/><rect x="154.15" y="93.23" width="0.88" height="0.51" transform="matrix(0.5, -0.87, 0.87, 0.5, -3.9, 180.56)" fill="#009ee2"/><rect x="154.95" y="91.86" width="0.88" height="0.51" transform="translate(-2.32 180.57) rotate(-60.01)" fill="#009ee2"/><rect x="155.75" y="90.52" width="0.88" height="0.51" transform="matrix(0.5, -0.87, 0.87, 0.5, -0.75, 180.58)" fill="#009ee2"/><rect x="150.74" y="93.66" width="4.73" height="5.22" transform="translate(-7.05 180.66) rotate(-60.01)" fill="none"/><rect x="151.79" y="97.33" width="0.88" height="0.51" transform="matrix(0.5, -0.87, 0.87, 0.5, -8.63, 180.57)" fill="#009ee2"/><rect x="152.59" y="95.96" width="0.88" height="0.53" transform="translate(-7.05 180.57) rotate(-60.01)" fill="#009ee2"/><rect x="153.37" y="94.6" width="0.88" height="0.53" transform="translate(-5.49 180.57) rotate(-60.01)" fill="#009ee2"/><rect x="148.37" y="97.76" width="4.73" height="5.22" transform="translate(-11.78 180.66) rotate(-60.01)" fill="none"/><rect x="149.44" y="101.43" width="0.88" height="0.51" transform="translate(-13.36 180.58) rotate(-60.01)" fill="#009ee2"/><rect x="150.21" y="100.06" width="0.88" height="0.51" transform="translate(-11.78 180.56) rotate(-60.01)" fill="#009ee2"/><rect x="151" y="98.71" width="0.88" height="0.51" transform="matrix(0.5, -0.87, 0.87, 0.5, -10.22, 180.57)" fill="#009ee2"/><rect x="146" y="101.86" width="4.73" height="5.22" transform="translate(-16.52 180.65) rotate(-60.01)" fill="none"/><rect x="147.07" y="105.52" width="0.88" height="0.51" transform="translate(-18.09 180.57) rotate(-60.01)" fill="#009ee2"/><rect x="147.86" y="104.15" width="0.88" height="0.53" transform="translate(-16.51 180.58) rotate(-60.01)" fill="#009ee2"/><rect x="148.64" y="102.8" width="0.88" height="0.53" transform="translate(-14.95 180.57) rotate(-60.01)" fill="#009ee2"/><rect x="143.63" y="105.95" width="4.73" height="5.22" transform="translate(-21.25 180.65) rotate(-60.01)" fill="none"/><rect x="144.72" y="109.62" width="0.88" height="0.53" transform="translate(-22.82 180.59) rotate(-60.01)" fill="#009ee2"/><rect x="145.5" y="108.25" width="0.88" height="0.53" transform="translate(-21.24 180.59) rotate(-60.01)" fill="#009ee2"/><rect x="146.28" y="106.9" width="0.88" height="0.51" transform="translate(-19.68 180.58) rotate(-60.01)" fill="#009ee2"/><rect x="141.27" y="110.05" width="4.73" height="5.22" transform="translate(-25.98 180.66) rotate(-60.01)" fill="none"/><rect x="142.34" y="113.72" width="0.88" height="0.51" transform="translate(-27.55 180.57) rotate(-60.01)" fill="#009ee2"/><rect x="143.13" y="112.34" width="0.88" height="0.53" transform="translate(-25.97 180.58) rotate(-60.01)" fill="#009ee2"/><rect x="143.91" y="110.99" width="0.88" height="0.53" transform="translate(-24.41 180.58) rotate(-60.01)" fill="#009ee2"/><rect x="141.13" y="118.1" width="5.22" height="0.72" transform="matrix(0.5, -0.87, 0.87, 0.5, -30.99, 183.56)" fill="none"/><rect x="143.63" y="118.57" width="0.51" height="0.14" transform="translate(-31.07 183.78) rotate(-59.98)" fill="#009ee2"/><rect x="143.43" y="118.44" width="0.53" height="0.14" transform="translate(-31.05 183.55) rotate(-59.98)" fill="#009ee2"/><rect x="143.22" y="118.32" width="0.53" height="0.14" transform="translate(-31.06 183.3) rotate(-59.98)" fill="#009ee2"/><polygon points="149.62 118.87 152 114.71 147.48 112.11 145.1 116.28 149.62 118.87" fill="none"/><polygon points="148.95 114.4 149.41 114.67 149.85 113.89 149.4 113.62 148.95 114.4" fill="#009ee2"/><polygon points="148.16 115.79 148.62 116.04 149.06 115.28 148.6 115.01 148.16 115.79" fill="#009ee2"/><polygon points="147.38 117.17 147.82 117.42 148.27 116.65 147.82 116.39 147.38 117.17" fill="#009ee2"/><polygon points="152 114.71 154.36 110.56 149.85 107.95 147.48 112.11 152 114.71" fill="none"/><polygon points="151.33 110.24 151.79 110.51 152.23 109.73 151.77 109.46 151.33 110.24" fill="#009ee2"/><polygon points="150.54 111.63 151 111.88 151.44 111.12 150.98 110.85 150.54 111.63" fill="#009ee2"/><polygon points="149.76 113.01 150.2 113.26 150.65 112.5 150.19 112.23 149.76 113.01" fill="#009ee2"/><polygon points="154.36 110.56 156.74 106.4 152.23 103.79 149.85 107.95 154.36 110.56" fill="none"/><polygon points="153.71 106.08 154.17 106.35 154.6 105.57 154.15 105.3 153.71 106.08" fill="#009ee2"/><polygon points="152.91 107.46 153.37 107.72 153.82 106.96 153.36 106.69 152.91 107.46" fill="#009ee2"/><polygon points="152.14 108.85 152.58 109.1 153.03 108.34 152.57 108.07 152.14 108.85" fill="#009ee2"/><polygon points="156.74 106.4 159.12 102.24 154.61 99.61 152.23 103.79 156.74 106.4" fill="none"/><polygon points="156.09 101.92 156.54 102.19 156.98 101.41 156.53 101.14 156.09 101.92" fill="#009ee2"/><polygon points="155.29 103.3 155.75 103.56 156.18 102.8 155.74 102.53 155.29 103.3" fill="#009ee2"/><polygon points="154.51 104.68 154.96 104.94 155.41 104.18 154.95 103.91 154.51 104.68" fill="#009ee2"/><polygon points="159.12 102.24 161.5 98.1 156.99 95.45 154.61 99.61 159.12 102.24" fill="none"/><polygon points="158.47 97.76 158.92 98.03 159.35 97.25 158.91 96.98 158.47 97.76" fill="#009ee2"/><polygon points="157.67 99.14 158.13 99.41 158.56 98.64 158.12 98.38 157.67 99.14" fill="#009ee2"/><polygon points="156.88 100.52 157.34 100.78 157.78 100.02 157.32 99.75 156.88 100.52" fill="#009ee2"/><polygon points="161.5 98.1 163.86 93.94 159.37 91.3 156.99 95.45 161.5 98.1" fill="none"/><polygon points="160.84 93.61 161.29 93.87 161.73 93.09 161.29 92.83 160.84 93.61" fill="#009ee2"/><polygon points="160.05 94.98 160.5 95.25 160.94 94.48 160.5 94.22 160.05 94.98" fill="#009ee2"/><polygon points="159.26 96.36 159.72 96.62 160.15 95.86 159.7 95.59 159.26 96.36" fill="#009ee2"/><polygon points="163.86 93.94 166.24 89.78 161.75 87.12 159.37 91.3 163.86 93.94" fill="none"/><polygon points="163.22 89.43 163.67 89.71 164.11 88.93 163.67 88.67 163.22 89.43" fill="#009ee2"/><polygon points="162.43 90.82 162.88 91.09 163.32 90.32 162.88 90.06 162.43 90.82" fill="#009ee2"/><polygon points="161.64 92.2 162.1 92.46 162.53 91.7 162.08 91.43 161.64 92.2" fill="#009ee2"/><polygon points="166.24 89.78 168.62 85.63 164.14 82.96 161.75 87.12 166.24 89.78" fill="none"/><polygon points="165.6 85.29 166.05 85.55 166.49 84.77 166.05 84.51 165.6 85.29" fill="#009ee2"/><polygon points="164.81 86.66 165.25 86.93 165.7 86.16 165.25 85.9 164.81 86.66" fill="#009ee2"/><polygon points="164.01 88.04 164.47 88.31 164.91 87.54 164.46 87.28 164.01 88.04" fill="#009ee2"/><path d="M168.87,85.72l0.42-.72a6.66,6.66,0,0,0,.6-1.25,6.38,6.38,0,0,0,.14-3.31h0l-1-1.71L164.5,81.3l0.43,0.77-0.56,1Z" transform="translate(-0.25 -0.09)" fill="none"/><polygon points="166.96 81.06 167.47 80.88 166.99 80.06 166.53 80.32 166.96 81.06" fill="#009ee2"/><path d="M167.31,82.61l0.5,0.08a3.76,3.76,0,0,0,.08-1h-0.51A3.13,3.13,0,0,1,167.31,82.61Z" transform="translate(-0.25 -0.09)" fill="#009ee2"/><polygon points="166.39 83.88 166.84 84.14 167.3 83.37 166.84 83.12 166.39 83.88" fill="#009ee2"/><polygon points="168.79 78.62 166.42 74.45 161.9 77.05 164.27 81.21 168.79 78.62" fill="none"/><polygon points="164.61 76.93 165.06 76.66 164.63 75.9 164.17 76.15 164.61 76.93" fill="#009ee2"/><polygon points="165.39 78.32 165.85 78.05 165.41 77.27 164.96 77.54 165.39 78.32" fill="#009ee2"/><polygon points="166.19 79.69 166.63 79.44 166.2 78.67 165.74 78.92 166.19 79.69" fill="#009ee2"/><polygon points="166.42 74.45 164.06 70.29 159.54 72.88 161.9 77.05 166.42 74.45" fill="none"/><polygon points="162.25 72.75 162.69 72.5 162.26 71.72 161.8 71.99 162.25 72.75" fill="#009ee2"/><polygon points="163.03 74.14 163.49 73.88 163.04 73.11 162.6 73.38 163.03 74.14" fill="#009ee2"/><polygon points="163.82 75.53 164.27 75.27 163.83 74.49 163.38 74.76 163.82 75.53" fill="#009ee2"/><polygon points="164.06 70.29 161.69 66.12 157.17 68.72 159.54 72.88 164.06 70.29" fill="none"/><polygon points="159.88 68.59 160.33 68.33 159.9 67.55 159.44 67.81 159.88 68.59" fill="#009ee2"/><polygon points="160.66 69.97 161.12 69.72 160.68 68.94 160.23 69.21 160.66 69.97" fill="#009ee2"/><polygon points="161.46 71.36 161.9 71.1 161.47 70.33 161.01 70.58 161.46 71.36" fill="#009ee2"/><polygon points="161.69 66.12 159.33 61.94 154.81 64.56 157.17 68.72 161.69 66.12" fill="none"/><polygon points="157.52 64.42 157.96 64.16 157.53 63.39 157.07 63.66 157.52 64.42" fill="#009ee2"/><polygon points="158.3 65.81 158.76 65.55 158.31 64.78 157.87 65.03 158.3 65.81" fill="#009ee2"/><polygon points="159.09 67.19 159.54 66.94 159.1 66.16 158.65 66.42 159.09 67.19" fill="#009ee2"/><rect x="150.57" y="61.37" width="4.52" height="5.22" transform="translate(-11.76 84.87) rotate(-29.99)" fill="none"/><rect x="151.08" y="64.42" width="0.83" height="0.51" transform="translate(-12.33 83.98) rotate(-29.88)" fill="#009ee2"/><polygon points="153.05 63.85 152.79 63.41 152.07 63.82 152.32 64.28 153.05 63.85" fill="#009ee2"/><rect x="153.68" y="62.94" width="0.83" height="0.51" transform="translate(-11.22 85.31) rotate(-29.96)" fill="#009ee2"/><rect x="146.67" y="63.65" width="4.52" height="5.22" transform="translate(-13.43 83.22) rotate(-29.99)" fill="none"/><rect x="147.17" y="66.68" width="0.83" height="0.51" transform="translate(-13.94 82.64) rotate(-29.99)" fill="#009ee2"/><rect x="148.47" y="65.94" width="0.83" height="0.51" transform="translate(-13.42 83.05) rotate(-29.94)" fill="#009ee2"/><polygon points="150.44 65.37 150.17 64.91 149.45 65.32 149.72 65.78 150.44 65.37" fill="#009ee2"/><rect x="143.32" y="66.16" width="4.54" height="5.23" transform="translate(-15.16 81.6) rotate(-29.89)" fill="none"/><rect x="143.25" y="68.93" width="0.83" height="0.51" transform="translate(-15.59 81.01) rotate(-30)" fill="#009ee2"/><rect x="144.55" y="68.19" width="0.83" height="0.53" transform="translate(-15.05 81.57) rotate(-30)" fill="#009ee2"/><rect x="145.85" y="67.43" width="0.83" height="0.51" transform="translate(-14.49 82.11) rotate(-30)" fill="#009ee2"/><rect x="138.85" y="68.16" width="4.52" height="5.22" transform="translate(-16.73 79.95) rotate(-30)" fill="none"/><rect x="139.35" y="71.19" width="0.83" height="0.53" transform="translate(-17.24 79.42) rotate(-30.02)" fill="#009ee2"/><rect x="140.64" y="70.45" width="0.83" height="0.51" transform="translate(-16.7 79.94) rotate(-30.01)" fill="#009ee2"/><rect x="142.51" y="70" width="0.84" height="0.52" transform="translate(-16.25 80.47) rotate(-29.89)" fill="#009ee2"/><path d="M134.63,74.55v0.08h0l0.08-.11h0l-0.25.38h0l-0.19.32-0.4.71-1.11,1.93,4.52,2.6,1.11-1.93,0.4-.71V77.71h0l-0.24.33h0l0.24-.35h0a10.86,10.86,0,0,0,.61-1.15Z" transform="translate(-0.25 -0.09)" fill="none"/><rect x="134.74" y="78.42" width="0.83" height="0.51" transform="translate(-0.81 156.3) rotate(-60)" fill="#009ee2"/><rect x="135.8" y="76.6" width="0.84" height="0.53" transform="translate(1.45 156.58) rotate(-60.11)" fill="#009ee2"/><path d="M137.11,75.9l-0.46-.25-0.17.31-0.1.13-0.07.1h0v0.11l0.45,0.26V76.45h0l0.1-.13A3.92,3.92,0,0,0,137.11,75.9Z" transform="translate(-0.25 -0.09)" fill="#009ee2"/><rect x="131.51" y="78.7" width="4.47" height="5.22" transform="translate(-3.79 156.39) rotate(-60)" fill="none"/><rect x="132.51" y="82.3" width="0.83" height="0.51" transform="translate(-5.28 156.3) rotate(-60)" fill="#009ee2"/><rect x="133.26" y="81.02" width="0.83" height="0.51" transform="translate(-3.8 156.31) rotate(-60)" fill="#009ee2"/><rect x="134" y="79.72" width="0.83" height="0.51" transform="translate(-2.3 156.31) rotate(-60)" fill="#009ee2"/><rect x="129.61" y="82.04" width="4.48" height="5.23" transform="translate(-7.49 156.7) rotate(-60.11)" fill="none"/><rect x="130.28" y="86.17" width="0.83" height="0.53" transform="translate(-9.75 156.31) rotate(-60)" fill="#009ee2"/><rect x="131.03" y="84.88" width="0.83" height="0.51" transform="translate(-8.25 156.31) rotate(-60)" fill="#009ee2"/><rect x="131.76" y="83.59" width="0.83" height="0.51" transform="translate(-6.77 156.31) rotate(-60)" fill="#009ee2"/><rect x="127.04" y="86.44" width="4.47" height="5.22" transform="translate(-12.72 156.39) rotate(-60)" fill="none"/><rect x="128.4" y="89.52" width="0.84" height="0.53" transform="translate(-13.46 156.65) rotate(-60.11)" fill="#009ee2"/><rect x="128.8" y="88.75" width="0.83" height="0.53" transform="translate(-12.73 156.32) rotate(-60)" fill="#009ee2"/><rect x="129.55" y="87.46" width="0.83" height="0.53" transform="translate(-11.23 156.33) rotate(-60)" fill="#009ee2"/><rect x="124.82" y="90.3" width="4.47" height="5.22" transform="translate(-17.18 156.39) rotate(-60)" fill="none"/><rect x="125.81" y="93.9" width="0.83" height="0.51" transform="translate(-18.68 156.3) rotate(-60)" fill="#009ee2"/><rect x="126.93" y="92.11" width="0.84" height="0.53" transform="translate(-16.44 156.67) rotate(-60.11)" fill="#009ee2"/><rect x="127.68" y="90.83" width="0.84" height="0.53" transform="translate(-14.96 156.67) rotate(-60.11)" fill="#009ee2"/><rect x="122.58" y="94.17" width="4.47" height="5.22" transform="translate(-21.65 156.39) rotate(-60)" fill="none"/><rect x="123.58" y="97.76" width="0.83" height="0.51" transform="translate(-23.14 156.3) rotate(-60)" fill="#009ee2"/><rect x="124.33" y="96.49" width="0.83" height="0.51" transform="translate(-21.66 156.31) rotate(-60)" fill="#009ee2"/><rect x="125.06" y="95.21" width="0.83" height="0.51" transform="translate(-20.18 156.31) rotate(-60)" fill="#009ee2"/><rect x="120.35" y="98.03" width="4.47" height="5.22" transform="translate(-26.11 156.39) rotate(-60)" fill="none"/><rect x="121.36" y="101.64" width="0.83" height="0.53" transform="translate(-27.61 156.32) rotate(-60)" fill="#009ee2"/><rect x="122.1" y="100.35" width="0.83" height="0.51" transform="translate(-26.12 156.31) rotate(-60)" fill="#009ee2"/><rect x="122.83" y="99.07" width="0.83" height="0.51" transform="translate(-24.64 156.31) rotate(-60)" fill="#009ee2"/><rect x="121.65" y="105.1" width="5.22" height="4.23" transform="matrix(0.5, -0.87, 0.87, 0.5, -30.99, 161.08)" fill="none"/><rect x="125.16" y="107.6" width="0.53" height="0.78" transform="translate(-31.07 162.47) rotate(-59.98)" fill="#009ee2"/><rect x="123.94" y="106.89" width="0.53" height="0.78" transform="translate(-31.06 161.06) rotate(-59.98)" fill="#009ee2"/><rect x="122.73" y="106.2" width="0.51" height="0.78" transform="translate(-31.08 159.66) rotate(-59.98)" fill="#009ee2"/><rect x="128.49" y="102.71" width="4.59" height="5.22" transform="translate(-25.99 166.02) rotate(-60.07)" fill="none"/><rect x="131.19" y="103.77" width="0.85" height="0.53" transform="translate(-24.46 166.1) rotate(-60.07)" fill="#009ee2"/><rect x="130.43" y="105.1" width="0.85" height="0.51" transform="translate(-25.99 166.1) rotate(-60.07)" fill="#009ee2"/><rect x="129.68" y="106.42" width="0.85" height="0.51" transform="translate(-27.51 166.12) rotate(-60.07)" fill="#009ee2"/><rect x="130.79" y="98.74" width="4.59" height="5.22" transform="translate(-21.41 166) rotate(-60.06)" fill="none"/><rect x="133.48" y="99.8" width="0.85" height="0.51" transform="translate(-19.88 166.06) rotate(-60.06)" fill="#009ee2"/><rect x="132.71" y="101.14" width="0.85" height="0.51" transform="translate(-21.42 166.07) rotate(-60.06)" fill="#009ee2"/><rect x="131.95" y="102.43" width="0.85" height="0.51" transform="translate(-22.91 166.08) rotate(-60.07)" fill="#009ee2"/><rect x="133.07" y="94.78" width="4.59" height="5.22" transform="translate(-16.85 165.96) rotate(-60.05)" fill="none"/><rect x="135.77" y="95.84" width="0.85" height="0.51" transform="translate(-15.31 166.04) rotate(-60.05)" fill="#009ee2"/><rect x="135" y="97.17" width="0.85" height="0.51" transform="translate(-16.84 166.04) rotate(-60.05)" fill="#009ee2"/><rect x="134.23" y="98.46" width="0.85" height="0.51" transform="translate(-18.34 166.04) rotate(-60.06)" fill="#009ee2"/><rect x="135.35" y="90.78" width="4.59" height="5.22" transform="translate(-12.24 165.94) rotate(-60.05)" fill="none"/><rect x="138.07" y="91.86" width="0.85" height="0.53" transform="translate(-10.73 166.01) rotate(-60.04)" fill="#009ee2"/><rect x="137.29" y="93.17" width="0.85" height="0.53" transform="translate(-12.25 166.02) rotate(-60.05)" fill="#009ee2"/><rect x="136.53" y="94.5" width="0.85" height="0.51" transform="translate(-13.77 166.02) rotate(-60.05)" fill="#009ee2"/><rect x="137.63" y="86.82" width="4.59" height="5.22" transform="translate(-7.67 165.91) rotate(-60.04)" fill="none"/><rect x="140.36" y="87.9" width="0.85" height="0.53" transform="translate(-6.17 165.99) rotate(-60.03)" fill="#009ee2"/><rect x="139.58" y="89.2" width="0.85" height="0.53" transform="translate(-7.67 165.99) rotate(-60.04)" fill="#009ee2"/><rect x="138.82" y="90.52" width="0.85" height="0.53" transform="translate(-9.19 165.99) rotate(-60.04)" fill="#009ee2"/><rect x="139.94" y="82.86" width="4.59" height="5.22" transform="translate(-3.12 165.87) rotate(-60.02)" fill="none"/><rect x="142.64" y="83.91" width="0.85" height="0.53" transform="translate(-1.59 165.94) rotate(-60.02)" fill="#009ee2"/><rect x="141.88" y="85.25" width="0.85" height="0.53" transform="translate(-3.12 165.96) rotate(-60.02)" fill="#009ee2"/><rect x="141.12" y="86.56" width="0.85" height="0.53" transform="translate(-4.63 165.97) rotate(-60.03)" fill="#009ee2"/><rect x="142.23" y="78.88" width="4.59" height="5.22" transform="translate(1.45 165.81) rotate(-60)" fill="none"/><rect x="144.94" y="79.95" width="0.85" height="0.53" transform="translate(2.96 165.88) rotate(-59.99)" fill="#009ee2"/><rect x="144.17" y="81.27" width="0.85" height="0.53" transform="translate(1.44 165.9) rotate(-60)" fill="#009ee2"/><rect x="143.41" y="82.58" width="0.85" height="0.53" transform="translate(-0.06 165.92) rotate(-60.01)" fill="#009ee2"/><rect x="144.53" y="74.91" width="4.59" height="5.22" transform="translate(5.97 165.72) rotate(-59.96)" fill="none"/><rect x="147.22" y="75.97" width="0.85" height="0.51" transform="translate(7.48 165.77) rotate(-59.95)" fill="#009ee2"/><rect x="146.46" y="77.29" width="0.85" height="0.53" transform="translate(5.99 165.81) rotate(-59.97)" fill="#009ee2"/><rect x="145.7" y="78.63" width="0.85" height="0.53" transform="translate(4.46 165.85) rotate(-59.98)" fill="#009ee2"/><polygon points="149.98 76.76 152.28 72.81 147.77 70.17 145.46 74.14 149.98 76.76" fill="none"/><polygon points="149.26 72.42 149.72 72.68 150.13 71.95 149.69 71.68 149.26 72.42" fill="#009ee2"/><rect x="148.75" y="73.32" width="0.85" height="0.53" transform="translate(10.42 165.6) rotate(-59.88)" fill="#009ee2"/><rect x="148" y="74.65" width="0.85" height="0.53" transform="translate(8.96 165.71) rotate(-59.92)" fill="#009ee2"/><path d="M152.51,73l0.19-.33h0a0.25,0.25,0,0,1,.15,0L155.34,68a5.45,5.45,0,0,0-3.17-.64,5.56,5.56,0,0,0-3.1,1.39A14.69,14.69,0,0,0,148,70.33Z" transform="translate(-0.25 -0.09)" fill="none"/><path d="M153,69.78V70.3a3.07,3.07,0,0,1,.72.17L153.9,70A3.69,3.69,0,0,0,153,69.78Z" transform="translate(-0.25 -0.09)" fill="#009ee2"/><path d="M151.39,70.08l0.24,0.46a2.92,2.92,0,0,1,.71-0.21l-0.08-.51A3.57,3.57,0,0,0,151.39,70.08Z" transform="translate(-0.25 -0.09)" fill="#009ee2"/><path d="M150.28,71.19l0.45,0.26a3.06,3.06,0,0,1,.38-0.57h0l-0.35-.39h0A4.17,4.17,0,0,0,150.28,71.19Z" transform="translate(-0.25 -0.09)" fill="#009ee2"/><path d="M152.86,72.61h0l-0.32-.28h0a0.33,0.33,0,0,1,.1.15h0l0.18,0.29,0.43,0.68,1.18,1.93,4.47-2.7-1.21-2L157.22,70,157,69.62c-0.14-.22-0.29-0.42-0.43-0.6l-0.24-.24h0L156,68.5h-0.1l-0.17-.11-0.32-.19Z" transform="translate(-0.25 -0.09)" fill="none"/><polygon points="155.97 72.85 155.52 73.13 155.96 73.85 156.41 73.57 155.97 72.85" fill="#009ee2"/><polygon points="155.17 71.56 154.72 71.83 155.17 72.54 155.61 72.28 155.17 71.56" fill="#009ee2"/><path d="M154.5,70.34l-0.31.43h0a1.57,1.57,0,0,1,.15.22l0.21,0.32L155,71A4.55,4.55,0,0,0,154.5,70.34Z" transform="translate(-0.25 -0.09)" fill="#009ee2"/><polygon points="154.19 75.31 156.54 79.23 161.02 76.56 158.66 72.61 154.19 75.31" fill="none"/><rect x="158.31" y="76.94" width="0.53" height="0.85" transform="translate(-17.47 92.26) rotate(-30.88)" fill="#009ee2"/><rect x="157.54" y="75.65" width="0.51" height="0.85" transform="translate(-16.89 92.01) rotate(-30.99)" fill="#009ee2"/><rect x="156.75" y="74.33" width="0.51" height="0.85" transform="translate(-16.28 91.9) rotate(-31.15)" fill="#009ee2"/><polygon points="156.54 79.23 158.88 83.16 163.38 80.52 161.02 76.56 156.54 79.23" fill="none"/><rect x="160.66" y="80.89" width="0.53" height="0.85" transform="translate(-19.22 93.3) rotate(-30.65)" fill="#009ee2"/><rect x="159.89" y="79.57" width="0.51" height="0.85" transform="translate(-18.64 92.94) rotate(-30.72)" fill="#009ee2"/><rect x="159.11" y="78.64" width="0.53" height="0.85" transform="translate(-18.28 92.26) rotate(-30.67)" fill="#009ee2"/><rect x="141.66" y="115.15" width="0.86" height="0.53" transform="translate(-29.14 180.7) rotate(-60.01)" fill="#009ee2"/><polygon points="140.62 116.92 141.06 116.17 141.51 116.43 141.34 116.74 141.63 116.91 141.37 117.35 140.62 116.92" fill="#009ee2"/><rect x="142.47" y="117.36" width="0.51" height="0.86" transform="translate(-30.92 182.35) rotate(-59.98)" fill="#009ee2"/><rect x="144.48" y="118.56" width="0.53" height="0.88" transform="translate(-30.95 184.69) rotate(-59.98)" fill="#009ee2"/><polygon points="146.1 120.13 145.35 119.7 145.61 119.24 145.92 119.42 146.09 119.12 146.54 119.38 146.1 120.13" fill="#009ee2"/><rect x="146.68" y="118.08" width="0.88" height="0.51" transform="translate(-28.91 187.16) rotate(-60.22)" fill="#009ee2"/><path d="M157.38,63l-0.46.26L156.78,63l-0.1-.15h0l0.43-.31v0.08l0.11,0.18Z" transform="translate(-0.25 -0.09)" fill="#009ee2"/><path d="M156.3,61.83L156.54,62l0.15,0.14h0l-0.38.38-0.15-.14h-0.1l-0.26-.45,0.25-.14,0.17-.1h0Z" transform="translate(-0.25 -0.09)" fill="#009ee2"/><rect x="155.01" y="62.38" width="0.57" height="0.53" transform="translate(-10.76 85.95) rotate(-30)" fill="#009ee2"/><rect x="138.66" y="72.39" width="0.82" height="0.53" transform="translate(-17.95 78.87) rotate(-29.89)" fill="#009ee2"/><path d="M136.75,73l0.71-.42,0.26,0.46-0.31.15h0v0.31l-0.5.13V73.32l-0.11-.25Z" transform="translate(-0.25 -0.09)" fill="#009ee2"/><path d="M137.14,74.35h0.51v0.9l-0.5-.13V74.35h0Z" transform="translate(-0.25 -0.09)" fill="#009ee2"/><rect x="120.66" y="103.01" width="0.88" height="0.53" transform="translate(-29.14 156.42) rotate(-60)" fill="#009ee2"/><polygon points="119.63 104.8 120.06 104.05 120.52 104.32 120.35 104.61 120.64 104.79 120.38 105.23 119.63 104.8" fill="#009ee2"/><rect x="121.47" y="105.24" width="0.53" height="0.86" transform="translate(-30.91 158.12) rotate(-59.98)" fill="#009ee2"/><rect x="126.53" y="108.19" width="0.53" height="0.88" transform="translate(-30.95 163.98) rotate(-59.98)" fill="#009ee2"/><polygon points="128.14 109.77 127.39 109.32 127.65 108.88 127.96 109.05 128.13 108.75 128.57 109 128.14 109.77" fill="#009ee2"/><rect x="128.71" y="107.72" width="0.88" height="0.51" transform="translate(-29.1 165.96) rotate(-60.08)" fill="#009ee2"/><path d="M92.9,89.3L101.07,94V84.46A9.49,9.49,0,0,0,92.9,89.3Z" transform="translate(-0.25 -0.09)" fill="#81cff4"/><rect x="98.4" y="136.77" width="5.22" height="4.73" fill="none"/><rect x="100.67" y="140.27" width="0.53" height="0.88" fill="#009ee2"/><rect x="100.67" y="138.7" width="0.53" height="0.88" fill="#009ee2"/><rect x="100.67" y="137.13" width="0.53" height="0.88" fill="#009ee2"/><rect x="98.4" y="141.51" width="5.22" height="4.73" fill="none"/><rect x="100.67" y="145.02" width="0.53" height="0.88" fill="#009ee2"/><rect x="100.67" y="143.43" width="0.53" height="0.88" fill="#009ee2"/><rect x="100.67" y="141.86" width="0.53" height="0.88" fill="#009ee2"/><rect x="98.4" y="146.24" width="5.22" height="4.73" fill="none"/><rect x="100.67" y="149.75" width="0.53" height="0.88" fill="#009ee2"/><rect x="100.67" y="148.18" width="0.53" height="0.88" fill="#009ee2"/><rect x="100.67" y="146.6" width="0.53" height="0.88" fill="#009ee2"/><rect x="102.45" y="147.03" width="4.62" height="5.22" transform="translate(-77.58 164.03) rotate(-59.55)" fill="none"/><rect x="105.18" y="148.1" width="0.86" height="0.51" transform="translate(-76.05 164.12) rotate(-59.55)" fill="#009ee2"/><rect x="104.41" y="149.43" width="0.86" height="0.53" transform="translate(-77.58 164.12) rotate(-59.55)" fill="#009ee2"/><rect x="103.63" y="150.76" width="0.86" height="0.51" transform="translate(-79.11 164.1) rotate(-59.55)" fill="#009ee2"/><rect x="104.8" y="143.06" width="4.62" height="5.22" transform="matrix(0.51, -0.86, 0.86, 0.51, -72.99, 164.09)" fill="none"/><rect x="107.53" y="144.12" width="0.86" height="0.53" transform="matrix(0.51, -0.86, 0.86, 0.51, -71.47, 164.19)" fill="#009ee2"/><rect x="106.74" y="145.45" width="0.86" height="0.51" transform="translate(-73 164.16) rotate(-59.55)" fill="#009ee2"/><rect x="105.96" y="146.76" width="0.86" height="0.53" transform="translate(-74.52 164.14) rotate(-59.55)" fill="#009ee2"/><rect x="107.14" y="139.08" width="4.62" height="5.22" transform="matrix(0.51, -0.86, 0.86, 0.51, -68.41, 164.15)" fill="none"/><rect x="109.85" y="140.15" width="0.86" height="0.51" transform="translate(-66.89 164.23) rotate(-59.55)" fill="#009ee2"/><rect x="109.08" y="141.47" width="0.86" height="0.51" transform="matrix(0.51, -0.86, 0.86, 0.51, -68.41, 164.22)" fill="#009ee2"/><rect x="108.3" y="142.78" width="0.86" height="0.53" transform="translate(-69.93 164.2) rotate(-59.55)" fill="#009ee2"/><rect x="109.48" y="135.1" width="4.62" height="5.22" transform="translate(-63.82 164.2) rotate(-59.55)" fill="none"/><rect x="112.21" y="136.15" width="0.86" height="0.53" transform="translate(-62.29 164.3) rotate(-59.55)" fill="#009ee2"/><rect x="111.43" y="137.47" width="0.86" height="0.53" transform="translate(-63.81 164.27) rotate(-59.55)" fill="#009ee2"/><rect x="110.65" y="138.8" width="0.86" height="0.53" transform="translate(-65.34 164.26) rotate(-59.55)" fill="#009ee2"/><rect x="111.82" y="131.11" width="4.62" height="5.22" transform="translate(-59.24 164.25) rotate(-59.55)" fill="none"/><rect x="114.54" y="132.17" width="0.86" height="0.53" transform="matrix(0.51, -0.86, 0.86, 0.51, -57.71, 164.35)" fill="#009ee2"/><rect x="113.77" y="133.49" width="0.86" height="0.53" transform="translate(-59.23 164.33) rotate(-59.55)" fill="#009ee2"/><rect x="113" y="134.82" width="0.86" height="0.53" transform="translate(-60.75 164.32) rotate(-59.55)" fill="#009ee2"/><rect x="114.16" y="127.14" width="4.62" height="5.22" transform="translate(-54.65 164.31) rotate(-59.55)" fill="none"/><rect x="116.89" y="128.18" width="0.86" height="0.53" transform="translate(-53.11 164.4) rotate(-59.55)" fill="#009ee2"/><rect x="116.1" y="129.51" width="0.86" height="0.51" transform="translate(-54.64 164.37) rotate(-59.55)" fill="#009ee2"/><rect x="115.33" y="130.84" width="0.86" height="0.53" transform="translate(-56.17 164.37) rotate(-59.55)" fill="#009ee2"/><rect x="116.51" y="123.16" width="4.62" height="5.22" transform="translate(-50.07 164.37) rotate(-59.55)" fill="none"/><rect x="119.24" y="124.21" width="0.86" height="0.53" transform="translate(-48.53 164.47) rotate(-59.55)" fill="#009ee2"/><rect x="118.45" y="125.54" width="0.86" height="0.53" transform="translate(-50.06 164.44) rotate(-59.55)" fill="#009ee2"/><rect x="117.66" y="126.85" width="0.86" height="0.51" transform="translate(-51.58 164.41) rotate(-59.55)" fill="#009ee2"/><rect x="118.84" y="119.18" width="4.62" height="5.22" transform="translate(-45.48 164.42) rotate(-59.55)" fill="none"/><rect x="121.57" y="120.24" width="0.86" height="0.51" transform="translate(-43.95 164.51) rotate(-59.55)" fill="#009ee2"/><rect x="120.8" y="121.55" width="0.86" height="0.51" transform="translate(-45.46 164.49) rotate(-59.55)" fill="#009ee2"/><rect x="120.01" y="122.88" width="0.86" height="0.51" transform="translate(-47 164.47) rotate(-59.55)" fill="#009ee2"/><rect x="121.18" y="115.19" width="4.62" height="5.22" transform="matrix(0.51, -0.86, 0.86, 0.51, -40.9, 164.47)" fill="none"/><rect x="123.9" y="116.24" width="0.86" height="0.51" transform="translate(-39.36 164.55) rotate(-59.55)" fill="#009ee2"/><rect x="123.13" y="117.58" width="0.86" height="0.51" transform="translate(-40.89 164.54) rotate(-59.55)" fill="#009ee2"/><rect x="122.35" y="118.9" width="0.86" height="0.51" transform="translate(-42.41 164.53) rotate(-59.55)" fill="#009ee2"/><rect x="123.52" y="111.22" width="4.62" height="5.22" transform="translate(-36.31 164.53) rotate(-59.55)" fill="none"/><rect x="126.25" y="112.27" width="0.86" height="0.51" transform="translate(-34.77 164.61) rotate(-59.55)" fill="#009ee2"/><rect x="125.46" y="113.59" width="0.86" height="0.51" transform="translate(-36.3 164.59) rotate(-59.55)" fill="#009ee2"/><rect x="124.7" y="114.91" width="0.86" height="0.53" transform="translate(-37.81 164.59) rotate(-59.55)" fill="#009ee2"/><rect x="121.64" y="105.1" width="5.22" height="4.21" transform="translate(-30.99 161.06) rotate(-59.98)" fill="none"/><rect x="122.8" y="106.05" width="0.53" height="0.78" transform="translate(-30.91 159.65) rotate(-59.98)" fill="#009ee2"/><rect x="124" y="106.75" width="0.53" height="0.78" transform="translate(-30.92 161.05) rotate(-59.98)" fill="#009ee2"/><rect x="125.23" y="107.45" width="0.51" height="0.78" transform="translate(-30.91 162.45) rotate(-59.98)" fill="#009ee2"/><polygon points="116.36 105.68 113.88 109.95 118.32 112.69 120.85 108.34 116.36 105.68" fill="none"/><polygon points="116.91 110.3 116.47 110.02 116 110.83 116.44 111.09 116.91 110.3" fill="#009ee2"/><polygon points="117.75 108.85 117.3 108.59 116.83 109.39 117.28 109.66 117.75 108.85" fill="#009ee2"/><polygon points="118.57 107.43 118.13 107.15 117.67 107.96 118.11 108.22 118.57 107.43" fill="#009ee2"/><polygon points="113.88 109.95 111.41 114.22 115.79 117.04 118.32 112.69 113.88 109.95" fill="none"/><polygon points="114.41 114.61 113.97 114.33 113.51 115.12 113.94 115.4 114.41 114.61" fill="#009ee2"/><polygon points="115.25 113.18 114.8 112.9 114.34 113.69 114.77 113.97 115.25 113.18" fill="#009ee2"/><polygon points="116.07 111.74 115.64 111.47 115.16 112.26 115.61 112.54 116.07 111.74" fill="#009ee2"/><polygon points="111.41 114.22 108.93 118.49 113.27 121.4 115.79 117.04 111.41 114.22" fill="none"/><polygon points="111.91 118.92 111.46 118.63 111 119.44 111.43 119.73 111.91 118.92" fill="#009ee2"/><polygon points="112.74 117.49 112.3 117.2 111.84 118 112.27 118.28 112.74 117.49" fill="#009ee2"/><polygon points="113.56 116.06 113.13 115.76 112.67 116.57 113.1 116.85 113.56 116.06" fill="#009ee2"/><polygon points="108.93 118.49 106.47 122.76 110.74 125.75 113.27 121.4 108.93 118.49" fill="none"/><polygon points="109.4 123.23 108.97 122.94 108.51 123.73 108.93 124.04 109.4 123.23" fill="#009ee2"/><polygon points="110.24 121.8 109.81 121.51 109.33 122.3 109.76 122.61 110.24 121.8" fill="#009ee2"/><polygon points="111.06 120.37 110.63 120.08 110.17 120.88 110.6 121.17 111.06 120.37" fill="#009ee2"/><polygon points="106.47 122.76 103.99 127.03 108.21 130.11 110.74 125.75 106.47 122.76" fill="none"/><polygon points="106.9 127.55 106.47 127.24 106.01 128.05 106.43 128.35 106.9 127.55" fill="#009ee2"/><polygon points="107.73 126.11 107.3 125.81 106.84 126.61 107.26 126.92 107.73 126.11" fill="#009ee2"/><polygon points="108.55 124.68 108.14 124.39 107.66 125.18 108.09 125.49 108.55 124.68" fill="#009ee2"/><polygon points="103.99 127.03 101.67 131.01 101.53 131.19 101.52 131.19 105.56 134.49 105.65 134.38 105.51 134.56 105.87 134.13 106.02 133.85 106.33 133.32 106.95 132.25 108.21 130.11 103.99 127.03" fill="none"/><polygon points="104.39 131.87 103.98 131.55 103.5 132.34 103.92 132.66 104.39 131.87" fill="#009ee2"/><polygon points="105.23 130.43 104.81 130.12 104.34 130.93 104.76 131.23 105.23 130.43" fill="#009ee2"/><polygon points="106.05 128.99 105.63 128.69 105.17 129.49 105.59 129.8 106.05 128.99" fill="#009ee2"/><rect x="100.79" y="151.58" width="0.53" height="1.49" fill="#009ee2"/><path d="M101.25,155.89v-0.21l-0.13-.21h0v-0.11h0v-1h0.53V155h0l-0.25-.11h0l0.1-.18,0.15-.25,0.45,0.26-0.38.64-0.26.45-0.08.14h0Z" transform="translate(-0.25 -0.09)" fill="#009ee2"/><rect x="102.06" y="152.57" width="1.49" height="0.51" transform="translate(-81.29 163.91) rotate(-59.55)" fill="#009ee2"/><rect x="126.95" y="110.85" width="0.88" height="0.53" transform="matrix(0.51, -0.86, 0.86, 0.51, -33.21, 164.53)" fill="#009ee2"/><polygon points="128.38 109.44 127.93 110.19 127.49 109.92 127.65 109.61 127.36 109.45 127.63 108.99 128.38 109.44" fill="#009ee2"/><rect x="126.48" y="108.31" width="0.51" height="0.88" transform="translate(-31.07 163.99) rotate(-59.98)" fill="#009ee2"/><rect x="121.44" y="105.36" width="0.53" height="0.86" transform="translate(-31.03 158.15) rotate(-59.98)" fill="#009ee2"/><polygon points="119.86 104.47 120.61 104.9 120.35 105.36 120.06 105.18 119.88 105.48 119.43 105.22 119.86 104.47" fill="#009ee2"/><polygon points="119.08 105.82 119.53 106.08 119.1 106.83 118.64 106.57 119.08 105.82" fill="#009ee2"/><path d="M103.36,133.06l0.36,0.38-0.13.11-0.13.11-0.15.11-0.17.1L103,134l-0.15.07-0.21-.47h0.25l0.14-.08,0.13-.1,0.11-.08Z" transform="translate(-0.25 -0.09)" fill="#009ee2"/><path d="M101.07,133.76H102l0.08,0.51h-0.4v0.45h-0.57v-1Z" transform="translate(-0.25 -0.09)" fill="#009ee2"/><rect x="100.82" y="135.39" width="0.53" height="0.96" fill="#009ee2"/><path d="M101.15,94.1l8.28-4.79a9.5,9.5,0,0,0-8.35-4.85H101V94Z" transform="translate(-0.25 -0.09)" fill="#fff"/><path d="M99.33,133c-0.18-.25-16.5-28.6-16.5-28.6l-8.25,4.7,21.1,36.6h-0.1a2.91,2.91,0,0,1-2.53,4.34H80.53L61.35,116.68l-5.11,2.95,19.7,34.22,0.56,1a2.85,2.85,0,0,0,.47.45,2.89,2.89,0,0,0,1.72.57H99.86a2.87,2.87,0,0,0,1.39-.38V134a2.92,2.92,0,0,1-1.59-.67A2.67,2.67,0,0,1,99.33,133Z" transform="translate(-0.25 -0.09)" fill="#fff"/><path d="M109.33,98.81a9.51,9.51,0,0,0,.1-9.5l-8.28,4.79Z" transform="translate(-0.25 -0.09)" fill="#d9d9d9"/><path d="M68.6,79.77L67.6,78l-0.4-.7-0.81-1.39h0l-0.06-.21a2.88,2.88,0,0,1-.13-2S48.12,63.37,48.12,63.27l2.21,3.84L52.56,71l0.56,1L55.48,76l0.32,0.56,18.78,32.56,8.25-4.76L68.61,79.81h0v0Z" transform="translate(-0.25 -0.09)" fill="#d9d9d9"/><g id="33fa9a5f-2d34-42f6-803f-56e46732315f" data-name="0e730841-3c07-4b8d-8289-a7ba09cb00f3"><g id="f6041cee-2591-4531-9bd8-4b32210e2a61" data-name="5aadabc1-abc7-4cf8-a424-c5848584ed6b"><polygon points="17.97 128.55 16.77 125.32 19.25 122.47 21.07 127.41 17.97 128.55" fill="#58b6b4"/><path d="M21.91,127.78l-4,1.47-1.44-3.92,3.18-3.65,2.26,6.13v0Zm-3.42.25,2.22-.82-1.38-3.75-1.77,2Z" transform="translate(-0.25 -0.09)" fill="#333"/></g><g id="c647fd7b-46bc-4abf-bb41-6b1e55980074" data-name="ce06bb88-27ff-4511-a67e-9a91a3589fd5"><path d="M16.72,143.55c-0.41-1.11,1.75-4.26,1.8-7.63a15.65,15.65,0,0,0-1-6.16c-0.3-.81.09-0.88,0.25-0.94l3.92-1.44c0.14-.05.49-0.27,0.8,0.55a15.65,15.65,0,0,0,3.19,5.3c2.24,2.53,5.91,3.51,6.32,4.64L16.7,143.5Z" transform="translate(-0.25 -0.09)" fill="#616263"/><path d="M32.61,138.19l-16.17,6-0.17-.46a5,5,0,0,1,.6-2.92A15.06,15.06,0,0,0,18,135.9a15.3,15.3,0,0,0-1-5.92l0-.07a1.39,1.39,0,0,1,0-1.08,0.88,0.88,0,0,1,.54-0.45l3.92-1.44a0.89,0.89,0,0,1,.73,0,1.39,1.39,0,0,1,.67.85l0,0.08A15.3,15.3,0,0,0,26,133a15.06,15.06,0,0,0,4.05,3,5,5,0,0,1,2.35,1.83l0.16,0.44h0Zm-15.44,4.69,14-5.17a13.91,13.91,0,0,0-1.55-.91,15.82,15.82,0,0,1-4.32-3.14A16.15,16.15,0,0,1,22,128.25L22,128.1a1.18,1.18,0,0,0-.11-0.3l-4,1.48a1.18,1.18,0,0,0,.11.3l0,0.08a16.15,16.15,0,0,1,1,6.25,15.82,15.82,0,0,1-1.24,5.19A13.91,13.91,0,0,0,17.17,142.88Z" transform="translate(-0.25 -0.09)" fill="#333"/></g><g id="cc917230-2f06-4f8f-b3fc-0a2f891f5fda" data-name="98b515d4-d97a-49b9-a8e5-ce011a20716d"><path d="M32.05,137.89a24.83,24.83,0,0,0-15.33,5.66c0.4,1.33.89,2.77,1.38,4.19a427.69,427.69,0,0,0,17.91,42,1.39,1.39,0,0,0,1.79.82l8.72-3.22a1.39,1.39,0,0,0,.82-1.79A427.69,427.69,0,0,0,33.71,142C33.17,140.57,32.61,139.21,32.05,137.89Z" transform="translate(-0.25 -0.09)" fill="#009ee2"/></g><g id="be66ab21-22c0-4d05-b04b-9f885894da73" data-name="4d2d46a0-09b2-4db4-9cc1-10c600e2ab10"><path d="M25.43,143.57a27.11,27.11,0,0,1,8.36-1.47l0-.13c-0.52-1.41-1.1-2.77-1.67-4.08a24.83,24.83,0,0,0-15.33,5.66c0.4,1.33.89,2.77,1.38,4.19l0,0.12A27.11,27.11,0,0,1,25.43,143.57Z" transform="translate(-0.25 -0.09)" fill="#333"/></g><g id="3abc63ff-251c-497d-afb5-c6b2164fcdb7" data-name="f05fbb67-85a9-4530-b760-1e8a01e84aa3"><path d="M46.68,187.74L37.91,191a1.81,1.81,0,0,1-2.31-1,431.66,431.66,0,0,1-17.92-42,44,44,0,0,1-1.39-4.22l-0.13-.35,0.24-.21A25.3,25.3,0,0,1,32,137.4h0.31l0.11,0.3c0.59,1.37,1.17,2.76,1.68,4.11a431.66,431.66,0,0,1,13.64,43.56,1.81,1.81,0,0,1-1,2.34Zm-29.42-44c0.42,1.33.86,2.65,1.29,3.87a430.72,430.72,0,0,0,17.87,41.89h0a0.86,0.86,0,0,0,1.11.51l8.78-3.24a0.86,0.86,0,0,0,.51-1.11h0a430.72,430.72,0,0,0-13.62-43.46c-0.48-1.31-.93-2.53-1.53-3.78A24.4,24.4,0,0,0,17.26,143.73Z" transform="translate(-0.25 -0.09)" fill="#333"/></g></g><rect x="77.2" y="190.11" width="4.9" height="5.23" transform="matrix(0.5, -0.87, 0.87, 0.5, -127.39, 165.66)" fill="none"/><rect x="79.28" y="191.63" width="0.9" height="0.53" transform="matrix(0.5, -0.87, 0.87, 0.5, -126.54, 164.69)" fill="#fff"/><rect x="78.47" y="193.03" width="0.9" height="0.53" transform="translate(-128.15 164.69) rotate(-59.94)" fill="#fff"/><rect x="77.66" y="194.43" width="0.9" height="0.53" transform="translate(-129.77 164.69) rotate(-59.94)" fill="#fff"/><rect x="79.62" y="185.9" width="4.9" height="5.23" transform="matrix(0.5, -0.87, 0.87, 0.5, -122.51, 165.65)" fill="none"/><rect x="81.72" y="187.41" width="0.9" height="0.53" transform="matrix(0.5, -0.87, 0.87, 0.5, -121.67, 164.7)" fill="#fff"/><rect x="80.92" y="188.81" width="0.9" height="0.53" transform="translate(-123.28 164.71) rotate(-59.94)" fill="#fff"/><rect x="80.11" y="190.21" width="0.9" height="0.53" transform="translate(-124.89 164.7) rotate(-59.94)" fill="#fff"/><rect x="82.05" y="181.66" width="4.9" height="5.23" transform="translate(-117.62 165.62) rotate(-60.11)" fill="none"/><rect x="84.17" y="183.19" width="0.9" height="0.53" transform="translate(-116.79 164.71) rotate(-59.94)" fill="#fff"/><rect x="83.34" y="184.61" width="0.9" height="0.51" transform="translate(-118.42 164.7) rotate(-59.94)" fill="#fff"/><rect x="82.54" y="185.99" width="0.9" height="0.51" transform="translate(-120.03 164.7) rotate(-59.94)" fill="#fff"/><rect x="83.74" y="178" width="4.88" height="5.22" transform="matrix(0.5, -0.87, 0.87, 0.5, -113.55, 164.64)" fill="none"/><rect x="86.61" y="178.97" width="0.9" height="0.51" transform="translate(-111.92 164.71) rotate(-59.94)" fill="#fff"/><rect x="85.79" y="180.38" width="0.9" height="0.51" transform="translate(-113.54 164.7) rotate(-59.94)" fill="#fff"/><rect x="84.99" y="181.78" width="0.9" height="0.51" transform="translate(-115.16 164.71) rotate(-59.94)" fill="#fff"/><rect x="86.88" y="173.2" width="4.9" height="5.23" transform="translate(-107.87 165.57) rotate(-60.11)" fill="none"/><rect x="89.06" y="174.75" width="0.9" height="0.53" transform="translate(-107.05 164.73) rotate(-59.94)" fill="#fff"/><rect x="88.24" y="176.16" width="0.9" height="0.51" transform="translate(-108.67 164.72) rotate(-59.94)" fill="#fff"/><rect x="87.42" y="177.55" width="0.9" height="0.51" transform="translate(-110.29 164.7) rotate(-59.94)" fill="#fff"/><rect x="89.31" y="168.98" width="4.9" height="5.23" transform="translate(-102.99 165.55) rotate(-60.11)" fill="none"/><rect x="91.49" y="170.52" width="0.9" height="0.51" transform="translate(-102.17 164.72) rotate(-59.94)" fill="#fff"/><rect x="90.68" y="171.93" width="0.9" height="0.51" transform="translate(-103.8 164.72) rotate(-59.94)" fill="#fff"/><rect x="89.86" y="173.34" width="0.9" height="0.51" transform="translate(-105.42 164.72) rotate(-59.94)" fill="#fff"/><rect x="91.74" y="164.75" width="4.9" height="5.23" transform="translate(-98.1 165.54) rotate(-60.11)" fill="none"/><rect x="93.93" y="166.32" width="0.9" height="0.51" transform="translate(-97.31 164.73) rotate(-59.94)" fill="#fff"/><rect x="93.13" y="167.72" width="0.9" height="0.51" transform="translate(-98.93 164.74) rotate(-59.94)" fill="#fff"/><rect x="92.32" y="169.13" width="0.9" height="0.51" transform="translate(-100.55 164.74) rotate(-59.94)" fill="#fff"/><rect x="94.15" y="160.52" width="4.9" height="5.23" transform="translate(-93.22 165.51) rotate(-60.11)" fill="none"/><rect x="96.39" y="162.09" width="0.9" height="0.51" transform="matrix(0.5, -0.87, 0.87, 0.5, -92.42, 164.75)" fill="#fff"/><rect x="95.57" y="163.5" width="0.9" height="0.51" transform="translate(-94.06 164.74) rotate(-59.94)" fill="#fff"/><rect x="94.75" y="164.9" width="0.9" height="0.51" transform="translate(-95.67 164.74) rotate(-59.94)" fill="#fff"/><rect x="96.57" y="156.3" width="4.9" height="5.23" transform="translate(-88.35 165.49) rotate(-60.11)" fill="none"/><rect x="98.82" y="157.87" width="0.9" height="0.51" transform="translate(-87.57 164.75) rotate(-59.94)" fill="#fff"/><rect x="98" y="159.28" width="0.9" height="0.51" transform="translate(-89.19 164.74) rotate(-59.94)" fill="#fff"/><rect x="97.2" y="160.68" width="0.9" height="0.51" transform="translate(-90.8 164.75) rotate(-59.94)" fill="#fff"/><rect x="98.98" y="152.07" width="4.9" height="5.23" transform="translate(-83.47 165.46) rotate(-60.11)" fill="none"/><rect x="101.26" y="153.64" width="0.9" height="0.51" transform="translate(-82.68 164.76) rotate(-59.94)" fill="#fff"/><rect x="100.44" y="155.06" width="0.9" height="0.51" transform="translate(-84.32 164.75) rotate(-59.94)" fill="#fff"/><rect x="99.63" y="156.45" width="0.9" height="0.51" transform="translate(-85.93 164.74) rotate(-59.94)" fill="#fff"/><rect x="94.6" y="190.72" width="4.74" height="5.22" transform="translate(-119.17 180.32) rotate(-59.94)" fill="none"/><rect x="97.38" y="191.72" width="0.88" height="0.51" transform="translate(-117.59 180.38) rotate(-59.94)" fill="#fff"/><rect x="96.59" y="193.09" width="0.88" height="0.53" transform="translate(-119.16 180.39) rotate(-59.94)" fill="#fff"/><rect x="95.81" y="194.46" width="0.88" height="0.53" transform="translate(-120.74 180.39) rotate(-59.94)" fill="#fff"/><rect x="96.97" y="186.6" width="4.74" height="5.22" transform="translate(-114.43 180.32) rotate(-59.94)" fill="none"/><rect x="99.76" y="187.62" width="0.88" height="0.51" transform="translate(-112.85 180.4) rotate(-59.94)" fill="#fff"/><rect x="98.98" y="188.99" width="0.88" height="0.53" transform="matrix(0.5, -0.87, 0.87, 0.5, -114.43, 180.41)" fill="#fff"/><rect x="98.17" y="190.36" width="0.88" height="0.51" transform="translate(-116.01 180.39) rotate(-59.94)" fill="#fff"/><rect x="99.34" y="182.5" width="4.74" height="5.22" transform="translate(-109.69 180.32) rotate(-59.94)" fill="none"/><rect x="102.14" y="183.52" width="0.88" height="0.53" transform="translate(-108.11 180.42) rotate(-59.94)" fill="#fff"/><rect x="101.34" y="184.88" width="0.88" height="0.51" transform="translate(-109.68 180.4) rotate(-59.94)" fill="#fff"/><rect x="100.56" y="186.24" width="0.88" height="0.53" transform="translate(-111.26 180.41) rotate(-59.94)" fill="#fff"/><rect x="101.72" y="178.38" width="4.74" height="5.22" transform="translate(-104.94 180.33) rotate(-59.94)" fill="none"/><rect x="104.51" y="179.41" width="0.88" height="0.53" transform="translate(-103.37 180.42) rotate(-59.94)" fill="#fff"/><rect x="103.72" y="180.78" width="0.88" height="0.53" transform="translate(-104.96 180.42) rotate(-59.94)" fill="#fff"/><rect x="102.94" y="182.14" width="0.88" height="0.53" transform="translate(-106.52 180.42) rotate(-59.94)" fill="#fff"/><rect x="104.1" y="174.28" width="4.74" height="5.22" transform="translate(-100.2 180.35) rotate(-59.94)" fill="none"/><rect x="106.88" y="175.3" width="0.88" height="0.51" transform="translate(-98.63 180.41) rotate(-59.94)" fill="#fff"/><rect x="106.09" y="176.66" width="0.88" height="0.53" transform="translate(-100.21 180.42) rotate(-59.94)" fill="#fff"/><rect x="105.31" y="178.02" width="0.88" height="0.51" transform="translate(-101.77 180.41) rotate(-59.94)" fill="#fff"/><rect x="106.48" y="170.18" width="4.74" height="5.22" transform="translate(-95.47 180.36) rotate(-59.94)" fill="none"/><rect x="109.26" y="171.2" width="0.88" height="0.51" transform="translate(-93.89 180.43) rotate(-59.94)" fill="#fff"/><rect x="108.48" y="172.56" width="0.88" height="0.53" transform="translate(-95.47 180.43) rotate(-59.94)" fill="#fff"/><rect x="107.68" y="173.94" width="0.88" height="0.51" transform="translate(-97.05 180.43) rotate(-59.94)" fill="#fff"/><rect x="108.85" y="166.08" width="4.74" height="5.22" transform="translate(-90.74 180.36) rotate(-59.94)" fill="none"/><rect x="111.64" y="167.08" width="0.88" height="0.51" transform="translate(-89.14 180.44) rotate(-59.94)" fill="#fff"/><rect x="110.86" y="168.45" width="0.88" height="0.51" transform="translate(-90.72 180.44) rotate(-59.94)" fill="#fff"/><rect x="110.05" y="169.82" width="0.88" height="0.51" transform="translate(-92.3 180.42) rotate(-59.94)" fill="#fff"/><rect x="111.22" y="161.96" width="4.74" height="5.22" transform="translate(-85.98 180.36) rotate(-59.94)" fill="none"/><rect x="114.02" y="162.97" width="0.88" height="0.53" transform="translate(-84.4 180.44) rotate(-59.94)" fill="#fff"/><rect x="113.22" y="164.35" width="0.88" height="0.51" transform="translate(-85.99 180.44) rotate(-59.94)" fill="#fff"/><rect x="112.44" y="165.72" width="0.88" height="0.53" transform="translate(-87.57 180.45) rotate(-59.94)" fill="#fff"/><rect x="113.6" y="157.86" width="4.74" height="5.22" transform="translate(-81.25 180.37) rotate(-59.94)" fill="none"/><rect x="116.41" y="158.86" width="0.88" height="0.53" transform="translate(-79.65 180.45) rotate(-59.94)" fill="#fff"/><rect x="115.6" y="160.23" width="0.88" height="0.51" transform="translate(-81.24 180.44) rotate(-59.94)" fill="#fff"/><rect x="114.81" y="161.6" width="0.88" height="0.51" transform="translate(-82.82 180.44) rotate(-59.94)" fill="#fff"/><rect x="115.99" y="153.74" width="4.74" height="5.22" transform="translate(-76.5 180.38) rotate(-59.94)" fill="none"/><rect x="118.76" y="154.77" width="0.88" height="0.51" transform="translate(-74.93 180.45) rotate(-59.94)" fill="#fff"/><rect x="117.98" y="156.13" width="0.88" height="0.51" transform="translate(-76.5 180.45) rotate(-59.94)" fill="#fff"/><rect x="117.19" y="157.5" width="0.88" height="0.51" transform="translate(-78.08 180.45) rotate(-59.94)" fill="#fff"/><rect x="118.94" y="148.96" width="4.76" height="5.23" transform="translate(-70.8 181.14) rotate(-60.11)" fill="none"/><rect x="121.14" y="150.67" width="0.88" height="0.51" transform="translate(-70.2 180.47) rotate(-59.94)" fill="#fff"/><rect x="120.36" y="152.03" width="0.88" height="0.51" transform="translate(-71.76 180.46) rotate(-59.94)" fill="#fff"/><rect x="119.57" y="153.39" width="0.88" height="0.51" transform="translate(-73.33 180.46) rotate(-59.94)" fill="#fff"/><rect x="120.73" y="145.52" width="4.74" height="5.22" transform="translate(-67.01 180.38) rotate(-59.94)" fill="none"/><rect x="123.53" y="146.56" width="0.88" height="0.51" transform="translate(-65.45 180.48) rotate(-59.94)" fill="#fff"/><rect x="122.74" y="147.92" width="0.88" height="0.53" transform="translate(-67.02 180.48) rotate(-59.94)" fill="#fff"/><rect x="121.94" y="149.28" width="0.88" height="0.51" transform="translate(-68.6 180.47) rotate(-59.94)" fill="#fff"/><rect x="123.1" y="141.43" width="4.74" height="5.22" transform="translate(-62.29 180.4) rotate(-59.94)" fill="none"/><rect x="125.9" y="142.45" width="0.88" height="0.51" transform="translate(-60.71 180.48) rotate(-59.94)" fill="#fff"/><rect x="125.11" y="143.81" width="0.88" height="0.53" transform="translate(-62.28 180.48) rotate(-59.94)" fill="#fff"/><rect x="124.32" y="145.18" width="0.88" height="0.51" transform="translate(-63.86 180.47) rotate(-59.94)" fill="#fff"/><rect x="125.49" y="137.32" width="4.74" height="5.22" transform="matrix(0.5, -0.87, 0.87, 0.5, -57.54, 180.41)" fill="none"/><rect x="128.28" y="138.34" width="0.88" height="0.51" transform="translate(-55.96 180.49) rotate(-59.94)" fill="#fff"/><rect x="127.49" y="139.7" width="0.88" height="0.53" transform="translate(-57.54 180.48) rotate(-59.94)" fill="#fff"/><rect x="126.7" y="141.07" width="0.88" height="0.53" transform="translate(-59.12 180.48) rotate(-59.94)" fill="#fff"/><rect x="127.87" y="133.22" width="4.74" height="5.22" transform="translate(-52.8 180.42) rotate(-59.94)" fill="none"/><rect x="130.66" y="134.23" width="0.88" height="0.53" transform="translate(-51.22 180.5) rotate(-59.94)" fill="#fff"/><rect x="129.86" y="135.59" width="0.88" height="0.51" transform="translate(-52.79 180.49) rotate(-59.94)" fill="#fff"/><rect x="129.08" y="136.96" width="0.88" height="0.53" transform="translate(-54.37 180.49) rotate(-59.94)" fill="#fff"/><rect x="130.25" y="129.1" width="4.74" height="5.22" transform="translate(-48.05 180.43) rotate(-59.94)" fill="none"/><rect x="133.04" y="130.12" width="0.88" height="0.53" transform="translate(-46.47 180.51) rotate(-59.94)" fill="#fff"/><rect x="132.25" y="131.49" width="0.88" height="0.51" transform="translate(-48.05 180.5) rotate(-59.94)" fill="#fff"/><rect x="131.46" y="132.86" width="0.88" height="0.53" transform="translate(-49.63 180.51) rotate(-59.94)" fill="#fff"/><rect x="132.61" y="125" width="4.74" height="5.22" transform="translate(-43.32 180.42) rotate(-59.94)" fill="none"/><rect x="135.4" y="126.03" width="0.88" height="0.51" transform="translate(-41.75 180.5) rotate(-59.94)" fill="#fff"/><rect x="134.61" y="127.39" width="0.88" height="0.53" transform="translate(-43.32 180.51) rotate(-59.94)" fill="#fff"/><rect x="133.83" y="128.75" width="0.88" height="0.51" transform="translate(-44.89 180.5) rotate(-59.94)" fill="#fff"/><rect x="134.99" y="120.88" width="4.74" height="5.22" transform="translate(-38.57 180.43) rotate(-59.94)" fill="none"/><rect x="137.78" y="121.91" width="0.88" height="0.51" transform="translate(-37 180.51) rotate(-59.94)" fill="#fff"/><rect x="136.98" y="123.28" width="0.88" height="0.51" transform="translate(-38.59 180.5) rotate(-59.94)" fill="#fff"/><rect x="136.2" y="124.64" width="0.88" height="0.51" transform="translate(-40.15 180.5) rotate(-59.94)" fill="#fff"/><rect x="137.37" y="116.79" width="4.74" height="5.22" transform="translate(-33.84 180.45) rotate(-59.94)" fill="none"/><rect x="140.17" y="117.8" width="0.88" height="0.53" transform="translate(-32.25 180.53) rotate(-59.94)" fill="#fff"/><rect x="139.36" y="119.18" width="0.88" height="0.51" transform="translate(-33.85 180.52) rotate(-59.94)" fill="#fff"/><rect x="138.58" y="120.53" width="0.88" height="0.53" transform="translate(-35.41 180.52) rotate(-59.94)" fill="#fff"/><rect x="99.76" y="193.7" width="4.74" height="5.22" transform="translate(-119.18 186.28) rotate(-59.94)" fill="none"/><rect x="102.56" y="194.72" width="0.88" height="0.51" transform="translate(-117.6 186.37) rotate(-59.94)" fill="#fff"/><rect x="101.77" y="196.1" width="0.88" height="0.53" transform="translate(-119.18 186.37) rotate(-59.94)" fill="#fff"/><rect x="102.15" y="189.6" width="4.74" height="5.22" transform="translate(-114.44 186.3) rotate(-59.94)" fill="none"/><rect x="104.93" y="190.62" width="0.88" height="0.51" transform="translate(-112.87 186.37) rotate(-59.94)" fill="#fff"/><rect x="104.14" y="191.97" width="0.88" height="0.53" transform="translate(-114.43 186.37) rotate(-59.94)" fill="#fff"/><rect x="103.35" y="193.35" width="0.88" height="0.51" transform="translate(-116.01 186.36) rotate(-59.94)" fill="#fff"/><rect x="104.53" y="185.49" width="4.74" height="5.22" transform="translate(-109.69 186.31) rotate(-59.94)" fill="none"/><rect x="107.32" y="186.5" width="0.88" height="0.53" transform="translate(-108.12 186.39) rotate(-59.94)" fill="#fff"/><rect x="106.52" y="187.88" width="0.88" height="0.51" transform="translate(-109.69 186.38) rotate(-59.94)" fill="#fff"/><rect x="105.74" y="189.24" width="0.88" height="0.53" transform="translate(-111.27 186.39) rotate(-59.94)" fill="#fff"/><rect x="106.9" y="181.39" width="4.74" height="5.22" transform="translate(-104.96 186.31) rotate(-59.94)" fill="none"/><rect x="109.7" y="182.39" width="0.88" height="0.53" transform="translate(-103.37 186.4) rotate(-59.94)" fill="#fff"/><rect x="108.91" y="183.76" width="0.88" height="0.53" transform="translate(-104.94 186.4) rotate(-59.94)" fill="#fff"/><rect x="108.11" y="185.13" width="0.88" height="0.53" transform="translate(-106.53 186.38) rotate(-59.94)" fill="#fff"/><rect x="109.27" y="177.27" width="4.74" height="5.22" transform="translate(-100.21 186.31) rotate(-59.94)" fill="none"/><rect x="112.06" y="178.3" width="0.88" height="0.51" transform="translate(-98.64 186.39) rotate(-59.94)" fill="#fff"/><rect x="111.27" y="179.67" width="0.88" height="0.53" transform="translate(-100.23 186.4) rotate(-59.94)" fill="#fff"/><rect x="110.49" y="181.03" width="0.88" height="0.51" transform="translate(-101.79 186.39) rotate(-59.94)" fill="#fff"/><rect x="111.65" y="173.17" width="4.74" height="5.22" transform="translate(-95.47 186.33) rotate(-59.94)" fill="none"/><rect x="114.44" y="174.2" width="0.88" height="0.51" transform="translate(-93.9 186.41) rotate(-59.94)" fill="#fff"/><rect x="113.66" y="175.56" width="0.88" height="0.53" transform="translate(-95.48 186.41) rotate(-59.94)" fill="#fff"/><rect x="112.86" y="176.91" width="0.88" height="0.51" transform="translate(-97.04 186.39) rotate(-59.94)" fill="#fff"/><rect x="114.03" y="169.07" width="4.74" height="5.22" transform="translate(-90.73 186.34) rotate(-59.94)" fill="none"/><rect x="116.81" y="170.08" width="0.88" height="0.51" transform="translate(-89.16 186.4) rotate(-59.94)" fill="#fff"/><rect x="116.02" y="171.45" width="0.88" height="0.51" transform="translate(-90.74 186.41) rotate(-59.94)" fill="#fff"/><rect x="115.23" y="172.82" width="0.88" height="0.51" transform="translate(-92.32 186.41) rotate(-59.94)" fill="#fff"/><rect x="116.41" y="164.96" width="4.74" height="5.22" transform="translate(-86 186.35) rotate(-59.94)" fill="none"/><rect x="119.2" y="165.98" width="0.88" height="0.53" transform="translate(-84.42 186.43) rotate(-59.94)" fill="#fff"/><rect x="118.41" y="167.34" width="0.88" height="0.51" transform="translate(-85.99 186.41) rotate(-59.94)" fill="#fff"/><rect x="117.62" y="168.7" width="0.88" height="0.53" transform="translate(-87.57 186.42) rotate(-59.94)" fill="#fff"/><rect x="118.77" y="160.84" width="4.74" height="5.22" transform="translate(-81.25 186.34) rotate(-59.94)" fill="none"/><rect x="121.58" y="161.87" width="0.88" height="0.53" transform="translate(-79.67 186.44) rotate(-59.94)" fill="#fff"/><rect x="120.77" y="163.24" width="0.88" height="0.51" transform="translate(-81.26 186.42) rotate(-59.94)" fill="#fff"/><rect x="119.99" y="164.61" width="0.88" height="0.51" transform="translate(-82.83 186.42) rotate(-59.94)" fill="#fff"/><rect x="121.15" y="156.74" width="4.74" height="5.22" transform="translate(-76.51 186.35) rotate(-59.94)" fill="none"/><rect x="123.95" y="157.76" width="0.88" height="0.51" transform="translate(-74.93 186.43) rotate(-59.94)" fill="#fff"/><rect x="123.16" y="159.12" width="0.88" height="0.51" transform="translate(-76.51 186.43) rotate(-59.94)" fill="#fff"/><rect x="122.37" y="160.49" width="0.88" height="0.51" transform="translate(-78.08 186.43) rotate(-59.94)" fill="#fff"/><rect x="124.11" y="151.92" width="4.76" height="5.23" transform="translate(-70.77 187.11) rotate(-60.11)" fill="none"/><rect x="126.33" y="153.66" width="0.88" height="0.51" transform="translate(-70.2 186.44) rotate(-59.94)" fill="#fff"/><rect x="125.53" y="155.02" width="0.88" height="0.51" transform="translate(-71.77 186.43) rotate(-59.94)" fill="#fff"/><rect x="124.74" y="156.39" width="0.88" height="0.51" transform="translate(-73.35 186.43) rotate(-59.94)" fill="#fff"/><rect x="125.92" y="148.53" width="4.74" height="5.22" transform="translate(-67.03 186.38) rotate(-59.94)" fill="none"/><rect x="128.69" y="149.56" width="0.88" height="0.51" transform="translate(-65.46 186.45) rotate(-59.94)" fill="#fff"/><rect x="127.91" y="150.93" width="0.88" height="0.53" transform="translate(-67.04 186.45) rotate(-59.94)" fill="#fff"/><rect x="127.12" y="152.27" width="0.88" height="0.51" transform="translate(-68.6 186.44) rotate(-59.94)" fill="#fff"/><rect x="128.3" y="144.43" width="4.74" height="5.22" transform="translate(-62.29 186.39) rotate(-59.94)" fill="none"/><rect x="131.08" y="145.45" width="0.88" height="0.51" transform="translate(-60.71 186.46) rotate(-59.94)" fill="#fff"/><rect x="130.29" y="146.81" width="0.88" height="0.53" transform="translate(-62.29 186.46) rotate(-59.94)" fill="#fff"/><rect x="129.51" y="148.17" width="0.88" height="0.51" transform="translate(-63.86 186.46) rotate(-59.94)" fill="#fff"/><rect x="130.65" y="140.32" width="4.74" height="5.22" transform="translate(-57.56 186.38) rotate(-59.94)" fill="none"/><rect x="133.45" y="141.34" width="0.88" height="0.51" transform="translate(-55.97 186.46) rotate(-59.94)" fill="#fff"/><rect x="132.66" y="142.7" width="0.88" height="0.53" transform="translate(-57.55 186.46) rotate(-59.94)" fill="#fff"/><rect x="131.88" y="144.07" width="0.88" height="0.53" transform="translate(-59.13 186.46) rotate(-59.94)" fill="#fff"/><rect x="133.04" y="136.22" width="4.74" height="5.22" transform="translate(-52.82 186.39) rotate(-59.94)" fill="none"/><rect x="135.84" y="137.22" width="0.88" height="0.53" transform="translate(-51.22 186.47) rotate(-59.94)" fill="#fff"/><rect x="135.03" y="138.59" width="0.88" height="0.51" transform="translate(-52.81 186.46) rotate(-59.94)" fill="#fff"/><rect x="134.25" y="139.96" width="0.88" height="0.53" transform="translate(-54.39 186.46) rotate(-59.94)" fill="#fff"/><rect x="135.42" y="132.1" width="4.74" height="5.22" transform="translate(-48.07 186.4) rotate(-59.94)" fill="none"/><rect x="138.22" y="133.12" width="0.88" height="0.53" transform="translate(-46.49 186.49) rotate(-59.94)" fill="#fff"/><rect x="137.41" y="134.49" width="0.88" height="0.51" transform="translate(-48.07 186.47) rotate(-59.94)" fill="#fff"/><rect x="136.63" y="135.84" width="0.88" height="0.53" transform="translate(-49.64 186.47) rotate(-59.94)" fill="#fff"/><rect x="137.8" y="128" width="4.74" height="5.22" transform="translate(-43.33 186.42) rotate(-59.94)" fill="none"/><rect x="140.59" y="129.01" width="0.88" height="0.51" transform="translate(-41.74 186.48) rotate(-59.94)" fill="#fff"/><rect x="139.8" y="130.37" width="0.88" height="0.53" transform="translate(-43.32 186.49) rotate(-59.94)" fill="#fff"/><rect x="139.01" y="131.75" width="0.88" height="0.51" transform="translate(-44.9 186.48) rotate(-59.94)" fill="#fff"/><rect x="140.18" y="123.88" width="4.74" height="5.22" transform="translate(-38.58 186.41) rotate(-59.94)" fill="none"/><rect x="142.96" y="124.92" width="0.88" height="0.51" transform="translate(-37.02 186.5) rotate(-59.94)" fill="#fff"/><rect x="142.17" y="126.29" width="0.88" height="0.51" transform="translate(-38.6 186.5) rotate(-59.94)" fill="#fff"/><rect x="141.39" y="127.63" width="0.88" height="0.51" transform="translate(-40.15 186.49) rotate(-59.94)" fill="#fff"/><rect x="142.54" y="119.78" width="4.74" height="5.22" transform="translate(-33.85 186.42) rotate(-59.94)" fill="none"/><rect x="145.34" y="120.8" width="0.88" height="0.53" transform="translate(-32.27 186.5) rotate(-59.94)" fill="#fff"/><rect x="144.54" y="122.18" width="0.88" height="0.51" transform="translate(-33.85 186.49) rotate(-59.94)" fill="#fff"/><rect x="143.77" y="123.53" width="0.88" height="0.53" transform="translate(-35.42 186.5) rotate(-59.94)" fill="#fff"/><rect x="127.73" y="108.42" width="5.22" height="4.59" transform="translate(-31.07 167.86) rotate(-59.9)" fill="none"/><rect x="131.35" y="111.13" width="0.53" height="0.85" transform="translate(-31.15 169.38) rotate(-59.9)" fill="#fff"/><rect x="130.02" y="110.36" width="0.53" height="0.85" transform="translate(-31.14 167.85) rotate(-59.9)" fill="#fff"/><rect x="128.71" y="109.61" width="0.53" height="0.85" transform="translate(-31.15 166.34) rotate(-59.9)" fill="#fff"/><rect x="131.7" y="110.74" width="5.22" height="4.59" transform="translate(-31.09 172.45) rotate(-59.9)" fill="none"/><rect x="135.32" y="113.43" width="0.53" height="0.85" transform="translate(-31.16 173.96) rotate(-59.9)" fill="#fff"/><rect x="133.99" y="112.67" width="0.53" height="0.85" transform="translate(-31.17 172.44) rotate(-59.9)" fill="#fff"/><rect x="132.68" y="111.9" width="0.53" height="0.85" transform="translate(-31.15 170.92) rotate(-59.9)" fill="#fff"/><rect x="135.66" y="113.04" width="5.22" height="4.59" transform="translate(-31.1 177.02) rotate(-59.9)" fill="none"/><rect x="139.29" y="115.74" width="0.51" height="0.85" transform="translate(-31.18 178.54) rotate(-59.9)" fill="#fff"/><rect x="137.96" y="114.96" width="0.53" height="0.85" transform="translate(-31.17 177.01) rotate(-59.9)" fill="#fff"/><rect x="136.65" y="114.2" width="0.53" height="0.85" transform="translate(-31.17 175.5) rotate(-59.9)" fill="#fff"/><rect x="139.64" y="115.33" width="5.22" height="4.59" transform="matrix(0.5, -0.87, 0.87, 0.5, -31.1, 181.61)" fill="none"/><rect x="141.95" y="117.28" width="0.53" height="0.85" transform="translate(-31.19 181.62) rotate(-59.9)" fill="#fff"/><rect x="140.62" y="116.51" width="0.53" height="0.85" transform="translate(-31.18 180.09) rotate(-59.9)" fill="#fff"/><rect x="143.6" y="117.64" width="5.22" height="4.59" transform="translate(-31.13 186.19) rotate(-59.9)" fill="none"/><rect x="147.23" y="120.34" width="0.53" height="0.85" transform="translate(-31.2 187.71) rotate(-59.9)" fill="#fff"/><rect x="145.91" y="119.58" width="0.51" height="0.85" transform="translate(-31.21 186.19) rotate(-59.9)" fill="#fff"/><rect x="144.59" y="118.81" width="0.51" height="0.85" transform="translate(-31.2 184.67) rotate(-59.9)" fill="#fff"/><rect x="147.58" y="119.94" width="5.22" height="4.59" transform="translate(-31.13 190.77) rotate(-59.9)" fill="none"/><rect x="151.21" y="122.64" width="0.53" height="0.85" transform="translate(-31.21 192.3) rotate(-59.9)" fill="#fff"/><rect x="149.89" y="121.88" width="0.51" height="0.85" transform="translate(-31.21 190.77) rotate(-59.9)" fill="#fff"/><rect x="148.57" y="121.12" width="0.51" height="0.85" transform="translate(-31.21 189.25) rotate(-59.9)" fill="#fff"/><rect x="151.55" y="122.25" width="5.22" height="4.59" transform="translate(-31.15 195.36) rotate(-59.9)" fill="none"/><rect x="155.17" y="124.95" width="0.53" height="0.85" transform="translate(-31.23 196.88) rotate(-59.9)" fill="#fff"/><rect x="153.85" y="124.18" width="0.53" height="0.85" transform="translate(-31.23 195.35) rotate(-59.9)" fill="#fff"/><rect x="152.53" y="123.41" width="0.53" height="0.85" transform="translate(-31.22 193.83) rotate(-59.9)" fill="#fff"/><rect x="155.52" y="124.53" width="5.22" height="4.59" transform="translate(-31.15 199.93) rotate(-59.9)" fill="none"/><rect x="159.15" y="127.24" width="0.53" height="0.85" transform="translate(-31.23 201.47) rotate(-59.9)" fill="#fff"/><rect x="157.83" y="126.47" width="0.53" height="0.85" transform="translate(-31.23 199.94) rotate(-59.9)" fill="#fff"/><rect x="156.5" y="125.72" width="0.53" height="0.85" transform="translate(-31.23 198.41) rotate(-59.9)" fill="#fff"/><rect x="159.49" y="126.85" width="5.22" height="4.59" transform="translate(-31.18 204.53) rotate(-59.9)" fill="none"/><rect x="163.11" y="129.56" width="0.51" height="0.85" transform="translate(-31.27 206.05) rotate(-59.9)" fill="#fff"/><rect x="161.79" y="128.79" width="0.53" height="0.85" transform="translate(-31.25 204.52) rotate(-59.9)" fill="#fff"/><rect x="160.48" y="128.02" width="0.53" height="0.85" transform="translate(-31.24 203.01) rotate(-59.9)" fill="#fff"/><rect x="163.46" y="129.14" width="5.22" height="4.59" transform="translate(-31.18 209.1) rotate(-59.9)" fill="none"/><rect x="167.09" y="131.85" width="0.53" height="0.85" transform="translate(-31.26 210.63) rotate(-59.9)" fill="#fff"/><rect x="165.77" y="131.08" width="0.51" height="0.85" transform="translate(-31.26 209.1) rotate(-59.9)" fill="#fff"/><rect x="164.45" y="130.32" width="0.53" height="0.85" transform="translate(-31.25 207.59) rotate(-59.9)" fill="#fff"/><rect x="167.43" y="131.46" width="5.22" height="4.59" transform="matrix(0.5, -0.87, 0.87, 0.5, -31.2, 213.69)" fill="none"/><rect x="171.05" y="134.15" width="0.51" height="0.85" transform="translate(-31.28 215.2) rotate(-59.9)" fill="#fff"/><rect x="169.74" y="133.39" width="0.53" height="0.85" transform="translate(-31.27 213.69) rotate(-59.9)" fill="#fff"/><rect x="168.41" y="132.62" width="0.53" height="0.85" transform="translate(-31.26 212.16) rotate(-59.9)" fill="#fff"/><rect x="171.78" y="132.69" width="5.23" height="4.61" transform="translate(-29.79 218.84) rotate(-60.11)" fill="none"/><rect x="175.05" y="136.46" width="0.51" height="0.85" transform="translate(-31.28 219.81) rotate(-59.9)" fill="#fff"/><rect x="173.71" y="135.68" width="0.51" height="0.85" transform="translate(-31.28 218.26) rotate(-59.9)" fill="#fff"/><rect x="172.39" y="134.93" width="0.53" height="0.85" transform="translate(-31.28 216.75) rotate(-59.9)" fill="#fff"/><rect x="175.37" y="136.05" width="5.22" height="4.59" transform="translate(-31.22 222.85) rotate(-59.9)" fill="none"/><rect x="179" y="138.75" width="0.53" height="0.85" transform="translate(-31.29 224.38) rotate(-59.9)" fill="#fff"/><rect x="177.68" y="137.99" width="0.53" height="0.85" transform="translate(-31.3 222.86) rotate(-59.9)" fill="#fff"/><rect x="176.35" y="137.22" width="0.53" height="0.85" transform="translate(-31.29 221.33) rotate(-59.9)" fill="#fff"/><rect x="179.74" y="137.26" width="5.23" height="4.61" transform="translate(-29.76 228.04) rotate(-60.11)" fill="none"/><rect x="182.97" y="141.06" width="0.51" height="0.85" transform="translate(-31.31 228.96) rotate(-59.9)" fill="#fff"/><rect x="181.65" y="140.29" width="0.51" height="0.85" transform="translate(-31.3 227.43) rotate(-59.9)" fill="#fff"/><rect x="180.32" y="139.53" width="0.51" height="0.85" transform="translate(-31.31 225.9) rotate(-59.9)" fill="#fff"/><rect x="183.32" y="140.65" width="5.22" height="4.59" transform="translate(-31.23 232.02) rotate(-59.9)" fill="none"/><rect x="186.94" y="143.36" width="0.53" height="0.85" transform="translate(-31.32 233.54) rotate(-59.9)" fill="#fff"/><rect x="185.62" y="142.58" width="0.53" height="0.85" transform="translate(-31.31 232.01) rotate(-59.9)" fill="#fff"/><rect x="184.29" y="141.83" width="0.53" height="0.85" transform="translate(-31.32 230.49) rotate(-59.9)" fill="#fff"/><rect x="188.28" y="144.13" width="0.51" height="0.85" transform="translate(-31.33 235.08) rotate(-59.9)" fill="#fff"/><g id="a39a68f3-4998-4533-a14d-0030de401be3" data-name="ac073c94-bcd0-42f5-bb50-e73f7f4954af"><polygon points="178.17 138.1 179.87 135.1 183.64 135.14 181.05 139.74 178.17 138.1" fill="#81cff4"/><path d="M181.46,140.47l-3.7-2.08,2.05-3.64,4.87,0ZM179.05,138l2.08,1.1,2-3.48-2.69,0Z" transform="translate(-0.25 -0.09)" fill="#333"/></g><g id="b7426cb3-8282-4f11-9064-64d76551fe29" data-name="3b511029-b73c-45b7-a514-aae55a4b917c"><path d="M166.07,146.67c0.55-1,4.37-1.42,7-3.56a15.65,15.65,0,0,0,4.08-4.73c0.4-.76.73-0.49,0.86-0.41l1.84,1,1.84,1c0.14,0.07.49,0.26,0.09,1a15.65,15.65,0,0,0-2,5.92c-0.49,3.33,1.13,6.78.57,7.83Z" transform="translate(-0.25 -0.09)" fill="#616263"/><path d="M180.43,155.33l-15-8.49,0.22-.42a5,5,0,0,1,2.6-1.44,15.07,15.07,0,0,0,4.48-2.25,15.3,15.3,0,0,0,3.89-4.55l0-.07a1.39,1.39,0,0,1,.79-0.73,0.88,0.88,0,0,1,.7.13l3.64,2.05a0.89,0.89,0,0,1,.49.54,1.39,1.39,0,0,1-.23,1.06l0,0.07a15.3,15.3,0,0,0-1.89,5.69,15.06,15.06,0,0,0,.39,5,5,5,0,0,1,.12,3l-0.22.42h0Zm-13.55-8.75,13,7.37a13.91,13.91,0,0,0-.29-1.84,15.82,15.82,0,0,1-.34-5.3,16.15,16.15,0,0,1,2-6l0-.06a1.18,1.18,0,0,0,.15-0.28h0l-3.64-2.05a1.18,1.18,0,0,0-.15.28l0,0.07a16.15,16.15,0,0,1-4.13,4.82,15.82,15.82,0,0,1-4.77,2.4A13.91,13.91,0,0,0,166.88,146.58Z" transform="translate(-0.25 -0.09)" fill="#333"/></g><g id="e3e88334-a0c9-4d9c-86b0-6a39a0411b15" data-name="526fd8c5-95b4-4568-89a0-8a1a7bff3cf2"><path d="M180.3,154.72a24.83,24.83,0,0,0-14.23-8c-0.75,1.18-1.55,2.47-2.3,3.77a427.69,427.69,0,0,0-20.45,40.77,1.39,1.39,0,0,0,.49,1.83l8.2,4.64a1.39,1.39,0,0,0,1.83-.49,427.69,427.69,0,0,0,24.41-38.53A43,43,0,0,0,180.3,154.72Z" transform="translate(-0.25 -0.09)" fill="#81cff4"/></g><g id="af39e332-080e-4f6b-bbcb-5dcc8e889ec3" data-name="da707f8b-0062-4c57-b8c9-619bb586a7ad"><path d="M171.69,153.35a27.11,27.11,0,0,1,6.55,5.46l0.07-.12,2.07-3.91a24.83,24.83,0,0,0-14.23-8c-0.75,1.18-1.55,2.47-2.3,3.77l-0.07.12A27.11,27.11,0,0,1,171.69,153.35Z" transform="translate(-0.25 -0.09)" fill="#333"/></g><g id="bc8675b5-7ae2-43ea-ba98-e16cc68b6f7e" data-name="15c04bc2-e5e1-4e63-a629-92adad98cb2f"><path d="M151.79,198.08l-8.2-4.64a1.81,1.81,0,0,1-.69-2.44,431.66,431.66,0,0,1,20.46-40.79c0.65-1.23,1.51-2.52,2.32-3.78l0.14-.27,0.3,0.05a25.3,25.3,0,0,1,14.54,8.22l0.21,0.24-0.15.28-2.08,3.92a431.66,431.66,0,0,1-24.42,38.55A1.81,1.81,0,0,1,151.79,198.08Zm14.51-50.89c-0.75,1.18-1.47,2.37-2.13,3.48a430.72,430.72,0,0,0-20.42,40.72h0a0.86,0.86,0,0,0,.32,1.18h0l8.18,4.71a0.86,0.86,0,0,0,1.18-.32h0a430.72,430.72,0,0,0,24.38-38.48l1.91-3.6A24.4,24.4,0,0,0,166.3,147.19Z" transform="translate(-0.25 -0.09)" fill="#333"/></g></svg>