<svg id="bbcd5144-654c-41c4-8374-e157d300a440" data-name="Capa 1" xmlns="http://www.w3.org/2000/svg" width="199.76" height="199.76" viewBox="0 0 199.76 199.76"><title>skill-3</title><g id="44e5ccc8-3d66-42a6-a6ff-3917951c1582" data-name="92040b5f-d790-4f4c-94c4-a38e60485252"><circle cx="99.88" cy="99.88" r="99.88" fill="#1c1c1c"/><path d="M87,138.28c2.31,2.74,1.25,6.05-1.88,6.85l-11.63,3c-3.13.8-4.41-.39-5.74-5.5-5.61-21.56-11.07-42.47-11.07-42.47-1.38-2.85.12-5.85,2.8-7.34l8.54-5a4.55,4.55,0,0,1,6.72,3.74S76.08,125.3,87,138.28Z" fill="#fff" stroke="#333" stroke-miterlimit="10"/><path d="M79.24,121.39a146.44,146.44,0,0,1-4.49-29.83A4.55,4.55,0,0,0,68,87.85l-8.54,5c-2.68,1.5-4.18,4.5-2.8,7.34,0,0,2.77,11.07,6.61,25.35Z" fill="#cacccc" stroke="#333" stroke-miterlimit="10"/><path d="M115.13,54.22C101,78.22,79.94,86,79.94,86c-14,3.65-24.74,6.2-32,8.31h0L54,117.61h0c7-1.83,16-4.16,32-8.31,0,0,24.88,1.12,46.15,11.26,2.32,1.11,6.34-1.35,5.09-6.16l-14.84-57C121.15,52.57,116.43,52,115.13,54.22Z" fill="#fff" stroke="#333" stroke-miterlimit="10"/><path d="M127.75,103.46c-21.27-10.14-43.4-.71-43.4-0.71-16,4.16-25,6.48-32,8.31H52.28L54,117.6h0c7-1.83,16-4.16,32-8.31,0,0,24.88,1.12,46.15,11.26,2.32,1.11,6.34-1.35,5.09-6.16l-4.52-17.08C134,102.12,130,104.57,127.75,103.46Z" fill="#cacccc"/><path d="M86.29,110.41a1.7,1.7,0,0,1-1.22,2.07L56.4,119.91c-0.91.24-2.78-.88-3.67-1.6-7.15-5.72-8.85-16.61-6.51-24.44a5.46,5.46,0,0,1,2.71-2.7L77.6,83.71a1.7,1.7,0,0,1,2.06,1.2Z" fill="#15446e" stroke="#333" stroke-miterlimit="10"/><path d="M82.19,101.4l-28.67,7.46c-0.91.24-2.78-.88-3.68-1.6a18.33,18.33,0,0,1-4.6-5.56c0.19,6.21,2.51,12.67,7.51,16.64,0.89,0.72,2.77,1.83,3.68,1.6l28.67-7.45a1.7,1.7,0,0,0,1.22-2.07L83.4,99.33A1.7,1.7,0,0,1,82.19,101.4Z" fill="#002a4c"/><path d="M116.17,51.75c-1.43,1.77-4.24,4.51-3.73,6.47l15.92,61.17c0.81,3.11,4.65,4.44,6.71,5.28,1.9,0.77,4.59-1,3.34-5.79l-16.79-64.5C120.37,49.57,117.45,50.15,116.17,51.75Z" fill="#15446e" stroke="#333" stroke-miterlimit="10"/><path d="M120.17,51.44l12.65,48.62c1.25,4.81-1.44,6.56-3.34,5.79-1.5-.61-3.94-1.48-5.47-3.11l4.33,16.65c0.81,3.11,4.65,4.44,6.71,5.28,1.9,0.77,4.59-1,3.34-5.79L121.6,54.38A6.55,6.55,0,0,0,120.17,51.44Z" fill="#002a4c"/><path d="M132.37,62.25a1,1,0,0,1-1-1.77l31-28.51a1,1,0,0,1,1.38,1.53h0L132.75,62A1,1,0,0,1,132.37,62.25Z" fill="#fff"/><path d="M164.82,79.12L139.9,85.6a1,1,0,0,1-.52-2l24.92-6.48A1,1,0,0,1,164.82,79.12Z" fill="#fff"/><path d="M186.09,122.22a1,1,0,0,1-.56,0l-41.4-12.62a1,1,0,1,1,.61-2h0l41.4,12.62A1,1,0,1,1,186.09,122.22Z" fill="#fff"/></g></svg>