<svg id="Capa_1" data-name="Capa 1" xmlns="http://www.w3.org/2000/svg" viewBox="0 0 317.34 35.43"><defs><style>.cls-1{opacity:0.79;}.cls-2{fill:#fff;}</style></defs><title>portafolio</title><g class="cls-1"><path class="cls-2" d="M3.84,25.3C4.39,31,8.56,32.2,10.69,32.2a6.7,6.7,0,0,0,6.84-6.52c0-4.81-4.12-5.87-8.09-7.17C6.66,17.67.69,15.91,0.69,9.44,0.6,3.38,5.64,0,10.87,0,15.13,0,20,2.36,20.59,8.84h-3.8c-0.42-2.22-1.53-5.6-6.06-5.6-3.42,0-6.24,2.32-6.24,5.88,0,4.16,3.33,5.18,8.51,6.94,3.24,1.25,8.33,3.05,8.33,9.35,0,5.6-4.21,10-10.59,10C5,35.43.23,31.83,0,25.3H3.84Z"/><path class="cls-2" d="M26.46,0.6h19V4H30.25V15.87H45.33v3.37H30.25V31.46H45.43v3.38h-19V0.6Z"/><path class="cls-2" d="M51.49,0.6h9c3.1,0,5.23.56,6.75,1.62C70,3.79,71,6.66,71,9.34a7.69,7.69,0,0,1-4.58,7.26,8.78,8.78,0,0,1,6.57,8.7,8.67,8.67,0,0,1-4.67,8c-2,1.25-4,1.52-7.36,1.52H51.49V0.6Zm3.79,14.8h5.18a9.5,9.5,0,0,0,4-.69,5.24,5.24,0,0,0,2.77-5.09,5.17,5.17,0,0,0-2.77-4.86A9.28,9.28,0,0,0,60.23,4H55.28V15.4Zm0,16.05h6.2a11.38,11.38,0,0,0,4.16-.65,5.82,5.82,0,0,0,3.61-5.69,6.09,6.09,0,0,0-3.65-5.78,10.91,10.91,0,0,0-4.81-.69h-5.5V31.46Z"/><path class="cls-2" d="M111.76,25.3c0.55,5.69,4.72,6.89,6.85,6.89a6.7,6.7,0,0,0,6.84-6.52c0-4.81-4.12-5.87-8.09-7.17-2.78-.83-8.74-2.59-8.74-9.07C108.53,3.38,113.57,0,118.79,0c4.26,0,9.16,2.36,9.72,8.84h-3.79c-0.42-2.22-1.53-5.6-6.06-5.6-3.42,0-6.24,2.32-6.24,5.88,0,4.16,3.33,5.18,8.51,6.94,3.24,1.25,8.32,3.05,8.32,9.35,0,5.6-4.21,10-10.59,10-5.74,0-10.5-3.61-10.73-10.13h3.84Z"/><path class="cls-2" d="M134.39,34.83V0.6h3.79V15.82h16.51V0.6h3.84V34.83h-3.84V19.2H138.18V34.83h-3.79Z"/><path class="cls-2" d="M169.13,0.6V22.3c0,2.59,0,4.58,1.62,6.89a7.33,7.33,0,0,0,6,2.87,7.12,7.12,0,0,0,5.88-2.82c1.62-2.27,1.62-4.25,1.62-6.94V0.6H188V22.3c0,4-.46,7.91-3.89,10.54a11.22,11.22,0,0,1-7.4,2.59,11.6,11.6,0,0,1-7.54-2.59c-3.61-2.91-3.88-6.8-3.88-10.54V0.6h3.84Z"/><path class="cls-2" d="M194.8,0.6h19V4H198.6V15.87h15.08v3.37H198.6V31.46h15.17v3.38h-19V0.6Z"/><path class="cls-2" d="M219.5,0.6h8.93c5.37,0,7.86.65,9.62,1.76,2.78,1.66,4.67,5.32,4.67,9.2a11,11,0,0,1-2,6.71c-2,2.78-4.49,3.42-7.63,3.75l8.51,12.81H237.4l-9.66-14.94h1.11c2.4,0,5.73,0,7.58-1.76A8.34,8.34,0,0,0,239,11.84a8,8,0,0,0-3.38-6.61C233.94,4.12,231.81,4,228.71,4h-5.36V34.83H219.5V0.6Z"/><path class="cls-2" d="M252.3,4h-8.42V0.6H264.6V4h-8.46V34.83H252.3V4Z"/><path class="cls-2" d="M299.85,25.3c0.56,5.69,4.72,6.89,6.85,6.89a6.71,6.71,0,0,0,6.85-6.52c0-4.81-4.12-5.87-8.09-7.17-2.78-.83-8.74-2.59-8.74-9.07C296.62,3.38,301.66,0,306.89,0c4.26,0,9.16,2.36,9.71,8.84h-3.79c-0.42-2.22-1.52-5.6-6.06-5.6-3.42,0-6.25,2.32-6.25,5.88,0,4.16,3.33,5.18,8.51,6.94,3.23,1.25,8.33,3.05,8.33,9.35,0,5.6-4.21,10-10.59,10-5.74,0-10.5-3.61-10.73-10.13h3.84Z"/><path class="cls-2" d="M279.76,0.66H276l-14.5,34.72h32.61ZM266.87,32.37L277.74,5l10.95,27.35H266.87Z"/><path class="cls-2" d="M91.86,0.1H88.11L73.61,34.82h32.61ZM79,31.82L89.84,4.46l10.95,27.35H79Z"/></g></svg>